SplineFontDB: 3.0
FontName: Oxygen
FullName: Oxygen
FamilyName: Oxygen
Weight: Regular
Copyright: Copyright (c) 2011 by vernon adams. All rights reserved.
Version: 1.000
FONDName: Oxygen
ItalicAngle: 0
UnderlinePosition: -103
UnderlineWidth: 102
Ascent: 1638
Descent: 410
UFOAscent: 1510
UFODescent: -410
LayerCount: 2
Layer: 0 0 "Back"  1
Layer: 1 0 "Fore"  0
FSType: 0
OS2Version: 0
OS2_WeightWidthSlopeOnly: 0
OS2_UseTypoMetrics: 0
CreationTime: 1331821449
ModificationTime: 1331821449
PfmFamily: 0
TTFWeight: 400
TTFWidth: 5
LineGap: 0
VLineGap: 0
Panose: 2 0 5 3 0 0 0 9 0 4
OS2TypoAscent: 2519
OS2TypoAOffset: 0
OS2TypoDescent: -672
OS2TypoDOffset: 0
OS2TypoLinegap: 0
OS2WinAscent: 2519
OS2WinAOffset: 0
OS2WinDescent: 672
OS2WinDOffset: 0
HheadAscent: 0
HheadAOffset: 1
HheadDescent: 0
HheadDOffset: 1
OS2Vendor: 'newt'
OS2CodePages: 20000007.00000000
OS2UnicodeRanges: 00000007.00000000.00000000.00000000
Lookup: 258 0 0 "'kern' Horizontal Kerning in Latin lookup 0"  {"'kern' Horizontal Kerning in Latin lookup 0 subtable"  } ['kern' ('latn' <'dflt' > ) ]
DEI: 91125
LangName: 1033 "" "" "" "vernonadams: Oxygen: 2011" "" "Version 1.000" "" "Oxygen is a trademark of vernon adams." "vernon adams" "vernon adams" "Copyright (c) 2011 by vernon adams. All rights reserved." "newtypography.co.uk" "newtypography.co.uk" "" "" "" "" "" "Oxygen" 
PickledData: "(dp1
S'com.typemytype.robofont.compileSettings.autohint'
p2
I01
sS'com.typemytype.robofont.compileSettings.decompose'
p3
I01
sS'com.typemytype.robofont.foreground.layerStrokeColor'
p4
(F0.5
F0
F0.5
F0.69999999999999996
tp5
sS'com.typemytype.robofont.compileSettings.releaseMode'
p6
I00
sS'com.typemytype.robofont.shouldAddPointsInSplineConversion'
p7
I00
sS'com.typemytype.robofont.compileSettings.checkOutlines'
p8
I01
sS'org.robofab.glyphOrder'
p9
(S'A'
S'Aacute'
S'Abreve'
S'Acircumflex'
S'Adieresis'
S'Agrave'
S'Amacron'
S'Aogonek'
S'Aring'
S'Atilde'
S'AE'
S'B'
S'C'
S'Cacute'
S'Ccaron'
S'Ccedilla'
S'Ccircumflex'
S'Cdotaccent'

StartChar: A
Encoding: 65 65 1
Width: 1309
VWidth: 0
Flags: W
PickledData: "(dp1
S'com.typemytype.robofont.layerData'
p2
(dp3
S'back'
p4
(dp5
S'name'
p6
S'A'
sS'lib'
p7
(dp8
sS'unicodes'
p9
(tsS'width'
p10
I1309
sS'contours'
p11
(tsS'components'
p12
(tsS'anchors'
p13
(tsss."
LayerCount: 2
Fore
SplineSet
420 611 m 1
 899 611 l 1
 671 1324 l 1
 420 611 l 1
1123 0 m 1
 958 473 l 1
 365 473 l 1
 187 0 l 1
 6 0 l 1
 564 1496 l 1
 776 1496 l 1
 1303 0 l 1
 1123 0 l 1
655 1489 m 0
1172 10 m 0
655 1489 m 0
1172 10 m 0
655 1489 m 0
1188 10 m 0
655 1489 m 0
1175 10 m 0
EndSplineSet
EndChar

StartChar: AE
Encoding: 198 198 2
Width: 1866
VWidth: 0
Flags: W
PickledData: "(dp1
S'com.typemytype.robofont.layerData'
p2
(dp3
S'back'
p4
(dp5
S'name'
p6
S'AE'
p7
sS'lib'
p8
(dp9
sS'unicodes'
p10
(tsS'width'
p11
I1866
sS'contours'
p12
((dp13
S'points'
p14
((dp15
S'segmentType'
p16
S'line'
p17
sS'x'
F169
sS'smooth'
p18
I00
sS'y'
F0
s(dp19
g16
S'line'
p20
sS'x'
F391
sg18
I00
sS'y'
F427
s(dp21
g16
S'line'
p22
sS'x'
F976
sg18
I00
sS'y'
F427
s(dp23
g16
S'line'
p24
sS'x'
F1007
sg18
I00
sS'y'
F0
s(dp25
g16
S'line'
p26
sS'x'
F1776
sg18
I00
sS'y'
F0
s(dp27
g16
S'line'
p28
sS'x'
F1790
sg18
I00
sS'y'
F158
s(dp29
g16
S'line'
p30
sS'x'
F1166
sg18
I00
sS'y'
F158
s(dp31
g16
S'line'
p32
sS'x'
F1124
sg18
I00
sS'y'
F724
s(dp33
g16
S'line'
p34
sS'x'
F1735
sg18
I00
sS'y'
F724
s(dp35
g16
S'line'
p36
sS'x'
F1735
sg18
I00
sS'y'
F882
s(dp37
g16
S'line'
p38
sS'x'
F1104
sg18
I00
sS'y'
F882
s(dp39
g16
S'line'
p40
sS'x'
I1065
sg18
I00
sS'y'
I1409
s(dp41
g16
S'line'
p42
sS'x'
I1707
sg18
I00
sS'y'
I1409
s(dp43
g16
S'line'
p44
sS'x'
I1720
sg18
I00
sS'y'
I1568
s(dp45
g16
S'line'
p46
sS'x'
I816
sg18
I00
sS'y'
I1568
s(dp47
g16
S'line'
p48
sS'x'
F-4
sg18
I00
sS'y'
F0
stp49
s(dp50
g14
((dp51
g16
S'line'
p52
sS'x'
F954
sg18
I00
sS'y'
F589
s(dp53
g16
S'line'
p54
sS'x'
F475
sg18
I00
sS'y'
F589
s(dp55
g16
S'line'
p56
sS'x'
I893
sg18
I00
sS'y'
I1409
stp57
stp58
sS'components'
p59
(tsS'anchors'
p60
((dp61
S'y'
F1489
sS'x'
F957
sg6
S'top'
p62
stp63
sss."
LayerCount: 2
Fore
SplineSet
954 589 m 1
 511 589 l 1
 900 1361 l 1
 954 589 l 1
208 0 m 1
 427 427 l 1
 976 427 l 1
 1007 0 l 1
 1812 0 l 1
 1826 158 l 1
 1166 158 l 1
 1124 724 l 1
 1715 724 l 1
 1715 882 l 1
 1104 882 l 1
 1072 1337 l 1
 1687 1337 l 1
 1700 1496 l 1
 800 1496 l 1
 0 0 l 1
 208 0 l 1
957 1489 m 0
EndSplineSet
EndChar

StartChar: Alpha
Encoding: 913 913 8
Width: 1333
VWidth: 0
Flags: W
LayerCount: 2
Fore
SplineSet
667 1489 m 1
 667 1489 l 1
667 1489 m 1
 667 1489 l 1
667 1489 m 0
EndSplineSet
Refer: 1 65 N 1 0 0 1 0 0 2
EndChar

StartChar: Alphatonos
Encoding: 902 902 9
Width: 468
VWidth: 0
Flags: W
LayerCount: 2
Fore
SplineSet
237 796 m 0
 326 796 370 730 370 664 c 0
 370 598 326 532 237 532 c 0
 149 532 104 598 104 664 c 0
 104 730 149 796 237 796 c 0
EndSplineSet
EndChar

StartChar: B
Encoding: 66 66 14
Width: 1286
VWidth: 0
Flags: W
PickledData: "(dp1
S'com.typemytype.robofont.layerData'
p2
(dp3
S'back'
p4
(dp5
S'name'
p6
S'B'
sS'lib'
p7
(dp8
sS'unicodes'
p9
(tsS'width'
p10
I1286
sS'contours'
p11
(tsS'components'
p12
(tsS'anchors'
p13
(tsss."
LayerCount: 2
Fore
SplineSet
324 716 m 1
 324 139 l 1
 637 139 l 2
 897 139 1033 227 1033 428 c 0
 1033 616 912 716 688 716 c 2
 324 716 l 1
324 1352 m 1
 324 850 l 1
 678 850 l 2
 817 850 966 885 966 1096 c 0
 966 1321 800 1352 557 1352 c 2
 324 1352 l 1
147 0 m 1
 147 1496 l 1
 583 1496 l 2
 944 1496 1151 1395 1151 1131 c 0
 1151 988 1090 851 939 801 c 1
 1127 761 1213 585 1213 426 c 0
 1213 163 1059 0 670 0 c 2
 147 0 l 1
EndSplineSet
EndChar

StartChar: C
Encoding: 67 67 16
Width: 1289
VWidth: 0
Flags: W
PickledData: "(dp1
S'com.typemytype.robofont.layerData'
p2
(dp3
S'back'
p4
(dp5
S'name'
p6
S'C'
sS'lib'
p7
(dp8
sS'unicodes'
p9
(tsS'width'
p10
I1289
sS'contours'
p11
(tsS'components'
p12
(tsS'anchors'
p13
(tsss."
LayerCount: 2
Fore
SplineSet
814 1525 m 0
 1011 1525 1148 1473 1251 1389 c 1
 1187 1254 l 1
 1103 1319 973 1373 819 1373 c 0
 456 1373 288 1078 288 746 c 0
 288 429 435 129 829 129 c 0
 979 129 1106 186 1188 252 c 1
 1246 107 l 1
 1147 19 1009 -23 815 -23 c 0
 345 -23 99 322 99 745 c 0
 99 1187 353 1525 814 1525 c 0
640 1489 m 1
 640 1489 l 1
640 0 m 1
 640 0 l 1
640 1489 m 1
 640 1489 l 1
640 0 m 1
 640 0 l 1
640 1489 m 1
 640 1489 l 1
640 0 m 1
 640 0 l 1
640 1489 m 0
640 0 m 0
EndSplineSet
EndChar

StartChar: D
Encoding: 68 68 23
Width: 1511
VWidth: 0
Flags: W
PickledData: "(dp1
S'com.typemytype.robofont.layerData'
p2
(dp3
S'back'
p4
(dp5
S'name'
p6
S'D'
sS'lib'
p7
(dp8
sS'unicodes'
p9
(tsS'width'
p10
I1511
sS'contours'
p11
(tsS'components'
p12
(tsS'anchors'
p13
(tsss."
LayerCount: 2
Fore
SplineSet
324 1341 m 1
 324 155 l 1
 639 155 l 2
 1005 155 1223 347 1223 734 c 0
 1223 1205 949 1341 540 1341 c 2
 324 1341 l 1
147 0 m 1
 147 1496 l 1
 519 1496 l 2
 1036 1496 1412 1315 1412 738 c 0
 1412 240 1093 0 621 0 c 2
 147 0 l 1
761 1489 m 1
 761 1489 l 1
761 745 m 1
 761 745 l 1
761 1489 m 1
 761 1489 l 1
761 745 m 1
 761 745 l 1
761 1489 m 1
 761 1489 l 1
761 745 m 1
 761 745 l 1
761 1489 m 0
761 745 m 0
EndSplineSet
EndChar

StartChar: Delta
Encoding: 916 916 26
Width: 1265
VWidth: 0
Flags: W
LayerCount: 2
Fore
SplineSet
1037.74 154.9 m 1
 632 1306 l 1
 230.966 154.9 l 1
 1037.74 154.9 l 1
-10 0 m 1
 539 1496 l 1
 724 1496 l 1
 1275 0 l 1
 -10 0 l 1
EndSplineSet
EndChar

StartChar: E
Encoding: 69 69 27
Width: 1148
VWidth: 0
Flags: W
PickledData: "(dp1
S'com.typemytype.robofont.layerData'
p2
(dp3
S'back'
p4
(dp5
S'name'
p6
S'E'
sS'lib'
p7
(dp8
sS'unicodes'
p9
(tsS'width'
p10
I1148
sS'contours'
p11
(tsS'components'
p12
(tsS'anchors'
p13
(tsss."
LayerCount: 2
Fore
SplineSet
987 845 m 1
 987 692 l 1
 324 692 l 1
 324 155 l 1
 1058 155 l 1
 1043 0 l 1
 147 0 l 1
 147 1496 l 1
 1029 1496 l 1
 1015 1341 l 1
 324 1341 l 1
 324 845 l 1
 987 845 l 1
570 1489 m 1
 570 1489 l 1
570 0 m 1
 570 0 l 1
1026 10 m 1
 1026 10 l 1
570 1489 m 1
 570 1489 l 1
570 0 m 1
 570 0 l 1
1026 10 m 1
 1026 10 l 1
570 1489 m 1
 570 1489 l 1
570 0 m 1
 570 0 l 1
1026 10 m 1
 1026 10 l 1
570 1489 m 0
570 0 m 0
1026 10 m 0
EndSplineSet
EndChar

StartChar: Eng
Encoding: 330 330 35
Width: 1420
VWidth: 0
Flags: W
LayerCount: 2
Fore
SplineSet
839 -328 m 0
 811 -328 761 -326 639 -314 c 1
 616 -166 l 1
 752 -174 773 -175 794 -175 c 0
 1071 -175 1094 -101 1094 171 c 2
 1094 1003 l 2
 1094 1269 1020 1358 804 1358 c 0
 586 1358 417 1232 322 1089 c 1
 322 0 l 1
 146 0 l 1
 144 1496 l 1
 304 1496 l 1
 322 1284 l 1
 503 1480 683 1520 857 1520 c 0
 1128 1520 1269 1341 1269 1009 c 2
 1269 165 l 2
 1269 -143 1200 -328 839 -328 c 0
EndSplineSet
EndChar

StartChar: Epsilon
Encoding: 917 917 37
Width: 1140
VWidth: 0
Flags: W
LayerCount: 2
Fore
SplineSet
570 1489 m 1
 570 1489 l 1
570 1489 m 1
 570 1489 l 1
570 1489 m 0
EndSplineSet
Refer: 27 69 N 1 0 0 1 0 0 2
EndChar

StartChar: Epsilontonos
Encoding: 904 904 38
Width: 468
VWidth: 0
Flags: W
LayerCount: 2
Fore
SplineSet
237 796 m 0
 326 796 370 730 370 664 c 0
 370 598 326 532 237 532 c 0
 149 532 104 598 104 664 c 0
 104 730 149 796 237 796 c 0
EndSplineSet
EndChar

StartChar: Etatonos
Encoding: 905 905 40
Width: 468
VWidth: 0
Flags: W
LayerCount: 2
Fore
SplineSet
237 796 m 0
 326 796 370 730 370 664 c 0
 370 598 326 532 237 532 c 0
 149 532 104 598 104 664 c 0
 104 730 149 796 237 796 c 0
EndSplineSet
EndChar

StartChar: Eth
Encoding: 208 208 41
Width: 1522
VWidth: 0
Flags: W
PickledData: "(dp1
S'com.typemytype.robofont.layerData'
p2
(dp3
S'back'
p4
(dp5
S'name'
p6
S'Eth'
p7
sS'lib'
p8
(dp9
sS'unicodes'
p10
(tsS'width'
p11
I1522
sS'contours'
p12
(tsS'components'
p13
(tsS'anchors'
p14
(tsss."
LayerCount: 2
Fore
SplineSet
29 697 m 1
 29 832 l 1
 566 832 l 1
 566 697 l 1
 29 697 l 1
EndSplineSet
Refer: 23 68 N 1 0 0 1 0 0 2
EndChar

StartChar: Euro
Encoding: 8364 8364 42
Width: 1194
VWidth: 0
Flags: W
PickledData: "(dp1
S'com.typemytype.robofont.layerData'
p2
(dp3
S'back'
p4
(dp5
S'name'
p6
S'Euro'
p7
sS'lib'
p8
(dp9
sS'unicodes'
p10
(tsS'width'
p11
I1194
sS'contours'
p12
(tsS'components'
p13
(tsS'anchors'
p14
(tsss."
LayerCount: 2
Fore
SplineSet
84 580 m 1
 101 683 l 1
 193 683 l 1
 192 699 191 715 191 731 c 0
 191 769 194 808 196 845 c 1
 83 845 l 1
 102 957 l 1
 212 957 l 1
 263 1288 446 1524 774 1524 c 0
 898 1524 990 1494 1066 1429 c 1
 1065 1249 l 1
 998 1322 905 1369 796 1369 c 0
 568 1369 444 1203 403 957 c 1
 961 957 l 1
 944 845 l 1
 385 845 l 1
 380 796 382 684 380 683 c 1
 929 683 l 1
 919 580 l 1
 397 580 l 1
 425 345 542 135 778 135 c 0
 874 135 970 169 1066 244 c 1
 1065 69 l 1
 977 5 878 -22 759 -22 c 0
 411 -22 248 287 205 580 c 1
 84 580 l 1
EndSplineSet
EndChar

StartChar: F
Encoding: 70 70 43
Width: 1025
VWidth: 0
Flags: W
LayerCount: 2
Fore
SplineSet
940 838 m 1
 940 695 l 1
 324 695 l 1
 324 0 l 1
 147 0 l 1
 147 1496 l 1
 974 1496 l 1
 960 1341 l 1
 324 1341 l 1
 324 838 l 1
 940 838 l 1
EndSplineSet
EndChar

StartChar: G
Encoding: 71 71 44
Width: 1432
VWidth: 0
Flags: W
PickledData: "(dp1
S'com.typemytype.robofont.layerData'
p2
(dp3
S'back'
p4
(dp5
S'name'
p6
S'G'
sS'lib'
p7
(dp8
sS'unicodes'
p9
(tsS'width'
p10
I1432
sS'contours'
p11
(tsS'components'
p12
(tsS'anchors'
p13
(tsss."
LayerCount: 2
Fore
SplineSet
811 -23 m 0
 1002 -23 1142 15 1321 123 c 1
 1321 764 l 1
 809 764 l 1
 797 615 l 1
 1167 615 l 1
 1167 220 l 1
 1101 179 955 129 830 129 c 0
 451 129 290 413 290 745 c 0
 290 1074 451 1373 830 1373 c 0
 976 1373 1129 1309 1210 1243 c 1
 1275 1380 l 1
 1161 1472 1008 1525 816 1525 c 0
 334 1525 101 1164 101 745 c 0
 101 335 338 -23 811 -23 c 0
716 1489 m 0
716 0 m 0
EndSplineSet
EndChar

StartChar: H
Encoding: 72 72 51
Width: 1465
VWidth: 0
Flags: W
LayerCount: 2
Fore
SplineSet
1141 696 m 1
 324 696 l 1
 324 0 l 1
 147 0 l 1
 147 1496 l 1
 324 1496 l 1
 324 848 l 1
 1141 848 l 1
 1141 1496 l 1
 1318 1496 l 1
 1318 0 l 1
 1141 0 l 1
 1141 696 l 1
733 1489 m 1
 733 1489 l 1
733 745 m 1
 733 745 l 1
733 1489 m 1
 733 1489 l 1
733 745 m 1
 733 745 l 1
733 1489 m 1
 733 1489 l 1
733 745 m 1
 733 745 l 1
733 1489 m 0
733 745 m 0
EndSplineSet
EndChar

StartChar: Hbar
Encoding: 294 294 52
Width: 1463
VWidth: 0
Flags: W
LayerCount: 2
Fore
SplineSet
1141 696 m 1
 324 696 l 1
 324 0 l 1
 147 0 l 1
 147 1146 l 1
 57 1146 l 1
 57 1251 l 1
 147 1251 l 1
 147 1496 l 1
 324 1496 l 1
 324 1251 l 1
 1141 1251 l 1
 1141 1496 l 1
 1318 1496 l 1
 1318 1251 l 1
 1408 1251 l 1
 1408 1146 l 1
 1318 1146 l 1
 1318 0 l 1
 1141 0 l 1
 1141 696 l 1
324 1146 m 1
 324 848 l 1
 1141 848 l 1
 1141 1146 l 1
 324 1146 l 1
EndSplineSet
EndChar

StartChar: I
Encoding: 73 73 54
Width: 509
VWidth: 0
Flags: W
LayerCount: 2
Fore
SplineSet
340 1496 m 1
 340 0 l 1
 163 0 l 1
 163 1496 l 1
 340 1496 l 1
255 1489 m 0
458 10 m 0
255 1489 m 0
458 10 m 0
EndSplineSet
EndChar

StartChar: IJ
Encoding: 306 306 55
Width: 1464
VWidth: 0
Flags: W
LayerCount: 2
Fore
SplineSet
1133 409 m 2
 1133 1557 l 1
 1309 1557 l 1
 1309 461 l 2
 1309 133 1277 -28 887 -28 c 2
 854 -28 l 1
 854 139 l 1
 907 139 l 1
 1121 144 1133 251 1133 409 c 2
334 1557 m 1
 334 0 l 1
 155 0 l 1
 155 1557 l 1
 334 1557 l 1
EndSplineSet
EndChar

StartChar: Iotatonos
Encoding: 906 906 66
Width: 468
VWidth: 0
Flags: W
LayerCount: 2
Fore
SplineSet
237 796 m 0
 326 796 370 730 370 664 c 0
 370 598 326 532 237 532 c 0
 149 532 104 598 104 664 c 0
 104 730 149 796 237 796 c 0
EndSplineSet
EndChar

StartChar: J
Encoding: 74 74 68
Width: 550
VWidth: 0
Flags: W
LayerCount: 2
Fore
SplineSet
226 181 m 2
 226 1496 l 1
 403 1496 l 1
 403 241 l 2
 403 -67 368 -214 16 -214 c 2
 -19 -214 l 1
 -40 -72 l 1
 34 -72 l 2
 216 -72 226 33 226 181 c 2
275 1489 m 1
 275 1489 l 1
275 1489 m 1
 275 1489 l 1
275 1489 m 1
 275 1489 l 1
275 1489 m 0
EndSplineSet
EndChar

StartChar: K
Encoding: 75 75 70
Width: 1228
VWidth: 0
Flags: W
LayerCount: 2
Fore
SplineSet
582 799 m 1
 1263 0 l 1
 1040 0 l 1
 440 703 l 1
 323 602 l 1
 323 0 l 1
 146 0 l 1
 146 1496 l 1
 323 1496 l 1
 323 770 l 1
 961 1496 l 1
 1194 1496 l 1
 582 799 l 1
614 1489 m 1
 614 1489 l 1
614 0 m 1
 614 0 l 1
614 1489 m 1
 614 1489 l 1
614 0 m 1
 614 0 l 1
614 1489 m 1
 614 1489 l 1
614 0 m 1
 614 0 l 1
614 1489 m 0
614 0 m 0
EndSplineSet
EndChar

StartChar: L
Encoding: 76 76 73
Width: 980
VWidth: 0
Flags: W
PickledData: "(dp1
S'com.typemytype.robofont.layerData'
p2
(dp3
S'back'
p4
(dp5
S'name'
p6
S'L'
sS'lib'
p7
(dp8
sS'unicodes'
p9
(tsS'width'
p10
I980
sS'contours'
p11
(tsS'components'
p12
(tsS'anchors'
p13
(tsss."
LayerCount: 2
Fore
SplineSet
148 1496 m 1
 325 1496 l 1
 325 155 l 1
 982 155 l 1
 970 0 l 1
 148 0 l 1
 148 1496 l 1
480 1489 m 1
 480 1489 l 1
480 0 m 1
 480 0 l 1
480 1489 m 1
 480 1489 l 1
480 0 m 1
 480 0 l 1
480 1489 m 1
 480 1489 l 1
480 0 m 1
 480 0 l 1
480 1489 m 0
480 0 m 0
EndSplineSet
EndChar

StartChar: Lambda
Encoding: 923 923 75
Width: 1265
VWidth: 0
Flags: W
LayerCount: 2
Fore
SplineSet
632 1306 m 1
 177 0 l 1
 -10 0 l 1
 539 1496 l 1
 724 1496 l 1
 1275 0 l 1
 1093 0 l 1
 632 1306 l 1
EndSplineSet
EndChar

StartChar: Lslash
Encoding: 321 321 79
Width: 960
VWidth: 0
Flags: W
LayerCount: 2
Fore
SplineSet
0 527 m 1
 0 675 l 1
 675 1045 l 1
 675 889 l 1
 0 527 l 1
EndSplineSet
Refer: 73 76 N 1 0 0 1 0 0 2
EndChar

StartChar: M
Encoding: 77 77 80
Width: 1785
VWidth: 0
Flags: W
LayerCount: 2
Fore
SplineSet
316 1181 m 1
 316 0 l 1
 149 0 l 1
 149 1496 l 1
 341 1496 l 1
 900 347 l 1
 1453 1496 l 1
 1636 1496 l 1
 1636 0 l 1
 1470 0 l 1
 1470 1175 l 1
 998 183 l 1
 797 183 l 1
 316 1181 l 1
EndSplineSet
EndChar

StartChar: N
Encoding: 78 78 82
Width: 1488
VWidth: 0
Flags: W
LayerCount: 2
Fore
SplineSet
1341 0 m 1
 1144 0 l 1
 314 1239 l 1
 314 0 l 1
 147 0 l 1
 147 1496 l 1
 341 1496 l 1
 1178 253 l 1
 1178 1496 l 1
 1341 1496 l 1
 1341 0 l 1
744 1489 m 0
744 0 m 0
744 1489 m 0
744 0 m 0
744 1489 m 0
744 0 m 0
744 1489 m 0
744 0 m 0
EndSplineSet
EndChar

StartChar: O
Encoding: 79 79 88
Width: 1657
VWidth: 0
Flags: W
PickledData: "(dp1
S'com.typemytype.robofont.layerData'
p2
(dp3
S'back'
p4
(dp5
S'name'
p6
S'O'
sS'lib'
p7
(dp8
sS'unicodes'
p9
(tsS'width'
p10
I1657
sS'contours'
p11
(tsS'components'
p12
(tsS'anchors'
p13
(tsss."
LayerCount: 2
Fore
SplineSet
829 1373 m 0
 469 1373 288 1123 288 746 c 0
 288 402 453 129 829 129 c 0
 1205 129 1369 402 1369 746 c 0
 1369 1119 1190 1373 829 1373 c 0
829 -23 m 0
 349 -23 99 308 99 746 c 0
 99 1211 366 1525 829 1525 c 0
 1292 1525 1558 1211 1558 746 c 0
 1558 308 1308 -23 829 -23 c 0
829 1489 m 1
 829 1489 l 1
829 1489 m 1
 829 1489 l 1
829 1489 m 1
 829 1489 l 1
829 1489 m 0
EndSplineSet
EndChar

StartChar: OE
Encoding: 338 338 89
Width: 1980
VWidth: 0
Flags: W
PickledData: "(dp1
S'com.typemytype.robofont.layerData'
p2
(dp3
S'back'
p4
(dp5
S'name'
p6
S'OE'
p7
sS'lib'
p8
(dp9
sS'unicodes'
p10
(tsS'width'
p11
I1980
sS'contours'
p12
(tsS'components'
p13
(tsS'anchors'
p14
(tsss."
LayerCount: 2
Fore
SplineSet
1148 1259 m 1
 1071 1322 955 1373 815 1373 c 0
 491 1373 299 1121 291 773 c 1
 291 418 433 133 824 129 c 1
 953 129 1100 193 1148 222 c 1
 1148 1259 l 1
800 1524 m 0
 948 1524 1073 1478 1148 1413 c 1
 1148 1495 l 1
 1874 1495 l 1
 1857 1341 l 1
 1325 1341 l 1
 1325 845 l 1
 1821 845 l 1
 1821 692 l 1
 1325 692 l 1
 1325 156 l 1
 1898 156 l 1
 1883 0 l 1
 1148 0 l 1
 1148 82 l 1
 1105 36 940 -23 823 -23 c 0
 348 -23 101 299 101 771 c 1
 111 1207 398 1524 800 1524 c 0
990 1489 m 0
EndSplineSet
EndChar

StartChar: Omega
Encoding: 937 937 97
Width: 1661
VWidth: 0
Flags: W
LayerCount: 2
Fore
SplineSet
20 1489 m 1
 20 1489 l 1
20 1489 m 1
 20 1489 l 1
20 1489 m 0
EndSplineSet
Refer: 88 79 N 1 0 0 1 0 0 2
EndChar

StartChar: Omegatonos
Encoding: 911 911 98
Width: 468
VWidth: 0
Flags: W
LayerCount: 2
Fore
SplineSet
237 796 m 0
 326 796 370 730 370 664 c 0
 370 598 326 532 237 532 c 0
 149 532 104 598 104 664 c 0
 104 730 149 796 237 796 c 0
EndSplineSet
EndChar

StartChar: Omicrontonos
Encoding: 908 908 100
Width: 468
VWidth: 0
Flags: W
LayerCount: 2
Fore
SplineSet
237 796 m 0
 326 796 370 730 370 664 c 0
 370 598 326 532 237 532 c 0
 149 532 104 598 104 664 c 0
 104 730 149 796 237 796 c 0
EndSplineSet
EndChar

StartChar: Oslash
Encoding: 216 216 101
Width: 1717
VWidth: 0
Flags: W
LayerCount: 2
Fore
SplineSet
688 173 m 1
 737 159 791 152 851 152 c 0
 1215 152 1390 429 1390 785 c 0
 1390 1015 1312 1213 1155 1322 c 1
 688 173 l 1
1178 1745 m 1
 1309 1699 l 1
 1227 1497 l 1
 1456 1369 1581 1118 1581 778 c 0
 1581 311 1331 -25 851 -25 c 0
 766 -25 689 -15 619 5 c 1
 544 -180 l 1
 419 -137 l 1
 496 53 l 1
 249 178 121 446 121 778 c 0
 121 1270 388 1586 851 1586 c 0
 941 1586 1024 1574 1100 1551 c 1
 1178 1745 l 1
851 1409 m 0
 490 1409 311 1133 311 785 c 0
 311 540 395 331 566 227 c 1
 1032 1382 l 1
 978 1400 918 1409 851 1409 c 0
859 1489 m 1
 859 1489 l 1
859 1489 m 1
 859 1489 l 1
859 1489 m 1
 859 1489 l 1
859 1489 m 0
EndSplineSet
EndChar

StartChar: P
Encoding: 80 80 103
Width: 1159
VWidth: 0
Flags: W
PickledData: "(dp1
S'com.typemytype.robofont.layerData'
p2
(dp3
S'back'
p4
(dp5
S'name'
p6
S'P'
sS'lib'
p7
(dp8
sS'unicodes'
p9
(tsS'width'
p10
I1159
sS'contours'
p11
(tsS'components'
p12
(tsS'anchors'
p13
(tsss."
LayerCount: 2
Fore
SplineSet
584 778 m 0
 923 778 950 941 950 1090 c 0
 950 1267 817 1337 632 1337 c 2
 323 1337 l 1
 323 780 l 1
 323 780 516 778 584 778 c 0
323 0 m 1
 146 0 l 1
 146 1496 l 1
 628 1496 l 2
 912 1496 1130 1382 1130 1093 c 0
 1130 815 1010 625 567 625 c 0
 505 625 399 631 323 638 c 1
 323 0 l 1
EndSplineSet
EndChar

StartChar: Phi
Encoding: 934 934 104
Width: 1661
VWidth: 0
Flags: W
LayerCount: 2
Fore
SplineSet
916.9 0 m 1
 739.9 0 l 1
 739.9 1496 l 1
 916.9 1496 l 1
 916.9 0 l 1
831 167 m 0
 1310 167 1560 427.41 1560 772 c 0
 1560 1123.59 1294 1361 831 1361 c 0
 368 1361 101 1123.59 101 772 c 0
 101 427.41 351 167 831 167 c 0
831 1209 m 0
 1192 1209 1371 1031.97 1371 772 c 0
 1371 519.436 1207 319 831 319 c 0
 455 319 290 519.436 290 772 c 0
 290 1034.76 471 1209 831 1209 c 0
EndSplineSet
EndChar

StartChar: Pi
Encoding: 928 928 105
Width: 1465
VWidth: 0
Flags: W
LayerCount: 2
Fore
SplineSet
1141 1344 m 1
 324 1344 l 1
 324 0 l 1
 147 0 l 1
 147 1496 l 1
 1318 1496 l 1
 1318 0 l 1
 1141 0 l 1
 1141 1344 l 1
EndSplineSet
EndChar

StartChar: Psi
Encoding: 936 936 106
Width: 468
VWidth: 0
Flags: W
LayerCount: 2
Fore
SplineSet
237 796 m 0
 326 796 370 730 370 664 c 0
 370 598 326 532 237 532 c 0
 149 532 104 598 104 664 c 0
 104 730 149 796 237 796 c 0
EndSplineSet
EndChar

StartChar: Q
Encoding: 81 81 107
Width: 1657
VWidth: 0
Flags: W
PickledData: "(dp1
S'com.typemytype.robofont.layerData'
p2
(dp3
S'back'
p4
(dp5
S'name'
p6
S'Q'
sS'lib'
p7
(dp8
sS'unicodes'
p9
(tsS'width'
p10
I1657
sS'contours'
p11
(tsS'components'
p12
(tsS'anchors'
p13
(tsss."
LayerCount: 2
Fore
SplineSet
1267 -470 m 1
 1228 -431 1027 -192 942 -17 c 1
 945 -16.0002352941 1071.93333333 49.0233333333 1111 26 c 1
 1177 -120 1354 -322 1385 -350 c 1
 1267 -470 l 1
EndSplineSet
Refer: 88 79 N 1 0 0 1 0 0 2
EndChar

StartChar: R
Encoding: 82 82 108
Width: 1339
VWidth: 0
Flags: W
PickledData: "(dp1
S'com.typemytype.robofont.layerData'
p2
(dp3
S'back'
p4
(dp5
S'name'
p6
S'R'
sS'lib'
p7
(dp8
sS'unicodes'
p9
(tsS'width'
p10
I1339
sS'contours'
p11
(tsS'components'
p12
(tsS'anchors'
p13
(tsss."
LayerCount: 2
Fore
SplineSet
324 1341 m 1
 324 841 l 1
 679 837 l 2
 950 834 1028 923 1028 1102 c 0
 1028 1258 949 1341 720 1341 c 2
 324 1341 l 1
1272 0 m 1
 1072 0 l 1
 868 464 l 2
 829 552 793 638 762 689 c 1
 733 687 623 684 589 684 c 0
 570 684 324 692 324 692 c 1
 324 0 l 1
 147 0 l 1
 147 1496 l 1
 620 1496 l 2
 976 1496 1202 1442 1202 1105 c 0
 1202 919.973 1113 776 920 724 c 0
 917 723 995.228 598.497 1030 522 c 2
 1272 0 l 1
642 1489 m 1
 642 1489 l 1
642 0 m 1
 642 0 l 1
642 1489 m 1
 642 1489 l 1
642 0 m 1
 642 0 l 1
642 1489 m 1
 642 1489 l 1
642 0 m 1
 642 0 l 1
642 1489 m 0
642 0 m 0
EndSplineSet
EndChar

StartChar: S
Encoding: 83 83 113
Width: 1227
VWidth: 0
Flags: W
PickledData: "(dp1
S'com.typemytype.robofont.layerData'
p2
(dp3
S'back'
p4
(dp5
S'name'
p6
S'S'
sS'lib'
p7
(dp8
sS'unicodes'
p9
(tsS'width'
p10
I1227
sS'contours'
p11
(tsS'components'
p12
(tsS'anchors'
p13
(tsss."
LayerCount: 2
Fore
SplineSet
146 244 m 1
 94 100 l 1
 185 44 370 -23 630 -23 c 0
 936 -23 1145 121 1145 432 c 0
 1145 676 1003 784 779 838 c 2
 498 906 l 2
 354 941 276 1004 276 1121 c 0
 276 1294 400 1372 638 1372 c 0
 800 1372 960 1321 1039 1277 c 1
 1089 1418 l 1
 987 1482 825 1525 642 1525 c 0
 314 1525 96 1400 96 1109 c 0
 96 911 227 801 433 749 c 2
 727 675 l 2
 917 627 966 546 966 426 c 0
 966 224 853 130 641 130 c 0
 450 130 280 178 146 244 c 1
615 1489 m 0
615 0 m 0
EndSplineSet
EndChar

StartChar: T
Encoding: 84 84 119
Width: 1066
VWidth: 0
Flags: W
PickledData: "(dp1
S'com.typemytype.robofont.layerData'
p2
(dp3
S'back'
p4
(dp5
S'name'
p6
S'T'
sS'lib'
p7
(dp8
sS'unicodes'
p9
(tsS'width'
p10
I1066
sS'contours'
p11
(tsS'components'
p12
(tsS'anchors'
p13
(tsss."
LayerCount: 2
Fore
SplineSet
-3 1341 m 1
 -3 1496 l 1
 1069 1496 l 1
 1069 1341 l 1
 621 1341 l 1
 621 0 l 1
 444 0 l 1
 444 1341 l 1
 -3 1341 l 1
533 1489 m 1
 533 1489 l 1
533 0 m 1
 533 0 l 1
533 745 m 1
 533 745 l 1
533 1489 m 1
 533 1489 l 1
533 0 m 1
 533 0 l 1
533 745 m 1
 533 745 l 1
533 1489 m 1
 533 1489 l 1
533 0 m 1
 533 0 l 1
533 745 m 1
 533 745 l 1
533 1489 m 0
533 0 m 0
533 745 m 0
EndSplineSet
EndChar

StartChar: Tbar
Encoding: 358 358 121
Width: 1050
VWidth: 0
Flags: W
LayerCount: 2
Fore
SplineSet
256 531 m 1
 256 654 l 1
 764 654 l 1
 764 531 l 1
 256 531 l 1
EndSplineSet
Refer: 119 84 N 1 0 0 1 0 0 2
EndChar

StartChar: Theta
Encoding: 920 920 123
Width: 468
VWidth: 0
Flags: W
LayerCount: 2
Fore
SplineSet
237 796 m 0
 326 796 370 730 370 664 c 0
 370 598 326 532 237 532 c 0
 149 532 104 598 104 664 c 0
 104 730 149 796 237 796 c 0
EndSplineSet
EndChar

StartChar: Thorn
Encoding: 222 222 124
Width: 1291
VWidth: 0
Flags: W
LayerCount: 2
Fore
SplineSet
324 1068 m 1
 324 493 l 1
 708 493 l 2
 956 493 1040 615 1040 782 c 0
 1040 979 941 1068 666 1068 c 2
 324 1068 l 1
147 0 m 1
 147 1496 l 1
 324 1496 l 1
 324 1217 l 1
 648 1217 l 2
 1008 1217 1209 1107 1209 791 c 0
 1209 525 1066 342 719 342 c 0
 711 342 324 349 324 349 c 1
 324 0 l 1
 147 0 l 1
EndSplineSet
EndChar

StartChar: U
Encoding: 85 85 125
Width: 1386
VWidth: 0
Flags: W
LayerCount: 2
Fore
SplineSet
688 -23 m 0
 253 -23 127 202 127 523 c 2
 127 1496 l 1
 304 1496 l 1
 304 529 l 2
 304 237 418 125 688 125 c 0
 957 125 1073 237 1073 529 c 2
 1073 1496 l 1
 1250 1496 l 1
 1250 523 l 2
 1250 202 1124 -23 688 -23 c 0
693 1489 m 1
 693 1489 l 1
1247 10 m 1
 1247 10 l 1
693 1489 m 1
 693 1489 l 1
1247 10 m 1
 1247 10 l 1
693 1489 m 1
 693 1489 l 1
1247 10 m 1
 1247 10 l 1
693 1489 m 0
1247 10 m 0
EndSplineSet
EndChar

StartChar: Upsilontonos
Encoding: 910 910 136
Width: 468
VWidth: 0
Flags: W
LayerCount: 2
Fore
SplineSet
237 796 m 0
 326 796 370 730 370 664 c 0
 370 598 326 532 237 532 c 0
 149 532 104 598 104 664 c 0
 104 730 149 796 237 796 c 0
EndSplineSet
EndChar

StartChar: V
Encoding: 86 86 139
Width: 1265
VWidth: 0
Flags: W
LayerCount: 2
Fore
SplineSet
632 194 m 1
 632 194 930 1052 1089 1496 c 1
 1275 1496 l 1
 728 0 l 1
 536 0 l 1
 -10 1496 l 1
 181 1496 l 1
 632 194 l 1
EndSplineSet
EndChar

StartChar: W
Encoding: 87 87 140
Width: 2131
VWidth: 0
Flags: W
LayerCount: 2
Fore
SplineSet
1541 195 m 1
 1976 1496 l 1
 2158 1496 l 1
 1645 0 l 1
 1435 0 l 1
 1084 1225 l 1
 684 0 l 1
 476 0 l 1
 -27 1496 l 1
 156 1496 l 1
 586 197 l 1
 976 1442 l 1
 1186 1442 l 1
 1541 195 l 1
1061 1489 m 1
 1061 1489 l 1
1066 1489 m 0
EndSplineSet
EndChar

StartChar: X
Encoding: 88 88 145
Width: 1299
VWidth: 0
Flags: W
LayerCount: 2
Fore
SplineSet
11 0 m 1
 536 781 l 1
 43 1496 l 1
 257 1496 l 1
 660 892 l 1
 1090 1496 l 1
 1280 1496 l 1
 781 781 l 1
 1288 0 l 1
 1083 0 l 1
 653 680 l 1
 206 0 l 1
 11 0 l 1
EndSplineSet
EndChar

StartChar: Xi
Encoding: 926 926 146
Width: 468
VWidth: 0
Flags: W
LayerCount: 2
Fore
SplineSet
237 796 m 0
 326 796 370 730 370 664 c 0
 370 598 326 532 237 532 c 0
 149 532 104 598 104 664 c 0
 104 730 149 796 237 796 c 0
EndSplineSet
EndChar

StartChar: Y
Encoding: 89 89 147
Width: 1242
VWidth: 0
Flags: W
LayerCount: 2
Fore
SplineSet
1243 1496 m 1
 687 614 l 1
 687 0 l 1
 510 0 l 1
 510 614 l 1
 -1 1496 l 1
 187 1496 l 1
 610 778 l 1
 1051 1496 l 1
 1243 1496 l 1
621 1489 m 1
 621 1489 l 1
621 1489 m 1
 621 1489 l 1
621 1489 m 1
 621 1489 l 1
621 1489 m 0
EndSplineSet
EndChar

StartChar: Z
Encoding: 90 90 152
Width: 1200
VWidth: 0
Flags: W
LayerCount: 2
Fore
SplineSet
1157 1496 m 1
 1157 1372 l 1
 315 155 l 1
 1149 155 l 1
 1137 0 l 1
 91 0 l 1
 91 139 l 1
 922 1341 l 1
 125 1341 l 1
 125 1496 l 1
 1157 1496 l 1
600 1489 m 1
 600 1489 l 1
600 1489 m 1
 600 1489 l 1
600 1489 m 1
 600 1489 l 1
600 1489 m 0
EndSplineSet
EndChar

StartChar: a
Encoding: 97 97 157
Width: 1046
VWidth: 0
Flags: W
PickledData: "(dp1
S'com.typemytype.robofont.layerData'
p2
(dp3
S'back'
p4
(dp5
S'name'
p6
S'a'
sS'lib'
p7
(dp8
sS'unicodes'
p9
(tsS'width'
p10
I1046
sS'contours'
p11
(tsS'components'
p12
(tsS'anchors'
p13
(tsss."
LayerCount: 2
Fore
SplineSet
437 107 m 0
 541 107 686 170 757 269 c 1
 757 539 l 2
 757 538 660 525 657 525 c 0
 345 484 254 434 254 280 c 0
 254 157 332 107 437 107 c 0
762 120 m 1
 666 12 534 -25 419 -25 c 0
 238 -25 86 70 86 275 c 0
 86 563 364 602 647 643 c 0
 648 643 757 656 757 656 c 1
 757 781 l 2
 757 914 692 983 541 983 c 0
 420 983 288 953 198 909 c 0
 197 909 152 1041 152 1041 c 1
 235 1087 382 1124 537 1124 c 0
 754 1124 924 1051 924 806 c 2
 924 0 l 1
 787 0 l 1
 786 1 762 120 762 120 c 1
536 1098 m 1
 536 1098 l 1
536 1098 m 1
 536 1098 l 1
520 1098 m 0
931 10 m 0
EndSplineSet
EndChar

StartChar: acute
Encoding: 180 180 161
Width: 639
VWidth: 0
Flags: W
LayerCount: 2
Fore
SplineSet
567 1638 m 1
 242 1250 l 1
 128 1250 l 1
 314 1638 l 1
 567 1638 l 1
347.5 1098 m 1
 347.5 1098 l 1
347.5 1098 m 1
 347.5 1098 l 1
347.5 1098 m 1
 347.5 1098 l 1
347.5 1098 m 0
EndSplineSet
EndChar

StartChar: ae
Encoding: 230 230 163
Width: 1674
VWidth: 0
Flags: W
LayerCount: 2
Fore
SplineSet
79.5474 300.068 m 0
 79.5474 563.695276829 348.214587188 595.168579299 651.356307869 612.557972096 c 0
 672.101110646 613.747974987 693.007358793 614.872022467 714 616 c 1
 714 781 l 2
 714 914 665 976 524 976 c 0
 387 976 251 938 168 894 c 1
 132 1032 l 1
 212 1078 370 1124 520 1124 c 0
 679 1124 807 1062 837 932 c 1
 910 1063 1047 1124 1192 1124 c 0
 1465 1124 1566 909 1566 684 c 0
 1566 588 1540 542 1379 534 c 2
 882 509 l 1
 898 275 981 119 1194 119 c 0
 1323 119 1447 180 1517 229 c 1
 1569 108 l 1
 1488 38 1359 -25 1183 -25 c 0
 1039 -25 936 24 856 112 c 1
 737.934 39.3443 560.007 -25.543 404.236 -25.543 c 0
 230.352 -25.543 79.5474 58.9521 79.5474 300.068 c 0
415.886 113.248 m 0
 526.954 113.248 672.566 170.036 787 208 c 1
 742 290 717 386 711 499 c 1
 688.51427425 497.776667326 667.060149991 496.407419048 646.594731324 494.886917675 c 0
 325.499377723 471.030776052 247.789 409.94137585 247.789 291.004 c 0
 247.789 158.102 319.473 113.248 415.886 113.248 c 0
1189 984 m 0
 988 984 899 821 888 615 c 1
 1404 644 l 1
 1404 647.398760352 1403.98619459 650.770328231 1403.95853234 654.114779267 c 0
 1402.07354773 882.01522695 1335.84504131 984 1189 984 c 0
837 1098 m 0
837 1098 m 0
837 1098 m 0
837 1098 m 0
EndSplineSet
EndChar

StartChar: afii10024
Encoding: 1046 1046 165
Width: 1746
VWidth: 0
Flags: W
LayerCount: 2
Fore
SplineSet
962 1497 m 1
 962 789 l 1
 1499 1497 l 1
 1712 1497 l 1
 1210 833 l 1
 1789 0 l 1
 1568 0 l 1
 1076 725 l 1
 962 578 l 1
 962 0 l 1
 786 0 l 1
 786 578 l 1
 681 716 l 1
 179 0 l 1
 -43 0 l 1
 547 824 l 1
 35 1497 l 1
 246 1497 l 1
 786 789 l 1
 786 1497 l 1
 962 1497 l 1
EndSplineSet
EndChar

StartChar: afii10025
Encoding: 1047 1047 166
Width: 1148
VWidth: 0
Flags: W
LayerCount: 2
Fore
SplineSet
539 677 m 2
 421 677 l 1
 421 837 l 1
 548 837 l 2
 761 837 848 973 848 1098 c 2
 848 1113 l 1
 839 1280 710 1372 557 1372 c 0
 427 1372 279 1323 188 1270 c 1
 122 1403 l 1
 234 1488 388 1524 568 1524 c 0
 879 1524 1022 1295 1022 1134 c 0
 1022 955 914 807 785 769 c 1
 924 737 1058 587 1058 402 c 0
 1058 148 883 -23 535 -23 c 0
 338 -23 185 34 85 103 c 1
 148 246 l 1
 234 183 380 129 532 129 c 0
 719 129 882 208 882 403 c 0
 882 543 786 677 539 677 c 2
EndSplineSet
EndChar

StartChar: afii10026
Encoding: 1048 1048 167
Width: 1489
VWidth: 0
Flags: W
LayerCount: 2
Fore
SplineSet
147 0 m 1
 147 1497 l 1
 310 1497 l 1
 310 261 l 1
 584.133 678.534 870.034 1084.3 1149 1497 c 1
 1342 1497 l 1
 1342 0 l 1
 1181 0 l 1
 1181 1230 l 1
 1089 1087 l 1
 346 0 l 1
 147 0 l 1
EndSplineSet
EndChar

StartChar: afii10037
Encoding: 1059 1059 170
Width: 1211
VWidth: 0
Flags: W
LayerCount: 2
Fore
SplineSet
538 0 m 1
 342 0 l 1
 529 466 l 1
 -1 1496 l 1
 200 1496 l 1
 636 637 l 1
 1015 1496 l 1
 1212 1496 l 1
 538 0 l 1
EndSplineSet
EndChar

StartChar: afii10040
Encoding: 1062 1062 171
Width: 1488
VWidth: 0
Flags: W
LayerCount: 2
Fore
SplineSet
1139 155 m 1
 1139 1496 l 1
 1316 1496 l 1
 1316 155 l 1
 1432 155 l 1
 1432 -265 l 1
 1257 -265 l 1
 1257 0 l 1
 147 0 l 1
 147 1496 l 1
 324 1496 l 1
 324 155 l 1
 1139 155 l 1
EndSplineSet
EndChar

StartChar: afii10041
Encoding: 1063 1063 172
Width: 1238
VWidth: 0
Flags: W
LayerCount: 2
Fore
SplineSet
915 873 m 2
 915 1496 l 1
 1092 1496 l 1
 1092 0 l 1
 915 0 l 1
 915 682 l 1
 835 564 677 507 538 507 c 0
 285 507 123 653 123 916 c 2
 123 1496 l 1
 300 1496 l 1
 300 1014 l 2
 300 775 390 672 575 672 c 0
 719 672 915 806 915 873 c 2
EndSplineSet
EndChar

StartChar: afii10043
Encoding: 1065 1065 173
Width: 1735
VWidth: 0
Flags: W
LayerCount: 2
Fore
SplineSet
1462 -265 m 1
 1462 0 l 1
 147 0 l 1
 147 1496 l 1
 324 1496 l 1
 324 155 l 1
 747 155 l 1
 747 1496 l 1
 924 1496 l 1
 924 155 l 1
 1348 155 l 1
 1348 1496 l 1
 1525 1496 l 1
 1525 155 l 1
 1639 155 l 1
 1639 -265 l 1
 1462 -265 l 1
EndSplineSet
EndChar

StartChar: afii10047
Encoding: 1069 1069 174
Width: 1325
VWidth: 0
Flags: W
LayerCount: 2
Fore
SplineSet
520 -23 m 0
 323 -23 175 29 72 113 c 1
 136 248 l 1
 219 184 358 129 511 129 c 0
 831 129 1002 370 1031 664 c 1
 342 664 l 1
 342 818 l 1
 1033 818 l 1
 1015 1111 868 1373 500 1373 c 0
 350 1373 217 1316 135 1250 c 1
 77 1395 l 1
 178.039 1483 325.005 1525 523 1525 c 0
 987.042 1525 1224 1180 1224 757 c 0
 1224 315 981 -23 520 -23 c 0
EndSplineSet
EndChar

StartChar: afii10051
Encoding: 1026 1026 175
Width: 1026
VWidth: 0
Flags: W
LayerCount: 2
Fore
SplineSet
-23 1341 m 1
 -23 1496 l 1
 1049 1496 l 1
 1049 1341 l 1
 601 1341 l 1
 601 0 l 1
 424 0 l 1
 424 1341 l 1
 -23 1341 l 1
513 1489 m 1
 513 1489 l 1
513 0 m 1
 513 0 l 1
513 745 m 1
 513 745 l 1
EndSplineSet
EndChar

StartChar: afii10053
Encoding: 1028 1028 176
Width: 1325
VWidth: 0
Flags: W
LayerCount: 2
Fore
SplineSet
265 664 m 1
 294 370 465 129 785 129 c 0
 938 129 1077 184 1160 248 c 1
 1224 113 l 1
 1121 29 973 -23 776 -23 c 0
 315 -23 72 315 72 757 c 0
 72 1180 312 1525 782 1525 c 0
 976 1525 1120 1483 1219 1395 c 1
 1161 1250 l 1
 1079 1316 946 1373 796 1373 c 0
 428 1373 281 1111 263 818 c 1
 954 818 l 1
 954 664 l 1
 265 664 l 1
EndSplineSet
EndChar

StartChar: afii10060
Encoding: 1035 1035 178
Width: 1026
VWidth: 0
Flags: W
LayerCount: 2
Fore
SplineSet
-23 1341 m 1
 -23 1496 l 1
 1049 1496 l 1
 1049 1341 l 1
 601 1341 l 1
 601 0 l 1
 424 0 l 1
 424 1341 l 1
 -23 1341 l 1
513 1489 m 1
 513 1489 l 1
513 0 m 1
 513 0 l 1
513 745 m 1
 513 745 l 1
EndSplineSet
EndChar

StartChar: afii10066
Encoding: 1073 1073 181
Width: 1015
VWidth: 0
Flags: W
LayerCount: 2
Fore
SplineSet
115 1098 m 1
 844 1098 l 1
 844 956 l 1
 283 956 l 1
 283 715 l 1
 565 715 l 2
 834 715 955 548 955 368 c 0
 955 188 834 0 565 0 c 2
 115 0 l 1
 115 1098 l 1
583 579 m 2
 283 579 l 1
 283 134 l 1
 583 134 l 2
 716 134 793 272 793 371 c 0
 793 470 716 579 583 579 c 2
EndSplineSet
EndChar

StartChar: afii10067
Encoding: 1074 1074 182
Width: 1033
VWidth: 0
Flags: W
LayerCount: 2
Fore
SplineSet
283 637 m 1
 576 637 l 2
 709 637 774 719 774 796 c 0
 774 887 709 956 576 956 c 2
 283 956 l 1
 283 637 l 1
576 500 m 2
 283 500 l 1
 283 134 l 1
 576 134 l 2
 724 134 807 212 807 326 c 1
 802 410 724 500 576 500 c 2
968 316 m 1
 968 150 843 0 567 0 c 2
 115 0 l 1
 115 1098 l 1
 567 1098 l 2
 826 1098 934 956 934 808 c 0
 934 719 891 625 788 575 c 1
 908 524 963 412 968 316 c 1
EndSplineSet
EndChar

StartChar: afii10072
Encoding: 1078 1078 184
Width: 1506
VWidth: 0
Flags: W
LayerCount: 2
Fore
SplineSet
671 593 m 1
 671 1098 l 1
 836 1098 l 1
 836 593 l 1
 836 593 1282 1099 1281 1098 c 1
 1480 1098 l 1
 988 562 l 1
 1490 0 l 1
 1287 0 l 1
 836 509 l 1
 836 0 l 1
 671 0 l 1
 671 509 l 1
 220 0 l 1
 17 0 l 1
 519 562 l 1
 27 1098 l 1
 226 1098 l 1
 225 1099 671 593 671 593 c 1
EndSplineSet
EndChar

StartChar: afii10073
Encoding: 1079 1079 185
Width: 956
VWidth: 0
Flags: W
LayerCount: 2
Fore
SplineSet
424 -25 m 0
 297 -25 147 6 70 86 c 1
 91 133 109 154 128 201 c 1
 196 144 316 114 436 114 c 0
 616 114 706 204 706 317 c 0
 706 408 633 502 478 502 c 2
 284 502 l 1
 284 633 l 1
 478 633 l 2
 616 633 672 727 672 806 c 0
 672 908 599 986 423 986 c 0
 307 986 176 937 128 890 c 1
 128 890 85 978 70 1013 c 1
 151 1096 300 1124 427 1124 c 0
 726 1124 835 972 835 819 c 0
 835 726 806 629 668 574 c 1
 819 532 865 419 870 311 c 1
 870 130 743 -25 424 -25 c 0
EndSplineSet
EndChar

StartChar: afii10076
Encoding: 1082 1082 186
Width: 997
VWidth: 0
Flags: W
LayerCount: 2
Fore
SplineSet
283 605 m 1
 485 834 l 2
 658 1030 705 1110 860 1110 c 0
 887 1110 901 1105 937 1098 c 1
 937 947 l 1
 910 951 886 956 865 956 c 0
 770 956 688 805 524 642 c 2
 423 542 l 1
 990 0 l 1
 763 0 l 1
 283 474 l 1
 283 0 l 1
 115 0 l 1
 115 1098 l 1
 283 1098 l 1
 283 605 l 1
EndSplineSet
EndChar

StartChar: afii10088
Encoding: 1094 1094 187
Width: 1106
VWidth: 0
Flags: W
LayerCount: 2
Fore
SplineSet
913 0 m 1
 128 0 l 1
 128 1098 l 1
 296 1098 l 1
 296 134 l 1
 789 134 l 1
 789 1098 l 1
 957 1098 l 1
 957 136 l 1
 1056 136 l 1
 1056 -269 l 1
 923 -269 l 1
 913 0 l 1
EndSplineSet
EndChar

StartChar: afii10091
Encoding: 1097 1097 188
Width: 1372
VWidth: 0
Flags: W
LayerCount: 2
Fore
SplineSet
1170 -238 m 1
 1170 0 l 1
 115 0 l 1
 115 1098 l 1
 283 1098 l 1
 283 134 l 1
 577 134 l 1
 577 1098 l 1
 745 1098 l 1
 745 134 l 1
 1039 134 l 1
 1039 1098 l 1
 1207 1098 l 1
 1207 134 l 1
 1307 134 l 1
 1307 -238 l 1
 1170 -238 l 1
EndSplineSet
EndChar

StartChar: afii10093
Encoding: 1099 1099 189
Width: 1322
VWidth: 0
Flags: W
LayerCount: 2
Fore
SplineSet
1207 1098 m 1
 1207 0 l 1
 1039 0 l 1
 1039 1098 l 1
 1207 1098 l 1
EndSplineSet
Refer: 190 1100 N 1 0 0 1 0 0 2
EndChar

StartChar: afii10094
Encoding: 1100 1100 190
Width: 952
VWidth: 0
Flags: W
LayerCount: 2
Fore
SplineSet
532 562 m 2
 283 562 l 1
 283 134 l 1
 539 134 l 2
 671 134 725 262 725 361 c 0
 725 460 664 562 532 562 c 2
283 1098 m 1
 283 698 l 1
 508 698 l 2
 776 698 887 538 887 358 c 0
 887 178 783 0 515 0 c 2
 115 0 l 1
 115 1098 l 1
 283 1098 l 1
EndSplineSet
EndChar

StartChar: afii10095
Encoding: 1101 1101 191
Width: 1002
VWidth: 0
Flags: W
LayerCount: 2
Fore
SplineSet
380 -25 m 0
 241 -25 123 11 55 70 c 1
 101 195 l 1
 193 139 282 113 370 113 c 0
 578 113 715 257 738 477 c 1
 275 477 l 1
 275 619 l 1
 738 619 l 1
 716 840 596 986 369 986 c 0
 261 986 167 945 100 902 c 1
 54 1024 l 1
 132 1091 259 1124 377 1124 c 0
 742 1124 915 853 915 545 c 0
 915 249 736 -25 380 -25 c 0
EndSplineSet
EndChar

StartChar: afii10097
Encoding: 1103 1103 192
Width: 1045
VWidth: 0
Flags: W
LayerCount: 2
Fore
SplineSet
444 579 m 2
 762 579 l 1
 762 956 l 1
 444 956 l 2
 311 956 238 853 238 762 c 0
 238 678 311 579 444 579 c 2
762 0 m 1
 762 439 l 1
 475 439 l 1
 274 0 l 1
 74 0 l 1
 302 459 l 1
 147 507 74 634 74 762 c 0
 74 933 186 1098 455 1098 c 2
 930 1098 l 1
 930 0 l 1
 762 0 l 1
EndSplineSet
EndChar

StartChar: afii10099
Encoding: 1106 1106 193
Width: 1113
VWidth: 0
Flags: W
LayerCount: 2
Fore
SplineSet
283 495 m 1
 283 0 l 1
 115 0 l 1
 115 1098 l 1
 21 1098 l 1
 21 1214 l 1
 115 1214 l 1
 115 1510 l 1
 283 1510 l 1
 283 1214 l 1
 698 1214 l 1
 698 1098 l 1
 283 1098 l 1
 283 713 l 1
 370.7 824 485.997 892 636 892 c 0
 892.59 892 1008 733 1008 445 c 2
 1007.95 158 l 2
 1007.85 -148.001 984.95 -283 687.95 -283 c 2
 616.95 -283 l 1
 604.95 -141 l 1
 647.95 -141 l 2
 819.95 -141 839.898 -109.999 839.95 104 c 2
 840 368 l 2
 840 616 807 739 620 739 c 0
 449 739 310 599 283 495 c 1
EndSplineSet
EndChar

StartChar: afii10101
Encoding: 1108 1108 194
Width: 1002
VWidth: 0
Flags: W
LayerCount: 2
Fore
SplineSet
589 -25 m 0
 233 -25 54 249 54 545 c 0
 54 853 227 1124 592 1124 c 0
 710 1124 837 1091 915 1024 c 1
 869 902 l 1
 802 945 708 986 600 986 c 0
 373 986 253 840 231 619 c 1
 694 619 l 1
 694 477 l 1
 231 477 l 1
 254 257 391 113 599 113 c 0
 687 113 776 139 868 195 c 1
 914 70 l 1
 846 11 728 -25 589 -25 c 0
EndSplineSet
EndChar

StartChar: afii10106
Encoding: 1113 1113 197
Width: 952
VWidth: 0
Flags: W
LayerCount: 2
Fore
SplineSet
315.829 409 m 2
 315.8 1098 l 1
 1122.8 1098 l 1
 1122.8 698 l 1
 1333.8 698 l 2
 1601.8 698 1712.8 538 1712.8 358 c 0
 1712.8 178 1608.8 0 1340.8 0 c 2
 954.8 0 l 1
 954.8 956 l 1
 483.8 956 l 1
 483.829 419 l 2
 483.829 91 479.829 -25 174.829 -25 c 2
 137.829 -25 l 1
 127.829 128 l 1
 174.829 128 l 2
 313.829 128 315.829 185 315.829 409 c 2
1122.8 562 m 1
 1122.8 134 l 1
 1364.8 134 l 2
 1496.8 134 1550.8 262 1550.8 361 c 0
 1550.8 460 1489.8 562 1357.8 562 c 2
 1122.8 562 l 1
EndSplineSet
EndChar

StartChar: afii10107
Encoding: 1114 1114 198
Width: 1621
VWidth: 0
Flags: W
LayerCount: 2
Fore
SplineSet
115 1098 m 1
 283 1098 l 1
 283 653 l 1
 765 653 l 1
 765 1098 l 1
 933 1098 l 1
 933 698 l 1
 1140 698 l 2
 1408 698 1519 538 1519 358 c 0
 1519 178 1415 0 1147 0 c 2
 765 0 l 1
 765 518 l 1
 283 518 l 1
 283 0 l 1
 115 0 l 1
 115 1098 l 1
933 562 m 1
 933 134 l 1
 1171 134 l 2
 1303 134 1357 262 1357 361 c 0
 1357 460 1296 562 1164 562 c 2
 933 562 l 1
EndSplineSet
EndChar

StartChar: afii10108
Encoding: 1115 1115 199
Width: 1113
VWidth: 0
Flags: W
LayerCount: 2
Fore
SplineSet
283 495 m 1
 283 0 l 1
 115 0 l 1
 115 1099 l 1
 21 1099 l 1
 21 1215 l 1
 115 1215 l 1
 115 1510 l 1
 283 1510 l 1
 283 1215 l 1
 698 1215 l 1
 698 1099 l 1
 283 1099 l 1
 283 713 l 1
 370.7 824 485.997 892 636 892 c 0
 892.59 892 1008 733 1008 445 c 2
 1008 0 l 1
 840 0 l 1
 840 368 l 2
 840 616 807 739 620 739 c 0
 449 739 310 599 283 495 c 1
EndSplineSet
EndChar

StartChar: afii10145
Encoding: 1039 1039 202
Width: 1463
VWidth: 0
Flags: W
LayerCount: 2
Fore
SplineSet
1139 154 m 1
 1139 1496 l 1
 1316 1496 l 1
 1316 0 l 1
 147 0 l 1
 147 1496 l 1
 324 1496 l 1
 324 154 l 1
 1139 154 l 1
EndSplineSet
EndChar

StartChar: afii10193
Encoding: 1119 1119 203
Width: 1106
VWidth: 0
Flags: W
LayerCount: 2
Fore
SplineSet
488 0 m 1
 115 0 l 1
 115 1098 l 1
 283 1098 l 1
 283 134 l 1
 789 134 l 1
 789 1098 l 1
 957 1098 l 1
 957 0 l 1
 636 0 l 1
 629 -278 l 1
 493 -278 l 1
 488 0 l 1
EndSplineSet
EndChar

StartChar: afii57929
Encoding: 700 700 204
Width: 504
VWidth: 0
Flags: W
LayerCount: 2
Fore
SplineSet
133 1102 m 1
 226 1574 l 1
 383 1574 l 1
 249 1102 l 1
 133 1102 l 1
EndSplineSet
EndChar

StartChar: alpha
Encoding: 945 945 207
Width: 468
VWidth: 0
Flags: W
LayerCount: 2
Fore
SplineSet
237 796 m 0
 326 796 370 730 370 664 c 0
 370 598 326 532 237 532 c 0
 149 532 104 598 104 664 c 0
 104 730 149 796 237 796 c 0
234 1098 m 1
 234 1098 l 1
234 1098 m 1
 234 1098 l 1
234 1098 m 0
EndSplineSet
EndChar

StartChar: alphatonos
Encoding: 940 940 208
Width: 468
VWidth: 0
Flags: W
LayerCount: 2
Fore
SplineSet
237 796 m 0
 326 796 370 730 370 664 c 0
 370 598 326 532 237 532 c 0
 149 532 104 598 104 664 c 0
 104 730 149 796 237 796 c 0
EndSplineSet
EndChar

StartChar: ampersand
Encoding: 38 38 210
Width: 1477
VWidth: 0
Flags: W
LayerCount: 2
Fore
SplineSet
660 1345 m 0
 538 1345 455 1280 455 1165 c 0
 455 1066 517 995 605 910 c 1
 741 977 858 1043 858 1171 c 0
 858 1287 765 1345 660 1345 c 0
544 726 m 1
 392 649 281 554 281 406 c 0
 281 235 410 132 629 132 c 0
 772 132 888 182 985 259 c 1
 836 418 693 567 544 726 c 1
441 839 m 1
 338 952 268 1034 268 1165 c 0
 268 1365 421 1489 657 1489 c 0
 861 1489 1046 1389 1046 1182 c 0
 1046 1006 896 892 707 804 c 1
 1108 375 l 1
 1165 435 1214 518 1250 599 c 1
 1371 507 l 1
 1331 419 1276 332 1212 257 c 1
 1393 41 l 1
 1342 22 1287 4 1236 -11 c 1
 1100 143 l 1
 976 43 820 -23 620 -23 c 0
 277 -23 104 138 104 395 c 0
 104 612 241 738 441 839 c 1
EndSplineSet
EndChar

StartChar: approxequal
Encoding: 8776 8776 212
Width: 1314
VWidth: 0
Flags: W
LayerCount: 2
Fore
SplineSet
1077 988 m 1
 1176 959 l 1
 1144 793 1061 684 892 684 c 0
 805 684 724 718 613 787 c 0
 545 830 484 860 424 860 c 0
 323 860 268 792 239 684 c 1
 136 712 l 1
 168 882 269 988 427 988 c 0
 515 988 594 950 689 893 c 0
 781 837 839 810 896 810 c 0
 984 810 1038 873 1077 988 c 1
1080 589 m 1
 1178 558 l 1
 1146 393 1067 282 895 282 c 0
 811 282 728 317 615 385 c 1
 547 428 487 459 427 459 c 0
 326 459 271 388 239 280 c 1
 138 312 l 1
 171 484 269 589 428 589 c 0
 613 589 776 411 898 411 c 0
 986 411 1040 476 1080 589 c 1
EndSplineSet
EndChar

StartChar: asciicircum
Encoding: 94 94 214
Width: 1204
VWidth: 0
Flags: W
LayerCount: 2
Fore
SplineSet
227 627 m 1
 90 627 l 1
 546 1559 l 1
 651 1559 l 1
 1113 627 l 1
 979 627 l 1
 595 1375 l 1
 227 627 l 1
EndSplineSet
EndChar

StartChar: asciitilde
Encoding: 126 126 215
Width: 1340
VWidth: 0
Flags: W
LayerCount: 2
Fore
SplineSet
435 760 m 0
 591 760 819 587 918 587 c 0
 1010 587 1075 681 1097 778 c 1
 1209 737 l 1
 1177 565 1080 442 915 442 c 0
 790 442 567 614 436 614 c 0
 328 614 261 516 240 415 c 1
 137 474 l 1
 164 622 261 760 435 760 c 0
EndSplineSet
EndChar

StartChar: asterisk
Encoding: 42 42 216
Width: 1081
VWidth: 0
Flags: W
PickledData: "(dp1
S'anchors'
p2
(tsS'unicodes'
p3
(tsS'width'
p4
I1081
sS'contours'
p5
(tsS'components'
p6
(tsS'name'
p7
S'asterisk'
p8
s."
LayerCount: 2
Fore
SplineSet
451 1489 m 1
 483 1062 l 1
 159 1243 l 1
 89 1083 l 1
 438 958 l 1
 174 617 l 1
 310 523 l 1
 537 886 l 1
 772 523 l 1
 907 617 l 1
 641 958 l 1
 994 1083 l 1
 921 1243 l 1
 600 1062 l 1
 629 1489 l 1
 451 1489 l 1
EndSplineSet
EndChar

StartChar: at
Encoding: 64 64 217
Width: 1788
VWidth: 0
Flags: W
LayerCount: 2
Fore
SplineSet
814 442 m 0
 992 442 1039 742 1087 998 c 1
 1060 1012 991 1019 952 1019 c 0
 744 1019 675 810 675 621 c 0
 675 513 725 442 814 442 c 0
1212 297 m 0
 1113 297 1044 344 1028 455 c 1
 960 356 879 316 790 316 c 0
 646 316 542 434 542 631 c 0
 542 891 664 1137 949 1137 c 0
 1053 1137 1167 1104 1249 1075 c 1
 1201 843 1144 603 1144 524 c 0
 1144 449 1177 418 1233 418 c 0
 1363 418 1560 605 1560 841 c 0
 1560 1193 1284 1405 911 1405 c 0
 536 1405 230 1105 230 720 c 0
 230 299 525 46 888 46 c 0
 1071 46 1232 92 1344 185 c 1
 1414 97 l 1
 1289 -18 1099 -75 886 -75 c 0
 443 -75 101 235 101 720 c 0
 101 1168 461 1525 916 1525 c 0
 1345 1525 1687 1258 1687 839 c 0
 1687 492 1418 297 1212 297 c 0
EndSplineSet
EndChar

StartChar: b
Encoding: 98 98 219
Width: 1171
VWidth: 0
Flags: W
PickledData: "(dp1
S'com.typemytype.robofont.layerData'
p2
(dp3
S'back'
p4
(dp5
S'name'
p6
S'b'
sS'lib'
p7
(dp8
sS'unicodes'
p9
(tsS'width'
p10
I1171
sS'contours'
p11
(tsS'components'
p12
(tsS'anchors'
p13
(tsss."
LayerCount: 2
Fore
SplineSet
628 -25 m 0
 940 -25 1094 244 1094 562 c 0
 1094 854 937 1124 632 1124 c 0
 513 1124 372 1071 287 930 c 1
 287 1510 l 1
 119 1490 l 1
 119 0 l 1
 285 0 l 1
 285 163 l 1
 352 45 481 -25 628 -25 c 0
616 113 m 0
 384 113 285 314 285 551 c 0
 285 810 429 983 621 986 c 1
 854 986 921 748 921 551 c 0
 921 351 852 113 616 113 c 0
EndSplineSet
EndChar

StartChar: backslash
Encoding: 92 92 220
Width: 935
VWidth: 0
Flags: W
LayerCount: 2
Fore
SplineSet
881 -120 m 1
 735 -120 l 1
 82 1466 l 1
 230 1466 l 1
 881 -120 l 1
EndSplineSet
EndChar

StartChar: bar
Encoding: 124 124 221
Width: 470
VWidth: 0
Flags: W
LayerCount: 2
Fore
SplineSet
310 1603 m 1
 310 -303 l 1
 160 -303 l 1
 160 1603 l 1
 310 1603 l 1
EndSplineSet
EndChar

StartChar: beta
Encoding: 946 946 222
Width: 468
VWidth: 0
Flags: W
LayerCount: 2
Fore
SplineSet
237 796 m 0
 326 796 370 730 370 664 c 0
 370 598 326 532 237 532 c 0
 149 532 104 598 104 664 c 0
 104 730 149 796 237 796 c 0
EndSplineSet
EndChar

StartChar: braceleft
Encoding: 123 123 223
Width: 690
VWidth: 0
Flags: W
LayerCount: 2
Fore
SplineSet
286 689 m 1
 406 630 433 486 433 390 c 2
 433 156 l 2
 433 -45 435 -101 578 -101 c 1
 578 -238 l 1
 362 -238 272 -155 272 53 c 2
 272 335 l 2
 272 465 267 614 149 614 c 2
 89 614 l 1
 89 764 l 1
 149 764 l 2
 267 764 272 913 272 1043 c 2
 272 1326 l 2
 272 1534 362 1616 578 1616 c 1
 578 1479 l 1
 435 1479 433 1424 433 1223 c 2
 433 988 l 2
 433 892 406 748 286 689 c 1
EndSplineSet
EndChar

StartChar: braceright
Encoding: 125 125 224
Width: 700
VWidth: 0
Flags: W
LayerCount: 2
Fore
SplineSet
411 689 m 1
 291 748 266 892 266 988 c 2
 266 1223 l 2
 266 1424 261 1479 118 1479 c 1
 118 1616 l 1
 334 1616 427 1534 427 1326 c 2
 427 1043 l 2
 427 913 434 764 551 764 c 2
 610 764 l 1
 610 614 l 1
 551 614 l 2
 434 614 427 465 427 335 c 2
 427 53 l 2
 427 -155 334 -238 118 -238 c 1
 118 -101 l 1
 261 -101 266 -45 266 156 c 2
 266 390 l 2
 266 486 291 630 411 689 c 1
EndSplineSet
EndChar

StartChar: bracketleft
Encoding: 91 91 225
Width: 678
VWidth: 0
Flags: W
LayerCount: 2
Fore
SplineSet
570 -139 m 1
 570 -261 l 1
 121 -261 l 1
 121 1505 l 1
 570 1505 l 1
 570 1381 l 1
 299 1381 l 1
 299 -139 l 1
 570 -139 l 1
EndSplineSet
EndChar

StartChar: bracketright
Encoding: 93 93 226
Width: 678
VWidth: 0
Flags: W
LayerCount: 2
Fore
SplineSet
109 -139 m 1
 380 -139 l 1
 380 1381 l 1
 109 1381 l 1
 109 1505 l 1
 558 1505 l 1
 558 -261 l 1
 109 -261 l 1
 109 -139 l 1
EndSplineSet
EndChar

StartChar: breve
Encoding: 728 728 227
Width: 754
VWidth: 0
Flags: W
LayerCount: 2
Fore
SplineSet
377 1299 m 0
 254 1299 128 1385 128 1557 c 1
 244 1557 l 1
 244 1461 304 1416 377 1416 c 0
 450 1416 513 1461 513 1557 c 1
 630 1557 l 1
 630 1385 501 1299 377 1299 c 0
379 1098 m 1
 379 1098 l 1
379 1098 m 1
 379 1098 l 1
379 1098 m 1
 379 1098 l 1
379 1098 m 0
EndSplineSet
EndChar

StartChar: brokenbar
Encoding: 166 166 228
Width: 449
VWidth: 0
Flags: W
LayerCount: 2
Fore
SplineSet
301 -301 m 1
 151 -301 l 1
 151 339 l 1
 301 339 l 1
 301 -301 l 1
301 964 m 1
 151 964 l 1
 151 1603 l 1
 301 1603 l 1
 301 964 l 1
EndSplineSet
EndChar

StartChar: bullet
Encoding: 8226 8226 229
Width: 868
VWidth: 0
Flags: W
PickledData: "(dp1
S'com.typemytype.robofont.layerData'
p2
(dp3
S'back'
p4
(dp5
S'name'
p6
S'bullet'
p7
sS'lib'
p8
(dp9
sS'unicodes'
p10
(tsS'width'
p11
I868
sS'contours'
p12
(tsS'components'
p13
(tsS'anchors'
p14
(tsss."
LayerCount: 2
Fore
SplineSet
731 746 m 0
 731 562 597 441 436 441 c 0
 270 441 137 567 137 747 c 0
 137 931 278 1061 436 1061 c 0
 597 1061 731 927 731 746 c 0
EndSplineSet
EndChar

StartChar: c
Encoding: 99 99 230
Width: 953
VWidth: 0
Flags: W
PickledData: "(dp1
S'com.typemytype.robofont.layerData'
p2
(dp3
S'back'
p4
(dp5
S'name'
p6
S'c'
sS'lib'
p7
(dp8
sS'unicodes'
p9
(tsS'width'
p10
I953
sS'contours'
p11
(tsS'components'
p12
(tsS'anchors'
p13
(tsss."
LayerCount: 2
Fore
SplineSet
904 75 m 1
 862 195 l 1
 801 152 714 113 615 113 c 0
 395 113 248 294 248 545 c 0
 248 799 401 986 602 986 c 0
 685 986 777 966 861 910 c 1
 903 1029 l 1
 841 1088 732 1124 604 1124 c 0
 277 1124 79 852 77 549 c 1
 77 243 266 -25 607 -25 c 0
 716 -25 832 8 904 75 c 1
474 1098 m 0
474 0 m 0
EndSplineSet
EndChar

StartChar: caron
Encoding: 711 711 232
Width: 800
VWidth: 0
Flags: W
LayerCount: 2
Fore
SplineSet
108 1639 m 1
 239 1639 l 1
 400 1327 l 1
 561 1639 l 1
 695 1639 l 1
 508 1251 l 1
 295 1251 l 1
 108 1639 l 1
401.5 1098 m 1
 401.5 1098 l 1
401.5 1098 m 1
 401.5 1098 l 1
401.5 1098 m 1
 401.5 1098 l 1
401.5 1098 m 0
EndSplineSet
EndChar

StartChar: cedilla
Encoding: 184 184 237
Width: 596
VWidth: 0
Flags: W
LayerCount: 2
Fore
SplineSet
114 -403 m 1
 122 -312 l 1
 173 -327 220 -337 256 -337 c 0
 331 -337 356 -307 356 -260 c 0
 356 -203 316 -180 259 -180 c 0
 256 -180 242 -181 227 -182 c 2
 198 -184 l 1
 226 16 l 1
 312 16 l 1
 298 -97 l 1
 305 -97 l 2
 398 -97 482 -147 482 -257 c 0
 482 -372 388 -425 268 -425 c 0
 223 -425 167 -415 114 -403 c 1
298 0 m 1
 298 0 l 1
298 0 m 1
 298 0 l 1
298 0 m 1
 298 0 l 1
298 0 m 0
EndSplineSet
EndChar

StartChar: cent
Encoding: 162 162 238
Width: 1080
VWidth: 0
Flags: W
PickledData: "(dp1
S'com.typemytype.robofont.layerData'
p2
(dp3
S'back'
p4
(dp5
S'name'
p6
S'cent'
p7
sS'lib'
p8
(dp9
sS'unicodes'
p10
(tsS'width'
p11
I1080
sS'contours'
p12
((dp13
S'points'
p14
((dp15
S'segmentType'
p16
S'line'
p17
sS'x'
I889
sS'smooth'
p18
I00
sS'y'
I364
s(dp19
S'y'
I321
sS'x'
I796
sg18
I00
s(dp20
S'y'
I300
sS'x'
I709
sg18
I00
s(dp21
g16
S'curve'
p22
sS'x'
I633
sg18
I01
sS'y'
I300
s(dp23
S'y'
I300
sS'x'
I414
sg18
I00
s(dp24
S'y'
I467
sS'x'
I274
sg18
I00
s(dp25
g16
S'curve'
p26
sS'x'
I274
sg18
I01
sS'y'
I737
s(dp27
S'y'
I991
sS'x'
I274
sg18
I00
s(dp28
S'y'
I1178
sS'x'
I427
sg18
I00
s(dp29
g16
S'curve'
p30
sS'x'
I628
sg18
I01
sS'y'
I1178
s(dp31
S'y'
I1178
sS'x'
I711
sg18
I00
s(dp32
S'y'
I1161
sS'x'
I803
sg18
I00
s(dp33
g16
S'curve'
p34
sS'x'
I887
sg18
I00
sS'y'
I1105
s(dp35
g16
S'line'
p36
sS'x'
I929
sg18
I00
sS'y'
I1224
s(dp37
S'y'
I1281
sS'x'
I859
sg18
I00
s(dp38
S'y'
I1316
sS'x'
I758
sg18
I00
s(dp39
g16
S'curve'
p40
sS'x'
I630
sg18
I01
sS'y'
I1316
s(dp41
S'y'
I1316
sS'x'
I303
sg18
I00
s(dp42
S'y'
I1044
sS'x'
I105
sg18
I00
s(dp43
g16
S'curve'
p44
sS'x'
I103
sg18
I00
sS'y'
I741
s(dp45
S'y'
I435
sS'x'
I103
sg18
I00
s(dp46
S'y'
I166
sS'x'
I310
sg18
I00
s(dp47
g16
S'curve'
p48
sS'x'
I613
sg18
I01
sS'y'
I166
s(dp49
S'y'
I166
sS'x'
I710
sg18
I00
s(dp50
S'y'
I194
sS'x'
I817
sg18
I00
s(dp51
g16
S'curve'
p52
sS'x'
I930
sg18
I00
sS'y'
I257
stp53
stp54
sS'components'
p55
(tsS'anchors'
p56
(tsss."
LayerCount: 2
Fore
SplineSet
889 371 m 1
 798 329 712 308 637 307 c 1
 637 1185 l 1
 712 1183 796 1160 887 1112 c 1
 929 1231 l 1
 829 1292 730 1320 637 1323 c 1
 637 1503 l 1
 548 1503 l 1
 548 1317 l 1
 279 1277 105 1037 103 748 c 1
 103 464 269 211 548 177 c 1
 548 7 l 1
 637 7 l 1
 637 174 l 1
 728 178 826 206 930 264 c 1
 889 371 l 1
548 316 m 1
 364 350 273 548 273 746 c 0
 273 945 365 1145 548 1178 c 1
 548 316 l 1
EndSplineSet
EndChar

StartChar: circumflex
Encoding: 710 710 240
Width: 800
VWidth: 0
Flags: W
LayerCount: 2
Fore
SplineSet
108 1251 m 1
 295 1639 l 1
 508 1639 l 1
 695 1251 l 1
 561 1251 l 1
 400 1523 l 1
 239 1251 l 1
 108 1251 l 1
401.5 1098 m 1
 401.5 1098 l 1
401.5 1098 m 1
 401.5 1098 l 1
401.5 1098 m 1
 401.5 1098 l 1
401.5 1098 m 0
EndSplineSet
EndChar

StartChar: colon
Encoding: 58 58 241
Width: 494
VWidth: 0
Flags: W
LayerCount: 2
Fore
SplineSet
146 -25 m 1
 146 208 l 1
 352 208 l 1
 352 -25 l 1
 146 -25 l 1
146 893 m 1
 146 1124 l 1
 352 1124 l 1
 352 893 l 1
 146 893 l 1
EndSplineSet
EndChar

StartChar: comma
Encoding: 44 44 242
Width: 508
VWidth: 0
Flags: W
LayerCount: 2
Fore
SplineSet
367 230 m 1
 241 -292 l 1
 135 -292 l 1
 155 230 l 1
 367 230 l 1
EndSplineSet
EndChar

StartChar: commaaccentcomb
Encoding: 806 806 243
Width: 554
VWidth: 0
Flags: W
LayerCount: 2
Fore
SplineSet
274 0 m 1
 274 0 l 1
144 -648 m 1
 239 -150 l 1
 404 -150 l 1
 260 -648 l 1
 144 -648 l 1
EndSplineSet
EndChar

StartChar: copyright
Encoding: 169 169 244
Width: 1841
VWidth: 0
Flags: W
LayerCount: 2
Fore
SplineSet
1191 459 m 1
 1230 352 l 1
 1160 307 1033 270 909 270 c 0
 633 270 434 489 434 785 c 0
 434 1081 626 1301 919 1301 c 0
 1039 1301 1145 1268 1227 1211 c 1
 1167 1114 l 1
 1105 1158 1003 1182 910 1182 c 0
 676 1182 570 997 570 789 c 0
 570 564 682 387 929 387 c 0
 1021 387 1135 420 1191 459 c 1
902 67 m 0
 1353 67 1588 387 1588 778 c 0
 1588 1168 1350 1493 897 1493 c 0
 468 1493 230 1169 230 783 c 0
 230 389 469 67 902 67 c 0
1701 781 m 0
 1701 242 1317 -26 902 -26 c 0
 510 -26 117 242 117 781 c 0
 117 1318 505 1586 897 1586 c 0
 1312 1586 1701 1316 1701 781 c 0
EndSplineSet
EndChar

StartChar: currency
Encoding: 164 164 245
Width: 1298
VWidth: 0
Flags: W
PickledData: "(dp1
S'com.typemytype.robofont.layerData'
p2
(dp3
S'back'
p4
(dp5
S'name'
p6
S'currency'
p7
sS'lib'
p8
(dp9
sS'unicodes'
p10
(tsS'width'
p11
I1298
sS'contours'
p12
(tsS'components'
p13
(tsS'anchors'
p14
(tsss."
LayerCount: 2
Fore
SplineSet
304.7 741 m 0
 304.7 550.56 459.26 396 649.7 396 c 0
 840.14 396 994.7 550.56 994.7 741 c 0
 994.7 931.44 840.14 1086 649.7 1086 c 0
 459.26 1086 304.7 931.44 304.7 741 c 0
357.879 1063.51 m 1
 435.071 1133.41 537.442 1176 649.7 1176 c 0
 763.439 1176 867.028 1132.27 944.563 1060.73 c 1
 1182 1280 l 1
 1227 1224 l 1
 993.311 1007.68 l 1
 1050.583 934.016 1084.7 841.468 1084.7 741 c 0
 1084.7 640.796 1050.763 548.471 993.762 474.898 c 1
 1227 259 l 1
 1182 203 l 1
 945.104 421.772 l 1
 867.51 349.929 763.704 306 649.7 306 c 0
 537.177 306 434.588 348.795 357.333 418.987 c 1
 124 203 l 1
 71 254 l 1
 307.548 472.45 l 1
 249.397 546.418 214.7 639.682 214.7 741 c 0
 214.7 842.583 249.578 936.069 308.004 1010.13 c 1
 71 1229 l 1
 124 1280 l 1
 357.879 1063.51 l 1
EndSplineSet
EndChar

StartChar: d
Encoding: 100 100 246
Width: 1173
VWidth: 0
Flags: W
PickledData: "(dp1
S'com.typemytype.robofont.layerData'
p2
(dp3
S'back'
p4
(dp5
S'name'
p6
S'd'
sS'lib'
p7
(dp8
sS'unicodes'
p9
(tsS'width'
p10
I1173
sS'contours'
p11
((dp12
S'points'
p13
((dp14
S'segmentType'
p15
S'line'
p16
sS'x'
F1054
sS'smooth'
p17
I00
sS'y'
F1495
s(dp18
g15
S'line'
p19
sS'x'
F1054
sg17
I01
sS'y'
F431
s(dp20
S'y'
F192
sS'x'
F1054
sg17
I00
s(dp21
S'y'
F117
sS'x'
F1061
sg17
I00
s(dp22
g15
S'curve'
p23
sS'x'
F1175
sg17
I01
sS'y'
F117
s(dp24
S'y'
F117
sS'x'
F1200
sg17
I00
s(dp25
S'y'
F119
sS'x'
F1213
sg17
I00
s(dp26
g15
S'curve'
p27
sS'x'
F1265
sg17
I00
sS'y'
F123
s(dp28
g15
S'line'
p29
sS'x'
F1276
sg17
I00
sS'y'
F-8
s(dp30
S'y'
F-18
sS'x'
F1219
sg17
I00
s(dp31
S'y'
F-21
sS'x'
F1179
sg17
I00
s(dp32
g15
S'curve'
p33
sS'x'
F1162
sg17
I01
sS'y'
F-21
s(dp34
S'y'
F-21
sS'x'
F892
sg17
I00
s(dp35
S'y'
F104
sS'x'
F886
sg17
I00
s(dp36
g15
S'curve'
p37
sS'x'
F886
sg17
I01
sS'y'
F468
s(dp38
g15
S'line'
p39
sS'x'
F886
sg17
I00
sS'y'
F1476
stp40
stp41
sS'components'
p42
(tsS'anchors'
p43
(tsss."
LayerCount: 2
Fore
SplineSet
557 124 m 0
 330 124 250 339 250 557 c 0
 250 756 331 977 555 977 c 0
 789 977 887 786 887 551 c 0
 887 315 782 124 557 124 c 0
546 -24 m 0
 698 -24 821 60 884 172 c 1
 905 0 l 1
 1054 0 l 1
 1054 1510 l 1
 886 1490 l 1
 886 937 l 1
 829 1053 685 1125 540 1125 c 0
 262 1125 77 873 77 562 c 0
 77 219 250 -24 546 -24 c 0
585 549 m 0
585 549 m 0
585 549 m 0
585 549 m 0
EndSplineSet
EndChar

StartChar: dagger
Encoding: 8224 8224 247
Width: 877
VWidth: 0
Flags: W
PickledData: "(dp1
S'com.typemytype.robofont.layerData'
p2
(dp3
S'back'
p4
(dp5
S'name'
p6
S'dagger'
p7
sS'lib'
p8
(dp9
sS'unicodes'
p10
(tsS'width'
p11
I877
sS'contours'
p12
(tsS'components'
p13
(tsS'anchors'
p14
(tsss."
LayerCount: 2
Fore
SplineSet
372 121 m 1
 372 990 l 1
 77 990 l 1
 77 1098 l 1
 372 1098 l 1
 372 1495 l 1
 502 1495 l 1
 502 1098 l 1
 800 1098 l 1
 800 990 l 1
 502 990 l 1
 502 121 l 1
 372 121 l 1
EndSplineSet
EndChar

StartChar: daggerdbl
Encoding: 8225 8225 248
Width: 950
VWidth: 0
Flags: W
PickledData: "(dp1
S'com.typemytype.robofont.layerData'
p2
(dp3
S'back'
p4
(dp5
S'name'
p6
S'daggerdbl'
p7
sS'lib'
p8
(dp9
sS'unicodes'
p10
(tsS'width'
p11
I950
sS'contours'
p12
(tsS'components'
p13
(tsS'anchors'
p14
(tsss."
LayerCount: 2
Fore
SplineSet
505 121 m 1
 505 518 l 1
 800 518 l 1
 800 626 l 1
 505 626 l 1
 505 990 l 1
 803 990 l 1
 803 1098 l 1
 505 1098 l 1
 505 1495 l 1
 375 1495 l 1
 375 1098 l 1
 80 1098 l 1
 80 990 l 1
 375 990 l 1
 375 626 l 1
 77 626 l 1
 77 518 l 1
 375 518 l 1
 375 121 l 1
 505 121 l 1
EndSplineSet
EndChar

StartChar: dcroat
Encoding: 273 273 250
Width: 1174
VWidth: 0
Flags: W
PickledData: "(dp1
S'com.typemytype.robofont.layerData'
p2
(dp3
S'back'
p4
(dp5
S'name'
p6
S'dcroat'
p7
sS'lib'
p8
(dp9
sS'unicodes'
p10
(tsS'width'
p11
I1174
sS'contours'
p12
(tsS'components'
p13
(tsS'anchors'
p14
(tsss."
LayerCount: 2
Fore
SplineSet
557 124 m 0
 330 124 250 339 250 557 c 0
 250 756 331 977 555 977 c 0
 789 977 887 786 887 551 c 0
 887 315 782 124 557 124 c 0
884 172 m 1
 905 0 l 1
 1054 0 l 1
 1054 1243 l 1
 1174 1243 l 1
 1174 1351 l 1
 1054 1351 l 1
 1054 1510 l 1
 886 1490 l 1
 886 1351 l 1
 636 1351 l 1
 636 1243 l 1
 886 1243 l 1
 886 937 l 1
 829 1053 685 1125 540 1125 c 0
 262 1125 77 873 77 562 c 0
 77 219 250 -24 546 -24 c 0
 698 -24 821 60 884 172 c 1
EndSplineSet
EndChar

StartChar: degree
Encoding: 176 176 251
Width: 816
VWidth: 0
Flags: W
LayerCount: 2
Fore
SplineSet
409 919 m 0
 257 919 128 1065 128 1239 c 0
 128 1412 257 1555 409 1555 c 0
 563 1555 690 1412 690 1239 c 0
 690 1065 561 919 409 919 c 0
409 1430 m 0
 318 1430 238 1347 238 1239 c 0
 238 1131 315 1046 409 1046 c 0
 503 1046 581 1131 581 1239 c 0
 581 1347 501 1430 409 1430 c 0
EndSplineSet
EndChar

StartChar: delta
Encoding: 948 948 252
Width: 468
VWidth: 0
Flags: W
LayerCount: 2
Fore
SplineSet
237 796 m 0
 326 796 370 730 370 664 c 0
 370 598 326 532 237 532 c 0
 149 532 104 598 104 664 c 0
 104 730 149 796 237 796 c 0
EndSplineSet
EndChar

StartChar: dieresis
Encoding: 168 168 253
Width: 770
VWidth: 0
Flags: W
LayerCount: 2
Fore
SplineSet
272 1254 m 1
 118 1254 l 1
 118 1466 l 1
 272 1466 l 1
 272 1254 l 1
663 1254 m 1
 508 1254 l 1
 508 1466 l 1
 663 1466 l 1
 663 1254 l 1
390.5 1098 m 1
 390.5 1098 l 1
390.5 1098 m 1
 390.5 1098 l 1
390.5 1098 m 1
 390.5 1098 l 1
390.5 1098 m 0
EndSplineSet
EndChar

StartChar: dieresistonos
Encoding: 901 901 254
Width: 468
VWidth: 0
Flags: W
LayerCount: 2
Fore
SplineSet
237 796 m 0
 326 796 370 730 370 664 c 0
 370 598 326 532 237 532 c 0
 149 532 104 598 104 664 c 0
 104 730 149 796 237 796 c 0
237 1098 m 1
 237 1098 l 1
237 1098 m 1
 237 1098 l 1
237 1098 m 0
EndSplineSet
EndChar

StartChar: divide
Encoding: 247 247 255
Width: 1211
VWidth: 0
Flags: W
LayerCount: 2
Fore
SplineSet
682 249 m 1
 682 22 l 1
 491 22 l 1
 491 249 l 1
 682 249 l 1
716 1166 m 1
 716 939 l 1
 491 939 l 1
 491 1166 l 1
 716 1166 l 1
1098 523 m 1
 97 523 l 1
 97 672 l 1
 1098 672 l 1
 1098 523 l 1
EndSplineSet
EndChar

StartChar: dollar
Encoding: 36 36 256
Width: 1227
VWidth: 0
Flags: W
PickledData: "(dp1
S'com.typemytype.robofont.layerData'
p2
(dp3
S'back'
p4
(dp5
S'name'
p6
S'dollar'
p7
sS'lib'
p8
(dp9
sS'unicodes'
p10
(tsS'width'
p11
I1227
sS'contours'
p12
(tsS'components'
p13
(tsS'anchors'
p14
(tsss."
LayerCount: 2
Fore
SplineSet
580 886 m 1
 498 906 l 2
 354 941 276 1004 276 1121 c 0
 276 1279 380 1358 580 1370 c 1
 580 886 l 1
675 131 m 1
 675 688 l 1
 727 675 l 2
 917 627 966 546 966 426 c 0
 966 236 866 142 678 131 c 1
 675 131 l 1
675 -195 m 1
 675 -22 l 1
 956 -8 1145 136 1145 432 c 0
 1145 676 1003 784 779 838 c 2
 675 863 l 1
 675 1371 l 1
 824 1364 966 1318 1039 1277 c 1
 1089 1418 l 1
 993 1478 844 1520 675 1525 c 1
 675 1693 l 1
 580 1693 l 1
 580 1523 l 1
 287 1508 96 1381 96 1109 c 0
 96 911 227 801 433 749 c 2
 580 712 l 1
 580 132 l 1
 414 141 266 185 146 244 c 1
 94 100 l 1
 179 48 346 -14 580 -22 c 1
 580 -195 l 1
 675 -195 l 1
EndSplineSet
EndChar

StartChar: dotaccent
Encoding: 729 729 257
Width: 411
VWidth: 0
Flags: W
LayerCount: 2
Fore
SplineSet
208 1539 m 0
 297 1539 341 1473 341 1407 c 0
 341 1341 297 1275 208 1275 c 0
 120 1275 75 1341 75 1407 c 0
 75 1473 120 1539 208 1539 c 0
208 1098 m 1
 208 1098 l 1
208 1098 m 1
 208 1098 l 1
208 1098 m 1
 208 1098 l 1
208 1098 m 0
EndSplineSet
EndChar

StartChar: dotaccentcmb
Encoding: 775 775 258
Width: 411
VWidth: 0
Flags: W
LayerCount: 2
Fore
SplineSet
209 1561 m 0
 298 1561 342 1495 342 1429 c 0
 342 1363 298 1297 209 1297 c 0
 121 1297 76 1363 76 1429 c 0
 76 1495 121 1561 209 1561 c 0
EndSplineSet
EndChar

StartChar: dotlessi
Encoding: 305 305 259
Width: 430
VWidth: 0
Flags: W
LayerCount: 2
Fore
SplineSet
304 1098 m 1
 304 0 l 1
 135 0 l 1
 135 1098 l 1
 304 1098 l 1
215 1098 m 1
 215 1098 l 1
387 10 m 1
 387 10 l 1
215 1098 m 1
 215 1098 l 1
387 10 m 1
 387 10 l 1
215 1098 m 1
 215 1098 l 1
387 10 m 1
 387 10 l 1
215 1098 m 0
387 10 m 0
EndSplineSet
EndChar

StartChar: dotlessj
Encoding: 567 567 260
Width: 444
VWidth: 0
Flags: W
LayerCount: 2
Fore
SplineSet
330 1098 m 1
 330 -139 l 2
 330 -407 270 -502 -3 -502 c 2
 -55 -502 l 1
 -77 -351 l 1
 -25 -351 l 2
 157 -351 162 -286 162 -121 c 2
 162 1098 l 1
 330 1098 l 1
222 1098 m 1
 222 1098 l 1
222 1098 m 1
 222 1098 l 1
222 1098 m 1
 222 1098 l 1
222 1098 m 0
EndSplineSet
EndChar

StartChar: e
Encoding: 101 101 261
Width: 1085
VWidth: 0
Flags: W
PickledData: "(dp1
S'com.typemytype.robofont.layerData'
p2
(dp3
S'back'
p4
(dp5
S'name'
p6
S'e'
sS'lib'
p7
(dp8
sS'unicodes'
p9
(tsS'width'
p10
I1085
sS'contours'
p11
(tsS'components'
p12
(tsS'anchors'
p13
(tsss."
LayerCount: 2
Fore
SplineSet
582 -25 m 0
 758 -25 897 30 987 107 c 1
 935 229 l 1
 857 176 743 119 587 119 c 0
 394 119 250 272 250 519 c 1
 1001 519 l 1
 1001 538 1003 578 1003 594 c 0
 1003 918 835 1124 562 1124 c 1
 276 1116 78 879 78 551 c 0
 78 198 269 -25 582 -25 c 0
256 635 m 1
 275 851 395 988 561 988 c 0
 724 988 841 869 841 635 c 1
 256 635 l 1
541 1098 m 0
541 0 m 0
976 10 m 0
EndSplineSet
EndChar

StartChar: eight
Encoding: 56 56 268
Width: 1182
VWidth: 0
Flags: W
PickledData: "(dp1
S'com.typemytype.robofont.layerData'
p2
(dp3
S'back'
p4
(dp5
S'name'
p6
S'eight'
p7
sS'lib'
p8
(dp9
sS'unicodes'
p10
(tsS'width'
p11
I1182
sS'contours'
p12
(tsS'components'
p13
(tsS'anchors'
p14
(tsss."
LayerCount: 2
Fore
SplineSet
594 1379 m 0
 446 1379 315 1296 315 1152 c 0
 315 993 411 894 594 853 c 1
 777 894 869 993 869 1152 c 0
 869 1296 742 1379 594 1379 c 0
594 703 m 1
 415 662 279 562 279 397 c 0
 279 230 415 129 594 129 c 0
 773 129 904 230 904 397 c 0
 904 562 773 662 594 703 c 1
594 -23 m 0
 327 -23 103 119 103 385 c 0
 103 577 219 724 414 788 c 1
 241 849 138 966 138 1148 c 0
 138 1389 329 1525 594 1525 c 0
 858 1525 1045 1389 1045 1148 c 0
 1045 966 948 849 791 788 c 1
 970 724 1080 577 1080 385 c 0
 1080 119 861 -23 594 -23 c 0
EndSplineSet
EndChar

StartChar: emdash
Encoding: 8212 8212 271
Width: 2427
VWidth: 0
Flags: W
LayerCount: 2
Fore
SplineSet
2296 675 m 1
 2296 527 l 1
 139 527 l 1
 139 675 l 1
 2296 675 l 1
EndSplineSet
EndChar

StartChar: endash
Encoding: 8211 8211 272
Width: 1317
VWidth: 0
Flags: W
LayerCount: 2
Fore
SplineSet
1186 675 m 1
 1186 527 l 1
 139 527 l 1
 139 675 l 1
 1186 675 l 1
EndSplineSet
EndChar

StartChar: eng
Encoding: 331 331 273
Width: 1118
VWidth: 0
Flags: W
LayerCount: 2
Fore
SplineSet
620 -283 m 1
 608 -141 l 1
 651 -141 l 2
 823 -141 843 -110 843 104 c 2
 843 551 l 2
 843 836 832 980 629 980 c 0
 445 980 313 849 286 750 c 1
 286 0 l 1
 118 0 l 1
 118 831 l 1
 115 1098 l 1
 259 1098 l 1
 275 935 l 1
 360 1052 513 1124 665 1124 c 0
 906 1124 1011 965 1011 657 c 2
 1011 158 l 2
 1011 -148 988 -283 691 -283 c 2
 620 -283 l 1
EndSplineSet
EndChar

StartChar: epsilon
Encoding: 949 949 275
Width: 468
VWidth: 0
Flags: W
LayerCount: 2
Fore
SplineSet
237 796 m 0
 326 796 370 730 370 664 c 0
 370 598 326 532 237 532 c 0
 149 532 104 598 104 664 c 0
 104 730 149 796 237 796 c 0
234 1098 m 1
 234 1098 l 1
234 1098 m 1
 234 1098 l 1
234 1098 m 0
EndSplineSet
EndChar

StartChar: epsilontonos
Encoding: 941 941 276
Width: 468
VWidth: 0
Flags: W
LayerCount: 2
Fore
SplineSet
237 796 m 0
 326 796 370 730 370 664 c 0
 370 598 326 532 237 532 c 0
 149 532 104 598 104 664 c 0
 104 730 149 796 237 796 c 0
EndSplineSet
EndChar

StartChar: equal
Encoding: 61 61 277
Width: 1286
VWidth: 0
Flags: W
LayerCount: 2
Fore
SplineSet
145 452 m 1
 1146 452 l 1
 1146 305 l 1
 145 305 l 1
 145 452 l 1
143 891 m 1
 1146 891 l 1
 1146 741 l 1
 143 741 l 1
 143 891 l 1
EndSplineSet
EndChar

StartChar: eta
Encoding: 951 951 278
Width: 468
VWidth: 0
Flags: W
LayerCount: 2
Fore
SplineSet
237 796 m 0
 326 796 370 730 370 664 c 0
 370 598 326 532 237 532 c 0
 149 532 104 598 104 664 c 0
 104 730 149 796 237 796 c 0
234 1098 m 1
 234 1098 l 1
234 1098 m 1
 234 1098 l 1
234 1098 m 0
EndSplineSet
EndChar

StartChar: etatonos
Encoding: 942 942 279
Width: 468
VWidth: 0
Flags: W
LayerCount: 2
Fore
SplineSet
237 796 m 0
 326 796 370 730 370 664 c 0
 370 598 326 532 237 532 c 0
 149 532 104 598 104 664 c 0
 104 730 149 796 237 796 c 0
EndSplineSet
EndChar

StartChar: eth
Encoding: 240 240 280
Width: 1184
VWidth: 0
Flags: W
PickledData: "(dp1
S'com.typemytype.robofont.layerData'
p2
(dp3
S'back'
p4
(dp5
S'name'
p6
S'eth'
p7
sS'lib'
p8
(dp9
sS'unicodes'
p10
(tsS'width'
p11
I1184
sS'contours'
p12
((dp13
S'points'
p14
((dp15
S'segmentType'
p16
S'curve'
p17
sS'x'
F593
sS'smooth'
p18
I01
sS'y'
F833
s(dp19
S'y'
F833
sS'x'
F381
sg18
I00
s(dp20
S'y'
F675
sS'x'
F259
sg18
I00
s(dp21
g16
S'curve'
p22
sS'x'
F259
sg18
I01
sS'y'
F485
s(dp23
S'y'
F294
sS'x'
F259
sg18
I00
s(dp24
S'y'
F114
sS'x'
F372
sg18
I00
s(dp25
g16
S'curve'
p26
sS'x'
F599
sg18
I01
sS'y'
F114
s(dp27
S'y'
F114
sS'x'
F815
sg18
I00
s(dp28
S'y'
F271
sS'x'
F935
sg18
I00
s(dp29
g16
S'curve'
p30
sS'x'
F935
sg18
I01
sS'y'
F472
s(dp31
S'y'
F653
sS'x'
F935
sg18
I00
s(dp32
S'y'
F833
sS'x'
F815
sg18
I00
stp33
s(dp34
g14
((dp35
g16
S'curve'
p36
sS'x'
F559
sg18
I01
sS'y'
F972
s(dp37
S'y'
F972
sS'x'
F690
sg18
I00
s(dp38
S'y'
F919
sS'x'
F777
sg18
I00
s(dp39
g16
S'curve'
p40
sS'x'
F834
sg18
I00
sS'y'
F877
s(dp41
S'y'
F964
sS'x'
F788
sg18
I00
s(dp42
S'y'
F1096
sS'x'
F690
sg18
I00
s(dp43
g16
S'curve'
p44
sS'x'
F531
sg18
I00
sS'y'
F1257
s(dp45
g16
S'line'
p46
sS'x'
F259
sg18
I00
sS'y'
F1145
s(dp47
g16
S'line'
p48
sS'x'
F216
sg18
I00
sS'y'
F1277
s(dp49
g16
S'line'
p50
sS'x'
F436
sg18
I00
sS'y'
F1364
s(dp51
g16
S'line'
p52
sS'x'
F283
sg18
I00
sS'y'
F1510
s(dp53
g16
S'line'
p54
sS'x'
F506
sg18
I00
sS'y'
F1510
s(dp55
g16
S'line'
p56
sS'x'
F591
sg18
I00
sS'y'
F1431
s(dp57
g16
S'line'
p58
sS'x'
F858
sg18
I00
sS'y'
F1542
s(dp59
g16
S'line'
p60
sS'x'
F904
sg18
I00
sS'y'
F1413
s(dp61
g16
S'line'
p62
sS'x'
F684
sg18
I00
sS'y'
F1322
s(dp63
S'y'
F1151
sS'x'
F830.5
sg18
I00
s(dp64
S'y'
F1013.75
sS'x'
F936.25
sg18
I00
s(dp65
g16
S'curve'
p66
sS'x'
F1005.375
sg18
I01
sS'y'
F884.125
s(dp67
S'y'
F754.5
sS'x'
F1074.5
sg18
I00
s(dp68
S'y'
F632.5
sS'x'
F1107
sg18
I00
s(dp69
g16
S'curve'
p70
sS'x'
F1107
sg18
I01
sS'y'
F492
s(dp71
S'y'
F199
sS'x'
F1107
sg18
I00
s(dp72
S'y'
F-25
sS'x'
F933
sg18
I00
s(dp73
g16
S'curve'
p74
sS'x'
F593
sg18
I01
sS'y'
F-25
s(dp75
S'y'
F-25
sS'x'
F261
sg18
I00
s(dp76
S'y'
F212
sS'x'
F77
sg18
I00
s(dp77
g16
S'curve'
p78
sS'x'
F77
sg18
I01
sS'y'
F486
s(dp79
S'y'
F777
sS'x'
F77
sg18
I00
s(dp80
S'y'
F972
sS'x'
F269
sg18
I00
stp81
stp82
sS'components'
p83
(tsS'anchors'
p84
(tsss."
LayerCount: 2
Fore
SplineSet
834 877 m 1
 788 964 703 1086 544 1247 c 1
 292 1143 l 1
 230 1257 l 1
 453 1344 l 1
 288 1510 l 1
 506 1510 l 1
 605 1411 l 1
 856 1512 l 1
 917 1403 l 1
 697 1312 l 1
 844 1141 936 1014 1005 884 c 1
 1075 755 1107 633 1107 492 c 0
 1107 199 933 -25 593 -25 c 0
 261 -25 77 212 77 486 c 0
 77 772 287 972 549 972 c 0
 685 972 774.824976786 920.602648684 834 877 c 1
259 485 m 0
 259 294 372 114 599 114 c 0
 815 114 935 271 935 472 c 0
 935 653 815 833 593 833 c 0
 381 833 259 675 259 485 c 0
EndSplineSet
EndChar

StartChar: exclam
Encoding: 33 33 281
Width: 586
VWidth: 0
Flags: W
PickledData: "(dp1
S'com.typemytype.robofont.layerData'
p2
(dp3
S'back'
p4
(dp5
S'name'
p6
S'exclam'
p7
sS'lib'
p8
(dp9
sS'unicodes'
p10
(tsS'width'
p11
I586
sS'contours'
p12
(tsS'components'
p13
(tsS'anchors'
p14
(tsss."
LayerCount: 2
Fore
SplineSet
391 1496 m 1
 391 1354 l 1
 327 435 l 1
 262 435 l 1
 194 1354 l 1
 194 1496 l 1
 391 1496 l 1
160 120 m 0
 160 186 205 252 293 252 c 0
 382 252 426 186 426 120 c 0
 426 54 382 -12 293 -12 c 0
 205 -12 160 54 160 120 c 0
EndSplineSet
EndChar

StartChar: exclamdown
Encoding: 161 161 282
Width: 586
VWidth: 0
Flags: W
PickledData: "(dp1
S'com.typemytype.robofont.layerData'
p2
(dp3
S'back'
p4
(dp5
S'name'
p6
S'exclamdown'
p7
sS'lib'
p8
(dp9
sS'unicodes'
p10
(tsS'width'
p11
I586
sS'contours'
p12
(tsS'components'
p13
(tsS'anchors'
p14
(tsss."
LayerCount: 2
Fore
SplineSet
195 -1 m 1
 195 141 l 1
 259 1060 l 1
 324 1060 l 1
 392 141 l 1
 392 -1 l 1
 195 -1 l 1
426 1375 m 0
 426 1309 381 1243 293 1243 c 0
 204 1243 160 1309 160 1375 c 0
 160 1441 204 1507 293 1507 c 0
 381 1507 426 1441 426 1375 c 0
EndSplineSet
EndChar

StartChar: f
Encoding: 102 102 283
Width: 641
VWidth: 0
Flags: W
PickledData: "(dp1
S'com.typemytype.robofont.layerData'
p2
(dp3
S'back'
p4
(dp5
S'name'
p6
S'f'
sS'lib'
p7
(dp8
sS'unicodes'
p9
(tsS'width'
p10
I641
sS'contours'
p11
(tsS'components'
p12
(tsS'anchors'
p13
(tsss."
LayerCount: 2
Fore
SplineSet
39 980 m 1
 39 1098 l 1
 200 1098 l 1
 200 1108.9090907 200.081641449 1119.56269168 200.247990366 1129.96616105 c 0
 205.449166615 1455.24797647 293.460743638 1536 558 1536 c 2
 631 1536 l 1
 651 1408 l 1
 557 1408 l 2
 382.696276665 1408 368.969950995 1338.14429593 368.058998086 1130.1685605 c 0
 368.013549266 1119.79233617 368 1109.07230854 368 1098 c 1
 617 1098 l 1
 617 980 l 1
 368 980 l 1
 368 0 l 1
 200 0 l 1
 200 980 l 1
 39 980 l 1
EndSplineSet
EndChar

StartChar: ff
Encoding: 64256 64256 284
Width: 1187
VWidth: 0
Flags: W
LayerCount: 2
Fore
SplineSet
181 0 m 1
 181 980 l 1
 20 980 l 1
 20 1098 l 1
 181 1098 l 1
 181 1450 266 1536 539 1536 c 2
 612 1536 l 1
 632 1408 l 1
 538 1408 l 2
 355 1408 349 1331 349 1098 c 1
 766 1098 l 1
 766 1450 851 1536 1124 1536 c 2
 1197 1536 l 1
 1217 1408 l 1
 1123 1408 l 2
 940 1408 934 1331 934 1098 c 1
 1183 1098 l 1
 1183 980 l 1
 934 980 l 1
 934 0 l 1
 766 0 l 1
 766 980 l 1
 349 980 l 1
 349 0 l 1
 181 0 l 1
EndSplineSet
EndChar

StartChar: ffi
Encoding: 64259 64259 285
Width: 1585
VWidth: 0
Flags: W
LayerCount: 2
Fore
SplineSet
349 980 m 1
 349 0 l 1
 181 0 l 1
 181 980 l 1
 20 980 l 1
 20 1098 l 1
 181 1098 l 1
 181 1450 266 1536 539 1536 c 2
 612 1536 l 1
 632 1408 l 1
 538 1408 l 2
 355 1408 349 1331 349 1098 c 1
 738 1098 l 1
 738 1450 799 1536 1072 1536 c 2
 1149 1536 l 1
 1156 1408 l 1
 1071 1408 l 2
 918.082 1408 905.514 1354.23 905.514 1200.61 c 0
 905.514 1170.39 906 1136.3 906 1098 c 1
 1453 1098 l 1
 1453 0 l 1
 1285 0 l 1
 1285 980 l 1
 906 980 l 1
 906 0 l 1
 738 0 l 1
 738 980 l 1
 349 980 l 1
1285 1496 m 1
 1453 1496 l 1
 1453 1298 l 1
 1285 1298 l 1
 1285 1496 l 1
EndSplineSet
EndChar

StartChar: fi
Encoding: 64257 64257 286
Width: 1088
VWidth: 0
Flags: W
LayerCount: 2
Fore
SplineSet
181 0 m 1
 181 980 l 1
 20 980 l 1
 20 1098 l 1
 181 1098 l 1
 181 1450 266 1536 539 1536 c 2
 612 1536 l 1
 632 1408 l 1
 538 1408 l 2
 355 1408 349 1331 349 1098 c 1
 956 1098 l 1
 956 0 l 1
 788 0 l 1
 788 980 l 1
 349 980 l 1
 349 0 l 1
 181 0 l 1
788 1496 m 1
 956 1496 l 1
 956 1298 l 1
 788 1298 l 1
 788 1496 l 1
EndSplineSet
EndChar

StartChar: five
Encoding: 53 53 287
Width: 1177
VWidth: 0
Flags: W
PickledData: "(dp1
S'com.typemytype.robofont.layerData'
p2
(dp3
S'back'
p4
(dp5
S'name'
p6
S'five'
p7
sS'lib'
p8
(dp9
sS'unicodes'
p10
(tsS'width'
p11
I1177
sS'contours'
p12
(tsS'components'
p13
(tsS'anchors'
p14
(tsss."
LayerCount: 2
Fore
SplineSet
1004 1496 m 1
 987 1332 l 1
 379 1332 l 1
 374 1187 368 1006 364 861 c 1
 444 912 525 933 609 933 c 0
 912 933 1064 731 1064 477 c 0
 1064 178 860 -23 523 -23 c 0
 348 -23 210 33 121 114 c 1
 186 255 l 1
 250 205 363 139 529 139 c 0
 751 139 883 279 883 475 c 0
 883 648 778 776 575 776 c 0
 480 776 400 746 337 677 c 1
 198 696 l 1
 237 1496 l 1
 1004 1496 l 1
EndSplineSet
EndChar

StartChar: fj
Encoding: 65537 -1 288
Width: 1033
VWidth: 0
Flags: W
LayerCount: 2
Fore
SplineSet
751 1496 m 1
 919 1496 l 1
 919 1298 l 1
 751 1298 l 1
 751 1496 l 1
534 -502 m 1
 512 -351 l 1
 564 -351 l 2
 746 -351 751 -286 751 -121 c 2
 751 980 l 1
 348 980 l 1
 348 0 l 1
 180 0 l 1
 180 980 l 1
 20 980 l 1
 20 1098 l 1
 180 1098 l 1
 180 1450 265 1536 538 1536 c 2
 611 1536 l 1
 631 1408 l 1
 537 1408 l 2
 354 1408 348 1331 348 1098 c 1
 919 1098 l 1
 919 -139 l 2
 919 -407 859 -502 586 -502 c 2
 534 -502 l 1
EndSplineSet
EndChar

StartChar: fl
Encoding: 64258 64258 289
Width: 1237
VWidth: 0
Flags: W
LayerCount: 2
Fore
SplineSet
1094 -12 m 0
 822 -12 808 123 808 487 c 2
 808 1376 l 1
 698.8 1382.76 638.272 1384.38 603.778 1384.38 c 0
 571.938 1384.38 562.28 1383 557 1383 c 0
 399 1383 349 1315 349 1098 c 1
 598 1098 l 1
 598 980 l 1
 349 980 l 1
 349 0 l 1
 181 0 l 1
 181 980 l 1
 20 980 l 1
 20 1098 l 1
 181 1098 l 1
 181 1423 315 1512 550 1512 c 0
 570 1512 590 1512 976 1490 c 1
 976 450 l 2
 976 211 977 128 1134 128 c 0
 1159 128 1155 128 1207 132 c 1
 1218 1 l 1
 1121 -10 1111 -12 1094 -12 c 0
EndSplineSet
EndChar

StartChar: florin
Encoding: 402 402 290
Width: 978
VWidth: 0
Flags: W
LayerCount: 2
Fore
SplineSet
412 865 m 1
 254 865 l 1
 265 1015 l 1
 438 1015 l 1
 460 1178 l 1
 487 1370 564 1547 783 1547 c 0
 822 1547 868 1537 911 1525 c 1
 903 1369 l 1
 867 1385 835 1393 807 1393 c 0
 703 1393 670 1334 654 1227 c 1
 615 1015 l 1
 801 1015 l 1
 790 865 l 1
 593 865 l 1
 460 130 l 1
 412 -127 347 -358 119 -358 c 0
 94 -358 64 -350 28 -339 c 1
 39 -192 l 1
 66 -203 89 -210 108 -210 c 0
 193 -210 231 -110 255 6 c 1
 319 281 359 583 412 865 c 1
EndSplineSet
EndChar

StartChar: four
Encoding: 52 52 291
Width: 1211
VWidth: 0
Flags: W
LayerCount: 2
Fore
SplineSet
784 1269 m 1
 284 516 l 1
 784 516 l 1
 784 1269 l 1
1122 371 m 1
 952 371 l 1
 952 0 l 1
 784 0 l 1
 784 371 l 1
 108 371 l 1
 108 524 l 1
 765 1496 l 1
 952 1496 l 1
 952 516 l 1
 1136 516 l 1
 1122 371 l 1
EndSplineSet
EndChar

StartChar: foursuperior
Encoding: 8308 8308 292
Width: 756
VWidth: 0
Flags: W
PickledData: "(dp1
S'com.typemytype.robofont.layerData'
p2
(dp3
S'back'
p4
(dp5
S'name'
p6
S'foursuperior'
p7
sS'lib'
p8
(dp9
sS'unicodes'
p10
(tsS'width'
p11
I756
sS'contours'
p12
((dp13
S'points'
p14
((dp15
S'segmentType'
p16
S'line'
p17
sS'x'
F532
sS'smooth'
p18
I00
sS'y'
I608
s(dp19
g16
S'line'
p20
sS'x'
F532
sg18
I00
sS'y'
I1496
s(dp21
g16
S'line'
p22
sS'x'
F410
sg18
I00
sS'y'
I1496
s(dp23
S'y'
I1464
sS'x'
F370
sg18
I00
s(dp24
S'y'
I1413
sS'x'
F290
sg18
I00
s(dp25
g16
S'curve'
p26
sS'x'
F231
sg18
I00
sS'y'
I1382
s(dp27
g16
S'line'
p28
sS'x'
F261
sg18
I00
sS'y'
I1252
s(dp29
S'y'
I1275
sS'x'
F306
sg18
I00
s(dp30
S'y'
I1302
sS'x'
F355
sg18
I00
s(dp31
g16
S'curve'
p32
sS'x'
F394
sg18
I00
sS'y'
I1327
s(dp33
g16
S'line'
p34
sS'x'
F394
sg18
I00
sS'y'
I608
stp35
stp36
sS'components'
p37
(tsS'anchors'
p38
(tsss."
LayerCount: 2
Fore
SplineSet
184 934 m 1
 394 934 l 1
 394 1286 l 1
 184 934 l 1
532 608 m 1
 394 608 l 1
 394 821 l 1
 43 821 l 1
 43 941 l 1
 384 1496 l 1
 532 1496 l 1
 532 934 l 1
 626 934 l 1
 636 821 l 1
 532 821 l 1
 532 608 l 1
EndSplineSet
EndChar

StartChar: fraction
Encoding: 8260 8260 293
Width: 1135
VWidth: 0
Flags: W
LayerCount: 2
Fore
SplineSet
936 1547 m 1
 1066 1547 l 1
 191 0 l 1
 60 0 l 1
 936 1547 l 1
EndSplineSet
EndChar

StartChar: g
Encoding: 103 103 294
Width: 1165
VWidth: 0
Flags: W
PickledData: "(dp1
S'com.typemytype.robofont.layerData'
p2
(dp3
S'back'
p4
(dp5
S'name'
p6
S'g'
sS'lib'
p7
(dp8
sS'unicodes'
p9
(tsS'width'
p10
I1165
sS'contours'
p11
(tsS'components'
p12
(tsS'anchors'
p13
(tsss."
LayerCount: 2
Fore
SplineSet
324 -502 m 1
 302 -351 l 1
 506 -351 l 2
 851 -351 889 -193 889 83 c 2
 889 180 l 1
 817 76 724 1 551 1 c 0
 228 1 80 294 80 545 c 0
 80 857 230 1124 563 1124 c 0
 708 1124 811 1064 894 951 c 1
 894 1098 l 1
 1057 1098 l 1
 1057 79 l 2
 1057 -206 1015 -502 502 -502 c 2
 324 -502 l 1
576 143 m 0
 811 143 894 319 894 516 c 2
 894 597 l 2
 894 805 804 982 577 982 c 0
 341 982 252 744 252 554 c 0
 252 366 350 143 576 143 c 0
583 1098 m 0
583 1098 m 0
583 1098 m 0
584 1098 m 0
EndSplineSet
EndChar

StartChar: gamma
Encoding: 947 947 296
Width: 468
VWidth: 0
Flags: W
LayerCount: 2
Fore
SplineSet
237 796 m 0
 326 796 370 730 370 664 c 0
 370 598 326 532 237 532 c 0
 149 532 104 598 104 664 c 0
 104 730 149 796 237 796 c 0
EndSplineSet
EndChar

StartChar: gcedilla
Encoding: 291 291 298
Width: 1268
VWidth: 0
Flags: W
PickledData: "(dp1
S'com.typemytype.robofont.layerData'
p2
(dp3
S'back'
p4
(dp5
S'name'
p6
S'gcedilla'
p7
sS'lib'
p8
(dp9
sS'unicodes'
p10
(tsS'width'
p11
I1268
sS'contours'
p12
(tsS'components'
p13
(tsS'anchors'
p14
(tsss."
LayerCount: 2
Fore
SplineSet
793 1749 m 1
 683 1250 l 1
 488 1250 l 1
 653 1749 l 1
 793 1749 l 1
EndSplineSet
Refer: 294 103 N 1 0 0 1 0 0 2
EndChar

StartChar: germandbls
Encoding: 223 223 301
Width: 1222
VWidth: 0
Flags: W
LayerCount: 2
Fore
SplineSet
771 148 m 2
 902 148 977 224 977 343 c 0
 977 518 722 617 591 705 c 0
 544 737 509 775 509 822 c 0
 509 857 527 895 574 934 c 0
 673 1015 799 1045 799 1182 c 0
 799 1303 691 1373 568 1373 c 0
 364 1373 286 1246 286 1056 c 2
 286 0 l 1
 118 0 l 1
 118 1046 l 2
 118 1343 260 1525 568 1525 c 0
 818 1525 988 1398 988 1182 c 0
 988 992 835 933 683 838 c 1
 870 704 1166 605 1166 348 c 0
 1166 94 1002 0 786 0 c 2
 443 0 l 1
 459 148 l 1
 771 148 l 2
EndSplineSet
EndChar

StartChar: grave
Encoding: 96 96 302
Width: 643
VWidth: 0
Flags: W
LayerCount: 2
Fore
SplineSet
408 1251 m 1
 85 1638 l 1
 335 1638 l 1
 520 1251 l 1
 408 1251 l 1
302.5 1098 m 1
 302.5 1098 l 1
302.5 1098 m 1
 302.5 1098 l 1
302.5 1098 m 1
 302.5 1098 l 1
302.5 1098 m 0
EndSplineSet
EndChar

StartChar: greater
Encoding: 62 62 303
Width: 1182
VWidth: 0
Flags: W
LayerCount: 2
Fore
SplineSet
126 230 m 1
 891 598 l 1
 130 997 l 1
 130 1160 l 1
 1086 640 l 1
 1086 544 l 1
 126 62 l 1
 126 230 l 1
EndSplineSet
EndChar

StartChar: greaterequal
Encoding: 8805 8805 304
Width: 1183
VWidth: 0
Flags: W
LayerCount: 2
Fore
SplineSet
150 1164 m 1
 150 1314 l 1
 1063 806 l 1
 1063 719 l 1
 146 234 l 1
 146 385 l 1
 908 762 l 1
 150 1164 l 1
1080 141 m 1
 1080 8 l 1
 120 8 l 1
 120 141 l 1
 1080 141 l 1
EndSplineSet
EndChar

StartChar: guillemotleft
Encoding: 171 171 305
Width: 983
VWidth: 0
Flags: W
LayerCount: 2
Fore
SplineSet
462 583 m 1
 726 982 l 1
 864 982 l 1
 633 583 l 1
 858 182 l 1
 722 182 l 1
 462 583 l 1
119 583 m 1
 363 982 l 1
 529 982 l 1
 270 583 l 1
 520 182 l 1
 357 182 l 1
 119 583 l 1
EndSplineSet
EndChar

StartChar: guillemotright
Encoding: 187 187 306
Width: 1007
VWidth: 0
Flags: W
LayerCount: 2
Fore
SplineSet
528 585 m 1
 263 182 l 1
 124 182 l 1
 356 585 l 1
 129 982 l 1
 266 982 l 1
 528 585 l 1
895 585 m 1
 653 182 l 1
 491 182 l 1
 744 585 l 1
 501 982 l 1
 659 982 l 1
 895 585 l 1
EndSplineSet
EndChar

StartChar: guilsinglleft
Encoding: 8249 8249 307
Width: 620
VWidth: 0
Flags: W
LayerCount: 2
Fore
SplineSet
361 982 m 1
 501 982 l 1
 269 583 l 1
 495 182 l 1
 356 182 l 1
 120 583 l 1
 361 982 l 1
EndSplineSet
EndChar

StartChar: guilsinglright
Encoding: 8250 8250 308
Width: 617
VWidth: 0
Flags: W
LayerCount: 2
Fore
SplineSet
505 585 m 1
 264 182 l 1
 124 182 l 1
 355 585 l 1
 130 982 l 1
 269 982 l 1
 505 585 l 1
EndSplineSet
EndChar

StartChar: h
Encoding: 104 104 309
Width: 1112
VWidth: 0
Flags: W
PickledData: "(dp1
S'com.typemytype.robofont.layerData'
p2
(dp3
S'back'
p4
(dp5
S'name'
p6
S'h'
sS'lib'
p7
(dp8
sS'unicodes'
p9
(tsS'width'
p10
I1112
sS'contours'
p11
(tsS'components'
p12
(tsS'anchors'
p13
(tsss."
LayerCount: 2
Fore
SplineSet
282 0 m 1
 282 748 l 1
 309 852 448 980 619 980 c 0
 806 980 839 865 839 617 c 2
 839 0 l 1
 1007 0 l 1
 1007 664 l 2
 1007 952 903 1124 674 1124 c 0
 507 1124 375 1061 282 949 c 1
 282 1510 l 1
 114 1490 l 1
 114 0 l 1
 282 0 l 1
556 1098 m 0
556 549 m 0
556 1098 m 0
556 549 m 0
556 1098 m 0
556 549 m 0
556 1098 m 0
556 549 m 0
EndSplineSet
EndChar

StartChar: hbar
Encoding: 295 295 310
Width: 1115
VWidth: 0
Flags: W
PickledData: "(dp1
S'com.typemytype.robofont.layerData'
p2
(dp3
S'back'
p4
(dp5
S'name'
p6
S'hbar'
p7
sS'lib'
p8
(dp9
sS'unicodes'
p10
(tsS'width'
p11
I1115
sS'contours'
p12
(tsS'components'
p13
(tsS'anchors'
p14
(tsss."
LayerCount: 2
Fore
SplineSet
282 748 m 1
 309 852 448 980 619 980 c 0
 806 980 839 865 839 617 c 2
 839 0 l 1
 1007 0 l 1
 1007 664 l 2
 1007 952 903 1124 674 1124 c 0
 507 1124 375 1061 282 949 c 1
 282 1243 l 1
 558 1243 l 1
 558 1351 l 1
 282 1351 l 1
 282 1510 l 1
 114 1490 l 1
 114 1351 l 1
 21 1351 l 1
 21 1243 l 1
 114 1243 l 1
 114 0 l 1
 282 0 l 1
 282 748 l 1
EndSplineSet
EndChar

StartChar: hungarumlaut
Encoding: 733 733 312
Width: 817
VWidth: 0
Flags: W
LayerCount: 2
Fore
SplineSet
713 1594 m 1
 463 1259 l 1
 361 1259 l 1
 563 1594 l 1
 713 1594 l 1
479 1594 m 1
 227 1259 l 1
 128 1259 l 1
 326 1594 l 1
 479 1594 l 1
420.5 1098 m 1
 420.5 1098 l 1
420.5 1098 m 1
 420.5 1098 l 1
420.5 1098 m 1
 420.5 1098 l 1
420.5 1098 m 0
EndSplineSet
EndChar

StartChar: hyphen
Encoding: 45 45 313
Width: 686
VWidth: 0
Flags: W
LayerCount: 2
Fore
SplineSet
89 521 m 1
 89 663 l 1
 597 663 l 1
 597 521 l 1
 89 521 l 1
EndSplineSet
EndChar

StartChar: i
Encoding: 105 105 314
Width: 466
VWidth: 0
Flags: W
PickledData: "(dp1
S'com.typemytype.robofont.layerData'
p2
(dp3
S'back'
p4
(dp5
S'name'
p6
S'i'
sS'lib'
p7
(dp8
sS'unicodes'
p9
(tsS'width'
p10
I466
sS'contours'
p11
(tsS'components'
p12
(tsS'anchors'
p13
(tsss."
LayerCount: 2
Fore
SplineSet
327 1496 m 1
 327 1298 l 1
 159 1298 l 1
 159 1496 l 1
 327 1496 l 1
327 1098 m 1
 327 0 l 1
 159 0 l 1
 159 1098 l 1
 327 1098 l 1
EndSplineSet
EndChar

StartChar: ij
Encoding: 307 307 320
Width: 976
VWidth: 0
Flags: W
LayerCount: 2
Fore
SplineSet
817 1098 m 1
 817 180 l 2
 817 -146 793 -264 445 -308 c 1
 437 -310 l 1
 437 -141 l 1
 445 -141 l 1
 644 -117 647 -30 647 126 c 2
 647 1098 l 1
 817 1098 l 1
325 1098 m 1
 325 0 l 1
 155 0 l 1
 155 1098 l 1
 325 1098 l 1
325 1557 m 1
 325 1359 l 1
 155 1359 l 1
 155 1557 l 1
 325 1557 l 1
817 1557 m 1
 817 1359 l 1
 647 1359 l 1
 647 1557 l 1
 817 1557 l 1
EndSplineSet
EndChar

StartChar: infinity
Encoding: 8734 8734 322
Width: 1811
VWidth: 0
Flags: W
LayerCount: 2
Fore
SplineSet
1678 642 m 0
 1678 413 1522 254 1323 254 c 0
 1171 254 1045 344 909 525 c 1
 789 367 660 254 493 254 c 0
 266 254 135 440 135 659 c 0
 135 858 291 1017 488 1017 c 0
 659 1017 786 909 909 745 c 1
 1024 903 1151 1017 1326 1017 c 0
 1554 1017 1678 860 1678 642 c 0
248 638 m 0
 248 508 347 381 495 381 c 0
 628 381 744 497 838 636 c 1
 745 783 631 893 487 893 c 0
 339 893 248 775 248 638 c 0
1555 665 m 0
 1555 789 1457 893 1321 893 c 0
 1182 893 1071 770 982 638 c 1
 1105 470 1199 381 1326 381 c 0
 1482 381 1555 507 1555 665 c 0
EndSplineSet
EndChar

StartChar: integral
Encoding: 8747 8747 323
Width: 698
VWidth: 0
Flags: W
LayerCount: 2
Fore
SplineSet
277 -50 m 2
 277 1351 l 2
 277 1583 341 1756 540 1756 c 0
 591 1756 620 1745 661 1733 c 1
 662 1594 l 1
 639 1605 601 1610 566 1610 c 0
 446 1610 421 1531 421 1379 c 2
 421 -25 l 2
 421 -257 361 -429 162 -429 c 0
 111 -429 82 -421 41 -409 c 1
 40 -270 l 1
 63 -281 98 -284 133 -284 c 0
 253 -284 277 -202 277 -50 c 2
EndSplineSet
EndChar

StartChar: iota
Encoding: 953 953 325
Width: 468
VWidth: 0
Flags: W
LayerCount: 2
Fore
SplineSet
237 796 m 0
 326 796 370 730 370 664 c 0
 370 598 326 532 237 532 c 0
 149 532 104 598 104 664 c 0
 104 730 149 796 237 796 c 0
234 1098 m 1
 234 1098 l 1
234 1098 m 1
 234 1098 l 1
234 1098 m 0
EndSplineSet
EndChar

StartChar: iotadieresistonos
Encoding: 912 912 327
Width: 468
VWidth: 0
Flags: W
LayerCount: 2
Fore
SplineSet
237 796 m 0
 326 796 370 730 370 664 c 0
 370 598 326 532 237 532 c 0
 149 532 104 598 104 664 c 0
 104 730 149 796 237 796 c 0
EndSplineSet
EndChar

StartChar: iotatonos
Encoding: 943 943 328
Width: 468
VWidth: 0
Flags: W
LayerCount: 2
Fore
SplineSet
237 796 m 0
 326 796 370 730 370 664 c 0
 370 598 326 532 237 532 c 0
 149 532 104 598 104 664 c 0
 104 730 149 796 237 796 c 0
EndSplineSet
EndChar

StartChar: j
Encoding: 106 106 330
Width: 445
VWidth: 0
Flags: W
LayerCount: 2
Fore
SplineSet
330 1496 m 1
 330 1298 l 1
 162 1298 l 1
 162 1496 l 1
 330 1496 l 1
330 1098 m 1
 330 -139 l 2
 330 -407 270 -502 -3 -502 c 2
 -55 -502 l 1
 -77 -351 l 1
 -25 -351 l 2
 157 -351 162 -286 162 -121 c 2
 162 1098 l 1
 330 1098 l 1
EndSplineSet
EndChar

StartChar: k
Encoding: 107 107 332
Width: 1006
VWidth: 0
Flags: W
PickledData: "(dp1
S'com.typemytype.robofont.layerData'
p2
(dp3
S'back'
p4
(dp5
S'name'
p6
S'k'
sS'lib'
p7
(dp8
sS'unicodes'
p9
(tsS'width'
p10
I1006
sS'contours'
p11
(tsS'components'
p12
(tsS'anchors'
p13
(tsss."
LayerCount: 2
Fore
SplineSet
114 1490 m 1
 282 1510 l 1
 282 632 l 1
 771 1098 l 1
 998 1098 l 1
 529 642 l 1
 1031 0 l 1
 816 0 l 1
 401 563 l 1
 282 461 l 1
 282 0 l 1
 114 0 l 1
 114 1490 l 1
503 0 m 1
 503 0 l 1
503 0 m 1
 503 0 l 1
503 0 m 1
 503 0 l 1
498 0 m 0
EndSplineSet
EndChar

StartChar: kgreenlandic
Encoding: 312 312 335
Width: 1104
VWidth: 0
Flags: W
LayerCount: 2
Fore
SplineSet
823 0 m 1
 293 506 l 1
 293 0 l 1
 147 0 l 1
 147 1105 l 1
 293 1105 l 1
 293 600 l 1
 776 1105 l 1
 981 1105 l 1
 458 551 l 1
 655 368 847 183 1014 0 c 1
 823 0 l 1
EndSplineSet
EndChar

StartChar: l
Encoding: 108 108 336
Width: 550
VWidth: 0
Flags: W
PickledData: "(dp1
S'com.typemytype.robofont.layerData'
p2
(dp3
S'back'
p4
(dp5
S'name'
p6
S'l'
sS'lib'
p7
(dp8
sS'unicodes'
p9
(tsS'width'
p10
I550
sS'contours'
p11
((dp12
S'points'
p13
((dp14
S'segmentType'
p15
S'curve'
p16
sS'x'
F918
sS'smooth'
p17
I01
sS'y'
F549
s(dp18
S'y'
F245
sS'x'
F918
sg17
I00
s(dp19
S'y'
F-25
sS'x'
F739
sg17
I00
s(dp20
g15
S'curve'
p21
sS'x'
F410
sg17
I01
sS'y'
F-25
s(dp22
S'y'
F-25
sS'x'
F78
sg17
I00
s(dp23
S'y'
F232
sS'x'
F-107
sg17
I00
s(dp24
g15
S'curve'
p25
sS'x'
F-107
sg17
I01
sS'y'
F547
s(dp26
S'y'
F861
sS'x'
F-107
sg17
I00
s(dp27
S'y'
F1124
sS'x'
F81
sg17
I00
s(dp28
g15
S'curve'
p29
sS'x'
F413
sg17
I01
sS'y'
F1124
s(dp30
S'y'
F1124
sS'x'
F749
sg17
I00
s(dp31
S'y'
F865
sS'x'
F918
sg17
I00
stp32
s(dp33
g13
((dp34
g15
S'line'
p35
sS'x'
F406
sg17
I01
sS'y'
F1098
stp36
s(dp37
g13
((dp38
g15
S'line'
p39
sS'x'
F406
sg17
I00
sS'y'
F1098
stp40
s(dp41
g13
((dp42
g15
S'curve'
p43
sS'x'
F744
sg17
I01
sS'y'
F547
s(dp44
S'y'
F780
sS'x'
F744
sg17
I00
s(dp45
S'y'
F986
sS'x'
F657
sg17
I00
s(dp46
g15
S'curve'
p47
sS'x'
F410
sg17
I01
sS'y'
F986
s(dp48
S'y'
F986
sS'x'
F174
sg17
I00
s(dp49
S'y'
F768
sS'x'
F66
sg17
I00
s(dp50
g15
S'curve'
p51
sS'x'
F66
sg17
I01
sS'y'
F544
s(dp52
S'y'
F323
sS'x'
F66
sg17
I00
s(dp53
S'y'
F113
sS'x'
F173
sg17
I00
s(dp54
g15
S'curve'
p55
sS'x'
F413
sg17
I01
sS'y'
F113
s(dp56
S'y'
F113
sS'x'
F650
sg17
I00
s(dp57
S'y'
F323
sS'x'
F744
sg17
I00
stp58
s(dp59
g13
((dp60
g15
S'line'
p61
sS'x'
F599
sg17
I00
sS'y'
F1098
stp62
stp63
sS'components'
p64
(tsS'anchors'
p65
((dp66
S'y'
F1098
sS'x'
F599
sg6
S'top'
p67
stp68
sss."
LayerCount: 2
Fore
SplineSet
311 1510 m 1
 311 431 l 2
 311 192 318 117 432 117 c 0
 457 117 470 119 522 123 c 1
 533 -8 l 1
 476 -18 436 -21 419 -21 c 0
 149 -21 143 104 143 468 c 2
 143 1490 l 1
 311 1510 l 1
297 1098 m 0
297 -1 m 0
552 1098 m 0
297 1098 m 0
552 1098 m 0
297 1098 m 0
552 1098 m 0
297 1098 m 0
297 0 m 0
552 1098 m 0
EndSplineSet
EndChar

StartChar: lambda
Encoding: 955 955 338
Width: 468
VWidth: 0
Flags: W
LayerCount: 2
Fore
SplineSet
237 796 m 0
 326 796 370 730 370 664 c 0
 370 598 326 532 237 532 c 0
 149 532 104 598 104 664 c 0
 104 730 149 796 237 796 c 0
EndSplineSet
EndChar

StartChar: less
Encoding: 60 60 342
Width: 1179
VWidth: 0
Flags: W
LayerCount: 2
Fore
SplineSet
1061 982 m 1
 294 596 l 1
 1057 216 l 1
 1057 50 l 1
 103 547 l 1
 103 642 l 1
 1061 1149 l 1
 1061 982 l 1
EndSplineSet
EndChar

StartChar: lessequal
Encoding: 8804 8804 343
Width: 1183
VWidth: 0
Flags: W
LayerCount: 2
Fore
SplineSet
1066 141 m 1
 1066 8 l 1
 101 8 l 1
 101 141 l 1
 1066 141 l 1
1041 383 m 1
 1041 232 l 1
 131 716 l 1
 131 806 l 1
 1041 1312 l 1
 1041 1162 l 1
 285 766 l 1
 1041 383 l 1
EndSplineSet
EndChar

StartChar: logicalnot
Encoding: 172 172 344
Width: 1280
VWidth: 0
Flags: W
LayerCount: 2
Fore
SplineSet
1136 256 m 1
 1003 256 l 1
 1003 709 l 1
 115 709 l 1
 115 860 l 1
 1136 860 l 1
 1136 256 l 1
EndSplineSet
EndChar

StartChar: lozenge
Encoding: 9674 9674 345
Width: 1142
VWidth: 0
Flags: W
LayerCount: 2
Fore
SplineSet
630 1583 m 1
 1055 768 l 1
 621 -48 l 1
 512 -48 l 1
 87 766 l 1
 519 1583 l 1
 630 1583 l 1
565 106 m 1
 683.987 326.346 803.688 545.979 923 766 c 1
 807.811 985.477 690.208 1202.54 577 1424 c 1
 456.632 1206.37 338.391 986.609 219 768 c 1
 334.553 547.553 445.958 322.958 565 106 c 1
EndSplineSet
EndChar

StartChar: lslash
Encoding: 322 322 346
Width: 589
VWidth: 0
Flags: W
PickledData: "(dp1
S'com.typemytype.robofont.layerData'
p2
(dp3
S'back'
p4
(dp5
S'name'
p6
S'lslash'
p7
sS'lib'
p8
(dp9
sS'unicodes'
p10
(tsS'width'
p11
I589
sS'contours'
p12
(tsS'components'
p13
(tsS'anchors'
p14
(tsss."
LayerCount: 2
Fore
SplineSet
487 985 m 1
 487 839 l 1
 31 486 l 1
 31 631 l 1
 487 985 l 1
EndSplineSet
Refer: 336 108 N 1 0 0 1 0 0 2
EndChar

StartChar: m
Encoding: 109 109 347
Width: 1773
VWidth: 0
Flags: W
PickledData: "(dp1
S'com.typemytype.robofont.layerData'
p2
(dp3
S'back'
p4
(dp5
S'name'
p6
S'm'
sS'lib'
p7
(dp8
sS'unicodes'
p9
(tsS'width'
p10
I1773
sS'contours'
p11
(tsS'components'
p12
(tsS'anchors'
p13
(tsss."
LayerCount: 2
Fore
SplineSet
114 0 m 1
 282 0 l 1
 282 749 l 1
 318 861 450 979 621 979 c 0
 787 979 825 832 825 608 c 2
 825 0 l 1
 993 0 l 1
 993 731 l 1
 1044 879 1164 979 1303 979 c 0
 1490 979 1500 820 1500 573 c 2
 1500 0 l 1
 1668 0 l 1
 1668 697 l 2
 1668 954 1578 1124 1330 1124 c 0
 1175 1124 1047 1069 950 921 c 1
 899 1068 794 1124 641 1124 c 0
 502 1124 368 1063 271 934 c 1
 255 1098 l 1
 111 1098 l 1
 111 1066 114 913 114 820 c 2
 114 0 l 1
EndSplineSet
EndChar

StartChar: macron
Encoding: 175 175 348
Width: 770
VWidth: 0
Flags: W
LayerCount: 2
Fore
SplineSet
387 1098 m 1
 387 1098 l 1
637 1275 m 1
 136 1275 l 1
 136 1418 l 1
 637 1418 l 1
 637 1275 l 1
386.5 1098 m 1
 386.5 1098 l 1
386.5 1098 m 1
 386.5 1098 l 1
386.5 1098 m 1
 386.5 1098 l 1
386.5 1098 m 1
 386.5 1098 l 1
386.5 1098 m 1
 386.5 1098 l 1
386.5 1098 m 1
 386.5 1098 l 1
386.5 1098 m 1
 386.5 1098 l 1
386.5 1098 m 0
EndSplineSet
EndChar

StartChar: middot
Encoding: 183 183 349
Width: 468
VWidth: 0
Flags: W
LayerCount: 2
Fore
SplineSet
235 793 m 0
 324 793 368 727 368 661 c 0
 368 595 324 529 235 529 c 0
 147 529 102 595 102 661 c 0
 102 727 147 793 235 793 c 0
EndSplineSet
EndChar

StartChar: minus
Encoding: 8722 8722 350
Width: 1274
VWidth: 0
Flags: W
LayerCount: 2
Fore
SplineSet
140 682 m 1
 1141 682 l 1
 1141 534 l 1
 140 534 l 1
 140 682 l 1
EndSplineSet
EndChar

StartChar: mu
Encoding: 956 956 351
Width: 468
VWidth: 0
Flags: W
LayerCount: 2
Fore
SplineSet
237 796 m 0
 326 796 370 730 370 664 c 0
 370 598 326 532 237 532 c 0
 149 532 104 598 104 664 c 0
 104 730 149 796 237 796 c 0
EndSplineSet
EndChar

StartChar: multiply
Encoding: 215 215 352
Width: 1134
VWidth: 0
Flags: W
PickledData: "(dp1
S'name'
p2
S'multiply'
p3
sS'com.typemytype.robofont.layerData'
p4
(dp5
S'back'
p6
(dp7
g2
S'multiply'
p8
sS'lib'
p9
(dp10
sS'unicodes'
p11
(tsS'width'
p12
F1134
sS'contours'
p13
(tsS'components'
p14
(tsS'anchors'
p15
(tsssg11
(tsg12
I993
sg13
(tsg14
(tsg15
(ts."
LayerCount: 2
Fore
SplineSet
238 159 m 1
 145 257 l 1
 472.333 580.41 l 1
 145 906 l 1
 238 999 l 1
 567 673.942 l 1
 896 999 l 1
 989 906 l 1
 661.667 580.41 l 1
 989 257 l 1
 896 159 l 1
 567 486.248 l 1
 238 159 l 1
EndSplineSet
EndChar

StartChar: n
Encoding: 110 110 353
Width: 1112
VWidth: 0
Flags: W
PickledData: "(dp1
S'com.typemytype.robofont.layerData'
p2
(dp3
S'back'
p4
(dp5
S'name'
p6
S'n'
sS'lib'
p7
(dp8
sS'unicodes'
p9
(tsS'width'
p10
I1112
sS'contours'
p11
(tsS'components'
p12
(tsS'anchors'
p13
(tsss."
LayerCount: 2
Fore
SplineSet
661 1124 m 0
 902 1124 1007 965 1007 657 c 2
 1007 0 l 1
 839 0 l 1
 839 551 l 2
 839 836 828 980 625 980 c 0
 441 980 309 849 282 750 c 1
 282 0 l 1
 114 0 l 1
 114 831 l 1
 111 1098 l 1
 255 1098 l 1
 271 935 l 1
 356 1052 509 1124 661 1124 c 0
554 1098 m 1
 554 1098 l 1
554 0 m 1
 554 0 l 1
554 1098 m 1
 554 1098 l 1
554 0 m 1
 554 0 l 1
554 1098 m 1
 554 1098 l 1
554 0 m 1
 554 0 l 1
554 1098 m 0
554 0 m 0
EndSplineSet
EndChar

StartChar: nine
Encoding: 57 57 357
Width: 1165
VWidth: 0
Flags: W
PickledData: "(dp1
S'com.typemytype.robofont.layerData'
p2
(dp3
S'back'
p4
(dp5
S'name'
p6
S'nine'
p7
sS'lib'
p8
(dp9
sS'unicodes'
p10
(tsS'width'
p11
I1165
sS'contours'
p12
(tsS'components'
p13
(tsS'anchors'
p14
(tsss."
LayerCount: 2
Fore
SplineSet
901 1061 m 0
 901 1234 804 1373 598 1373 c 0
 393 1373 275 1228 275 1056 c 0
 275 872 390 748 592 748 c 0
 814 748 901 889 901 1061 c 0
556 598 m 0
 304 598 86 777 86 1053 c 0
 86 1320 286 1525 592 1525 c 0
 912 1525 1090 1312 1090 1042 c 0
 1090 844 1026 712 872 504 c 1
 775 375 470 0 470 0 c 1
 250 0 l 1
 781 658 l 1
 717 624 636 598 556 598 c 0
EndSplineSet
EndChar

StartChar: notequal
Encoding: 8800 8800 358
Width: 1191
VWidth: 0
Flags: W
LayerCount: 2
Fore
SplineSet
798 1207 m 1
 913 1191 l 1
 796 915 l 1
 1074 915 l 1
 1083 783 l 1
 737 783 l 1
 581 479 l 1
 1076 479 l 1
 1083 352 l 1
 521 352 l 1
 376 48 l 1
 263 68 l 1
 382 352 l 1
 121 352 l 1
 114 479 l 1
 446 479 l 1
 598 783 l 1
 121 783 l 1
 112 915 l 1
 657 915 l 1
 798 1207 l 1
EndSplineSet
EndChar

StartChar: nu
Encoding: 957 957 360
Width: 468
VWidth: 0
Flags: W
LayerCount: 2
Fore
SplineSet
237 796 m 0
 326 796 370 730 370 664 c 0
 370 598 326 532 237 532 c 0
 149 532 104 598 104 664 c 0
 104 730 149 796 237 796 c 0
EndSplineSet
EndChar

StartChar: numbersign
Encoding: 35 35 361
Width: 1134
VWidth: 0
Flags: W
LayerCount: 2
Fore
SplineSet
737 931 m 1
 502 931 l 1
 422 536 l 1
 658 536 l 1
 737 931 l 1
1032 1055 m 1
 1018 931 l 1
 871 931 l 1
 804 536 l 1
 951 536 l 1
 941 410 l 1
 786 410 l 1
 700 -23 l 1
 549 -23 l 1
 633 410 l 1
 398 410 l 1
 318 -23 l 1
 189 -23 l 1
 262 410 l 1
 91 410 l 1
 101 536 l 1
 284 536 l 1
 345 930 l 1
 168 930 l 1
 177 1055 l 1
 370 1055 l 1
 453 1462 l 1
 606 1462 l 1
 527 1055 l 1
 761 1055 l 1
 832 1462 l 1
 960 1462 l 1
 894 1055 l 1
 1032 1055 l 1
EndSplineSet
EndChar

StartChar: o
Encoding: 111 111 362
Width: 1179
VWidth: 0
Flags: W
PickledData: "(dp1
S'com.typemytype.robofont.layerData'
p2
(dp3
S'back'
p4
(dp5
S'name'
p6
S'o'
sS'lib'
p7
(dp8
sS'unicodes'
p9
(tsS'width'
p10
I1179
sS'contours'
p11
(tsS'components'
p12
(tsS'anchors'
p13
(tsss."
LayerCount: 2
Fore
SplineSet
928 547 m 0
 928 780 841 986 594 986 c 0
 358 986 250 768 250 544 c 0
 250 323 357 113 597 113 c 0
 834 113 928 323 928 547 c 0
1102 549 m 0
 1102 245 923 -25 594 -25 c 0
 262 -25 77 232 77 547 c 0
 77 861 265 1124 597 1124 c 0
 933 1124 1102 865 1102 549 c 0
590 1098 m 1
 590 1098 l 1
590 1098 m 1
 590 1098 l 1
590 1098 m 1
 590 1098 l 1
590 1098 m 0
EndSplineSet
EndChar

StartChar: oe
Encoding: 339 339 367
Width: 1916
VWidth: 0
Flags: W
PickledData: "(dp1
S'com.typemytype.robofont.layerData'
p2
(dp3
S'back'
p4
(dp5
S'name'
p6
S'oe'
p7
sS'lib'
p8
(dp9
sS'unicodes'
p10
(tsS'width'
p11
I1916
sS'contours'
p12
(tsS'components'
p13
(tsS'anchors'
p14
(tsss."
LayerCount: 2
Fore
SplineSet
1425 -25 m 0
 1601 -25 1728 30 1818 107 c 1
 1766 229 l 1
 1688 176 1586 119 1430 119 c 0
 1237 119 1093 272 1093 519 c 1
 1832 519 l 1
 1832 538 1834 578 1834 594 c 0
 1834 918 1687 1124 1414 1124 c 1
 1241 1119 1087 1031 1005 889 c 1
 928 1031 791 1124 590 1124 c 0
 258 1124 82 861 82 547 c 0
 82 232 255 -25 587 -25 c 0
 782 -25 920 70 1000 211 c 1
 1083 61 1231 -25 1425 -25 c 0
1099 634 m 1
 1118 850 1238 988 1404 988 c 0
 1567 988 1672 868 1672 634 c 1
 1099 634 l 1
590 113 m 0
 350 113 255 323 255 544 c 0
 255 768 351 986 587 986 c 0
 834 986 921 780 921 547 c 0
 921 323 827 113 590 113 c 0
958 1098 m 0
EndSplineSet
EndChar

StartChar: ogonek
Encoding: 731 731 368
Width: 590
VWidth: 0
Flags: W
LayerCount: 2
Fore
SplineSet
331 -303 m 0
 385 -303 417 -291 468 -270 c 1
 468 -387 l 1
 430 -403 365 -419 311 -419 c 0
 203 -419 118 -357 118 -243 c 0
 118 -134 213 -51 309 5 c 1
 423 5 l 1
 319 -72 243 -146 243 -214 c 0
 243 -267 290 -303 331 -303 c 0
468 10 m 1
 468 10 l 1
468 10 m 1
 468 10 l 1
468 10 m 1
 468 10 l 1
468 10 m 0
EndSplineSet
EndChar

StartChar: omega
Encoding: 969 969 372
Width: 468
VWidth: 0
Flags: W
LayerCount: 2
Fore
SplineSet
237 796 m 0
 326 796 370 730 370 664 c 0
 370 598 326 532 237 532 c 0
 149 532 104 598 104 664 c 0
 104 730 149 796 237 796 c 0
234 1098 m 1
 234 1098 l 1
234 1098 m 1
 234 1098 l 1
234 1098 m 0
EndSplineSet
EndChar

StartChar: omegatonos
Encoding: 974 974 373
Width: 468
VWidth: 0
Flags: W
LayerCount: 2
Fore
SplineSet
237 796 m 0
 326 796 370 730 370 664 c 0
 370 598 326 532 237 532 c 0
 149 532 104 598 104 664 c 0
 104 730 149 796 237 796 c 0
EndSplineSet
EndChar

StartChar: omicron
Encoding: 959 959 374
Width: 1189
VWidth: 0
Flags: W
LayerCount: 2
Fore
SplineSet
595 1098 m 1
 595 1098 l 1
595 1098 m 1
 595 1098 l 1
595 1098 m 0
EndSplineSet
Refer: 362 111 N 1 0 0 1 0 0 2
EndChar

StartChar: omicrontonos
Encoding: 972 972 375
Width: 468
VWidth: 0
Flags: W
LayerCount: 2
Fore
SplineSet
237 796 m 0
 326 796 370 730 370 664 c 0
 370 598 326 532 237 532 c 0
 149 532 104 598 104 664 c 0
 104 730 149 796 237 796 c 0
EndSplineSet
EndChar

StartChar: one
Encoding: 49 49 376
Width: 664
VWidth: 0
Flags: W
PickledData: "(dp1
S'com.typemytype.robofont.layerData'
p2
(dp3
S'back'
p4
(dp5
S'name'
p6
S'one'
p7
sS'lib'
p8
(dp9
sS'unicodes'
p10
(tsS'width'
p11
I664
sS'contours'
p12
(tsS'components'
p13
(tsS'anchors'
p14
(tsss."
LayerCount: 2
Fore
SplineSet
324 1496 m 1
 483 1496 l 1
 483 0 l 1
 306 0 l 1
 306 1311 l 1
 227 1259 161 1221 89 1198 c 1
 51 1343 l 1
 139 1382 245 1440 324 1496 c 1
EndSplineSet
EndChar

StartChar: onehalf
Encoding: 189 189 377
Width: 1591
VWidth: 0
Flags: W
PickledData: "(dp1
S'com.typemytype.robofont.layerData'
p2
(dp3
S'back'
p4
(dp5
S'name'
p6
S'onehalf'
p7
sS'lib'
p8
(dp9
sS'unicodes'
p10
(tsS'width'
p11
I1591
sS'contours'
p12
(tsS'components'
p13
(tsS'anchors'
p14
(tsss."
LayerCount: 2
Fore
SplineSet
1188 1495 m 1
 1322 1495 l 1
 259 0 l 1
 110 0 l 1
 1188 1495 l 1
EndSplineSet
Refer: 379 185 N 1 0 0 1 0 -42 2
Refer: 447 178 N 1 0 0 1 803 -641 2
EndChar

StartChar: onequarter
Encoding: 188 188 378
Width: 1609
VWidth: 0
Flags: W
PickledData: "(dp1
S'com.typemytype.robofont.layerData'
p2
(dp3
S'back'
p4
(dp5
S'name'
p6
S'onequarter'
p7
sS'lib'
p8
(dp9
sS'unicodes'
p10
(tsS'width'
p11
I1609
sS'contours'
p12
(tsS'components'
p13
(tsS'anchors'
p14
(tsss."
LayerCount: 2
Fore
SplineSet
1208 1495 m 1
 1342 1495 l 1
 279 0 l 1
 130 0 l 1
 1208 1495 l 1
1066 358 m 1
 1312 358 l 1
 1312 608 l 2
 1312 660 1312 688 1313 716 c 1
 1066 358 l 1
1420 40 m 1
 1313 40 l 1
 1313 240 l 1
 923 240 l 1
 923 339 l 1
 1302 899 l 1
 1422 899 l 1
 1422 358 l 1
 1516 358 l 1
 1526 240 l 1
 1420 240 l 1
 1420 40 l 1
EndSplineSet
Refer: 379 185 N 1 0 0 1 0 0 2
EndChar

StartChar: onesuperior
Encoding: 185 185 379
Width: 613
VWidth: 0
Flags: W
PickledData: "(dp1
S'com.typemytype.robofont.layerData'
p2
(dp3
S'back'
p4
(dp5
S'name'
p6
S'onesuperior'
p7
sS'lib'
p8
(dp9
sS'unicodes'
p10
(tsS'width'
p11
I613
sS'contours'
p12
(tsS'components'
p13
(tsS'anchors'
p14
(tsss."
LayerCount: 2
Fore
SplineSet
407 650 m 1
 407 1538 l 1
 285 1538 l 1
 245 1506 165 1455 106 1424 c 1
 136 1294 l 1
 181 1317 230 1344 269 1369 c 1
 269 650 l 1
 407 650 l 1
EndSplineSet
EndChar

StartChar: ordfeminine
Encoding: 170 170 380
Width: 1105
VWidth: 0
Flags: W
PickledData: "(dp1
S'com.typemytype.robofont.layerData'
p2
(dp3
S'back'
p4
(dp5
S'name'
p6
S'ordfeminine'
p7
sS'lib'
p8
(dp9
sS'unicodes'
p10
(tsS'width'
p11
I1105
sS'contours'
p12
(tsS'components'
p13
(tsS'anchors'
p14
(tsss."
LayerCount: 2
Fore
SplineSet
332 247 m 0
 332 383 412 428 687 464 c 0
 690 464 776 475 776 475 c 1
 776 237 l 1
 713 150 585 94 493 94 c 0
 400 94 332 139 332 247 c 0
780 106 m 1
 780 106 801 1 802 0 c 1
 923 0 l 1
 923 711 l 2
 923 928 773 992 582 992 c 0
 445 992 315 959 242 919 c 1
 242 919 281 802 282 802 c 0
 362 841 478 867 585 867 c 0
 718 867 776 807 776 689 c 2
 776 579 l 1
 776 579 679 567 678 567 c 0
 429 531 184 497 184 243 c 0
 184 62 318 -22 477 -22 c 0
 579 -22 696 10 780 106 c 1
566 969 m 0
929 9 m 0
EndSplineSet
EndChar

StartChar: ordmasculine
Encoding: 186 186 381
Width: 1084
VWidth: 0
Flags: W
PickledData: "(dp1
S'com.typemytype.robofont.layerData'
p2
(dp3
S'back'
p4
(dp5
S'name'
p6
S'ordmasculine'
p7
sS'lib'
p8
(dp9
sS'unicodes'
p10
(tsS'width'
p11
I1084
sS'contours'
p12
((dp13
S'points'
p14
((dp15
S'y'
I94
sS'x'
I400
sS'smooth'
p16
I00
s(dp17
S'y'
I139
sS'x'
I332
sg16
I00
s(dp18
S'segmentType'
p19
S'curve'
p20
sS'x'
I332
sg16
I01
sS'y'
I247
s(dp21
S'y'
I383
sS'x'
I332
sg16
I00
s(dp22
S'y'
I428
sS'x'
I412
sg16
I00
s(dp23
g19
S'curve'
p24
sS'x'
I687
sg16
I01
sS'y'
I464
s(dp25
S'y'
I464
sS'x'
I690
sg16
I00
s(dp26
S'y'
I475
sS'x'
I776
sg16
I00
s(dp27
g19
S'curve'
p28
sS'x'
I776
sg16
I01
sS'y'
I475
s(dp29
g19
S'line'
p30
sS'x'
I776
sg16
I00
sS'y'
I237
s(dp31
S'y'
I150
sS'x'
I713
sg16
I00
s(dp32
S'y'
I94
sS'x'
I585
sg16
I00
s(dp33
g19
S'curve'
p34
sS'x'
I493
sg16
I01
sS'y'
I94
stp35
s(dp36
g14
((dp37
S'y'
I-22
sS'x'
I579
sg16
I00
s(dp38
S'y'
I10
sS'x'
I696
sg16
I00
s(dp39
g19
S'curve'
p40
sS'x'
I780
sg16
I00
sS'y'
I106
s(dp41
S'y'
I106
sS'x'
I780
sg16
I00
s(dp42
S'y'
I1
sS'x'
I801
sg16
I00
s(dp43
g19
S'curve'
p44
sS'x'
I802
sg16
I00
sS'y'
I0
s(dp45
g19
S'line'
p46
sS'x'
I923
sg16
I00
sS'y'
I0
s(dp47
g19
S'line'
p48
sS'x'
I923
sg16
I01
sS'y'
I711
s(dp49
S'y'
I928
sS'x'
I923
sg16
I00
s(dp50
S'y'
I992
sS'x'
I773
sg16
I00
s(dp51
g19
S'curve'
p52
sS'x'
I582
sg16
I01
sS'y'
I992
s(dp53
S'y'
I992
sS'x'
I445
sg16
I00
s(dp54
S'y'
I959
sS'x'
I315
sg16
I00
s(dp55
g19
S'curve'
p56
sS'x'
I242
sg16
I00
sS'y'
I919
s(dp57
S'y'
I919
sS'x'
I242
sg16
I00
s(dp58
S'y'
I802
sS'x'
I281
sg16
I00
s(dp59
g19
S'curve'
p60
sS'x'
I282
sg16
I01
sS'y'
I802
s(dp61
S'y'
I841
sS'x'
I362
sg16
I00
s(dp62
S'y'
I867
sS'x'
I478
sg16
I00
s(dp63
g19
S'curve'
p64
sS'x'
I585
sg16
I01
sS'y'
I867
s(dp65
S'y'
I867
sS'x'
I718
sg16
I00
s(dp66
S'y'
I807
sS'x'
I776
sg16
I00
s(dp67
g19
S'curve'
p68
sS'x'
I776
sg16
I01
sS'y'
I689
s(dp69
g19
S'line'
p70
sS'x'
I776
sg16
I00
sS'y'
I579
s(dp71
S'y'
I579
sS'x'
I776
sg16
I00
s(dp72
S'y'
I567
sS'x'
I679
sg16
I00
s(dp73
g19
S'curve'
p74
sS'x'
I678
sg16
I01
sS'y'
I567
s(dp75
S'y'
I531
sS'x'
I429
sg16
I00
s(dp76
S'y'
I497
sS'x'
I184
sg16
I00
s(dp77
g19
S'curve'
p78
sS'x'
I184
sg16
I01
sS'y'
I243
s(dp79
S'y'
I62
sS'x'
I184
sg16
I00
s(dp80
S'y'
I-22
sS'x'
I318
sg16
I00
s(dp81
g19
S'curve'
p82
sS'x'
I477
sg16
I01
sS'y'
I-22
stp83
stp84
sS'components'
p85
(tsS'anchors'
p86
((dp87
S'y'
F9
sS'x'
F799
sg6
S'ogonek'
p88
s(dp89
S'y'
F969
sS'x'
F436
sg6
S'top'
p90
stp91
sss."
LayerCount: 2
Fore
SplineSet
549 992 m 0
 261 992 97 760 97 483 c 0
 97 205 258 -22 546 -22 c 0
 832 -22 987 216 987 484 c 0
 987 763 840 992 549 992 c 0
549 100 m 0
 340 100 248 285 248 480 c 0
 248 678 341 870 546 870 c 0
 760 870 836 688 836 483 c 0
 836 285 754 100 549 100 c 0
543 969 m 0
EndSplineSet
EndChar

StartChar: oslash
Encoding: 248 248 382
Width: 1179
VWidth: 0
Flags: W
PickledData: "(dp1
S'com.typemytype.robofont.layerData'
p2
(dp3
S'back'
p4
(dp5
S'name'
p6
S'oslash'
p7
sS'lib'
p8
(dp9
sS'unicodes'
p10
(tsS'width'
p11
I1179
sS'contours'
p12
(tsS'components'
p13
(tsS'anchors'
p14
(tsss."
LayerCount: 2
Fore
SplineSet
928 547 m 0
 928 780 841 986 594 986 c 0
 358 986 250 768 250 544 c 0
 250 323 357 113 597 113 c 0
 834 113 928 323 928 547 c 0
1102 549 m 0
 1102 245 923 -25 594 -25 c 0
 262 -25 77 232 77 547 c 0
 77 861 265 1124 597 1124 c 0
 933 1124 1102 865 1102 549 c 0
590 1098 m 1
 590 1098 l 1
590 1098 m 1
 590 1098 l 1
602 997 m 1
 602 997 l 1
602 997 m 1
 602 997 l 1
894 1367 m 1
 971 1336 l 1
 286 -275 l 1
 215 -237 l 1
 894 1367 l 1
595 1098 m 1
 595 1098 l 1
595 1098 m 1
 595 1098 l 1
595 1098 m 1
 595 1098 l 1
595 1098 m 0
EndSplineSet
EndChar

StartChar: p
Encoding: 112 112 384
Width: 1167
VWidth: 0
Flags: W
PickledData: "(dp1
S'com.typemytype.robofont.layerData'
p2
(dp3
S'back'
p4
(dp5
S'name'
p6
S'p'
sS'lib'
p7
(dp8
sS'unicodes'
p9
(tsS'width'
p10
I1167
sS'contours'
p11
(tsS'components'
p12
(tsS'anchors'
p13
(tsss."
LayerCount: 2
Fore
SplineSet
288 548 m 0
 288 313 376 118 605 118 c 0
 835 118 917 349 917 548 c 0
 917 747 835 982 605 982 c 0
 376 982 288 785 288 548 c 0
123 -459 m 1
 123 1098 l 1
 281 1098 l 1
 291 951 l 1
 375 1064 485 1124 630 1124 c 0
 954 1124 1090 854 1090 537 c 0
 1090 240 916 -25 630 -25 c 0
 490 -25 367 33 291 160 c 1
 291 -437 l 1
 123 -459 l 1
EndSplineSet
EndChar

StartChar: paragraph
Encoding: 182 182 385
Width: 1068
VWidth: 0
Flags: W
PickledData: "(dp1
S'com.typemytype.robofont.layerData'
p2
(dp3
S'back'
p4
(dp5
S'name'
p6
S'paragraph'
p7
sS'lib'
p8
(dp9
sS'unicodes'
p10
(tsS'width'
p11
I1068
sS'contours'
p12
(tsS'components'
p13
(tsS'anchors'
p14
(tsss."
LayerCount: 2
Fore
SplineSet
518 -158 m 1
 393 -158 l 1
 393 957 l 1
 235 960 57 1037 57 1258 c 0
 57 1530 312 1561 561 1561 c 2
 937 1561 l 1
 927 1430 l 1
 852 1430 l 1
 852 -158 l 1
 737 -158 l 1
 737 1430 l 1
 518 1430 l 1
 518 -158 l 1
EndSplineSet
EndChar

StartChar: parenleft
Encoding: 40 40 386
Width: 612
VWidth: 0
Flags: W
LayerCount: 2
Fore
SplineSet
125 636 m 0
 125 954 221 1241 370 1510 c 1
 518 1510 l 1
 373 1243 290 951 290 642 c 0
 290 357 379 33 520 -218 c 1
 373 -218 l 1
 232 22 125 330 125 636 c 0
EndSplineSet
EndChar

StartChar: parenright
Encoding: 41 41 387
Width: 612
VWidth: 0
Flags: W
LayerCount: 2
Fore
SplineSet
238 -218 m 1
 93 -218 l 1
 232 33 322 356 322 642 c 0
 322 951 238 1243 93 1510 c 1
 241 1510 l 1
 388 1240 488 955 488 636 c 0
 488 329 378 24 238 -218 c 1
EndSplineSet
EndChar

StartChar: partialdiff
Encoding: 8706 8706 388
Width: 1208
VWidth: 0
Flags: W
LayerCount: 2
Fore
SplineSet
301 1405 m 1
 288 1553 l 1
 372 1610 486 1652 609 1652 c 0
 907 1652 1069 1421 1069 917 c 0
 1069 453 905 -28 510 -28 c 0
 234 -28 113 182 113 452 c 0
 113 806 317 1077 606 1077 c 0
 743 1077 849 1014 917 901 c 1
 917 920 918 952 918 980 c 0
 918 1305 802 1507 585 1507 c 0
 483 1507 381 1461 301 1405 c 1
511 119 m 0
 728 119 872 383 904 705 c 1
 869 826 775 935 631 935 c 0
 423 935 261 711 261 450 c 0
 261 250 358 119 511 119 c 0
EndSplineSet
EndChar

StartChar: percent
Encoding: 37 37 389
Width: 1877
VWidth: 0
Flags: W
PickledData: "(dp1
S'com.typemytype.robofont.layerData'
p2
(dp3
S'back'
p4
(dp5
S'name'
p6
S'percent'
p7
sS'lib'
p8
(dp9
sS'unicodes'
p10
(tsS'width'
p11
I1877
sS'contours'
p12
(tsS'components'
p13
(tsS'anchors'
p14
(tsss."
LayerCount: 2
Fore
SplineSet
443 1403 m 0
 293 1403 217 1267 217 1126 c 0
 217 980 295 850 443 850 c 0
 593 850 669 985 669 1126 c 0
 669 1272 591 1403 443 1403 c 0
443 1511 m 0
 675 1511 796 1347 796 1126 c 0
 796 910 672 742 443 742 c 0
 212 742 91 910 91 1126 c 0
 91 1344 215 1511 443 1511 c 0
403 0 m 1
 1331 1496 l 1
 1475 1496 l 1
 544 0 l 1
 403 0 l 1
1433 646 m 0
 1283 646 1207 510 1207 369 c 0
 1207 223 1285 93 1433 93 c 0
 1583 93 1659 228 1659 369 c 0
 1659 515 1581 646 1433 646 c 0
1433 754 m 0
 1665 754 1786 590 1786 369 c 0
 1786 153 1662 -15 1433 -15 c 0
 1202 -15 1081 153 1081 369 c 0
 1081 587 1205 754 1433 754 c 0
EndSplineSet
EndChar

StartChar: period
Encoding: 46 46 390
Width: 494
VWidth: 0
Flags: W
LayerCount: 2
Fore
SplineSet
261 -12 m 0
 350 -12 394 54 394 120 c 0
 394 186 350 252 261 252 c 0
 172 252 128 186 128 120 c 0
 128 54 173 -12 261 -12 c 0
EndSplineSet
EndChar

StartChar: periodcentered
Encoding: 183 183 391
Width: 468
VWidth: 0
Flags: W
LayerCount: 2
Fore
SplineSet
237 796 m 0
 326 796 370 730 370 664 c 0
 370 598 326 532 237 532 c 0
 149 532 104 598 104 664 c 0
 104 730 149 796 237 796 c 0
EndSplineSet
EndChar

StartChar: perthousand
Encoding: 8240 8240 392
Width: 2303
VWidth: 0
Flags: W
LayerCount: 2
Fore
SplineSet
395 -22 m 1
 259 -22 l 1
 1115 1547 l 1
 1272 1547 l 1
 395 -22 l 1
404 1438 m 0
 291 1438 237 1319 237 1180 c 0
 237 1033 292 919 408 919 c 0
 519 919 574 1039 574 1178 c 0
 574 1325 519 1438 404 1438 c 0
1105 610 m 0
 972 610 908 493 908 354 c 0
 908 207 974 93 1107 93 c 0
 1240 93 1305 217 1305 354 c 0
 1305 500 1242 610 1105 610 c 0
1104 -30 m 0
 884 -30 777 124 777 354 c 0
 777 572 883 735 1107 735 c 0
 1331 735 1434 584 1434 352 c 0
 1434 136 1325 -30 1104 -30 c 0
404 796 m 0
 214 796 108 950 108 1180 c 0
 108 1399 214 1559 406 1559 c 0
 600 1559 702 1410 702 1176 c 0
 702 960 593 796 404 796 c 0
1876 -30 m 0
 1658 -30 1550 124 1550 354 c 0
 1550 572 1658 735 1881 735 c 0
 2101 735 2207 588 2207 352 c 0
 2207 136 2097 -30 1876 -30 c 0
1879 610 m 0
 1743 610 1677 493 1677 354 c 0
 1677 207 1744 93 1881 93 c 0
 2014 93 2081 214 2081 354 c 0
 2081 497 2011 610 1879 610 c 0
EndSplineSet
EndChar

StartChar: phi
Encoding: 966 966 393
Width: 468
VWidth: 0
Flags: W
LayerCount: 2
Fore
SplineSet
237 796 m 0
 326 796 370 730 370 664 c 0
 370 598 326 532 237 532 c 0
 149 532 104 598 104 664 c 0
 104 730 149 796 237 796 c 0
EndSplineSet
EndChar

StartChar: pi
Encoding: 960 960 394
Width: 1456
VWidth: 0
Flags: W
LayerCount: 2
Fore
SplineSet
1296 1120 m 1
 1296 976 l 1
 1114 976 l 1
 1114 312 l 2
 1114 248 1116 158 1202 158 c 0
 1221 158 1245 164 1274 172 c 1
 1274 149 1268 131 1268 108 c 0
 1268 73 1273 42 1282 6 c 1
 1237 -2 1195 -8 1160 -8 c 0
 1020 -8 976 79 976 301 c 2
 976 976 l 1
 570 976 l 1
 564 825 555 685 544 556 c 0
 525 335 494 91 446 0 c 1
 298 0 l 1
 386 189 412 663 420 976 c 1
 313 973 241 954 176 911 c 1
 160 1053 l 1
 219 1109 313 1120 470 1120 c 2
 1296 1120 l 1
EndSplineSet
EndChar

StartChar: plus
Encoding: 43 43 395
Width: 1081
VWidth: 0
Flags: W
LayerCount: 2
Fore
SplineSet
101 646 m 1
 101 512 l 1
 484 512 l 1
 484 80 l 1
 619 80 l 1
 619 512 l 1
 989 512 l 1
 989 646 l 1
 621 646 l 1
 621 1065 l 1
 487 1065 l 1
 487 646 l 1
 101 646 l 1
EndSplineSet
EndChar

StartChar: plusminus
Encoding: 177 177 396
Width: 1234
VWidth: 0
Flags: W
LayerCount: 2
Fore
SplineSet
133 789 m 1
 550 789 l 1
 550 1193 l 1
 683 1193 l 1
 683 789 l 1
 1108 789 l 1
 1108 642 l 1
 687 642 l 1
 687 240 l 1
 553 240 l 1
 553 642 l 1
 133 642 l 1
 133 789 l 1
1111 0 m 1
 133 0 l 1
 133 148 l 1
 1111 148 l 1
 1111 0 l 1
EndSplineSet
EndChar

StartChar: product
Encoding: 8719 8719 397
Width: 1463
VWidth: 0
Flags: W
LayerCount: 2
Fore
SplineSet
1139 1342 m 1
 324 1342 l 1
 324 0 l 1
 147 0 l 1
 147 1496 l 1
 1316 1496 l 1
 1316 0 l 1
 1139 0 l 1
 1139 1342 l 1
EndSplineSet
EndChar

StartChar: psi
Encoding: 968 968 398
Width: 468
VWidth: 0
Flags: W
LayerCount: 2
Fore
SplineSet
237 796 m 0
 326 796 370 730 370 664 c 0
 370 598 326 532 237 532 c 0
 149 532 104 598 104 664 c 0
 104 730 149 796 237 796 c 0
EndSplineSet
EndChar

StartChar: q
Encoding: 113 113 399
Width: 1172
VWidth: 0
Flags: W
PickledData: "(dp1
S'com.typemytype.robofont.layerData'
p2
(dp3
S'back'
p4
(dp5
S'name'
p6
S'q'
sS'lib'
p7
(dp8
sS'unicodes'
p9
(tsS'width'
p10
I1172
sS'contours'
p11
(tsS'components'
p12
(tsS'anchors'
p13
(tsss."
LayerCount: 2
Fore
SplineSet
886 551 m 0
 886 317 793 123 559 123 c 0
 323 123 250 346 250 551 c 0
 250 748 322 976 558 976 c 0
 790 976 886 783 886 551 c 0
538.944 -25.0857 m 0
 691.783 -25.0857 814.334 50.3445 883 171 c 1
 883 -459 l 1
 1051 -439 l 1
 1051 1098 l 1
 886 1098 l 1
 886 938 l 1
 815 1049 704 1124 551 1124 c 0
 230 1124 77 855 77 538 c 0
 77 243.682 233.96 -25.0857 538.944 -25.0857 c 0
EndSplineSet
EndChar

StartChar: question
Encoding: 63 63 400
Width: 865
VWidth: 0
Flags: W
LayerCount: 2
Fore
SplineSet
242 120 m 0
 242 186 287 252 375 252 c 0
 464 252 508 186 508 120 c 0
 508 54 464 -12 375 -12 c 0
 287 -12 242 54 242 120 c 0
404 435 m 1
 317 435 l 1
 317 668 602 989 602 1186 c 1
 600 1318 510 1373 377 1373 c 0
 257 1373 166 1322 118 1292 c 1
 73 1427 l 1
 163 1498 293 1524 404 1524 c 0
 614 1524 765 1408 765 1200 c 0
 765 927 554 770 404 435 c 1
EndSplineSet
EndChar

StartChar: quotedbl
Encoding: 34 34 402
Width: 710
VWidth: 0
Flags: W
LayerCount: 2
Fore
SplineSet
160 1016 m 1
 139 1510 l 1
 290 1510 l 1
 261 1016 l 1
 160 1016 l 1
446 1016 m 1
 425 1510 l 1
 576 1510 l 1
 547 1016 l 1
 446 1016 l 1
EndSplineSet
EndChar

StartChar: quotedblbase
Encoding: 8222 8222 403
Width: 819
VWidth: 0
Flags: W
LayerCount: 2
Fore
SplineSet
441 -256 m 1
 532 216 l 1
 694 216 l 1
 559 -256 l 1
 441 -256 l 1
126 -256 m 1
 216 216 l 1
 377 216 l 1
 244 -256 l 1
 126 -256 l 1
EndSplineSet
EndChar

StartChar: quotedblleft
Encoding: 8220 8220 404
Width: 818
VWidth: 0
Flags: W
LayerCount: 2
Fore
SplineSet
129 1102 m 1
 263 1574 l 1
 383 1574 l 1
 289 1102 l 1
 129 1102 l 1
438 1102 m 1
 573 1574 l 1
 690 1574 l 1
 600 1102 l 1
 438 1102 l 1
EndSplineSet
EndChar

StartChar: quotedblright
Encoding: 8221 8221 405
Width: 795
VWidth: 0
Flags: W
LayerCount: 2
Fore
SplineSet
420 1102 m 1
 511 1574 l 1
 674 1574 l 1
 537 1102 l 1
 420 1102 l 1
133 1102 m 1
 226 1574 l 1
 385 1574 l 1
 250 1102 l 1
 133 1102 l 1
EndSplineSet
EndChar

StartChar: quoteleft
Encoding: 8216 8216 406
Width: 510
VWidth: 0
Flags: W
LayerCount: 2
Fore
SplineSet
382 1574 m 1
 291 1102 l 1
 129 1102 l 1
 265 1574 l 1
 382 1574 l 1
EndSplineSet
EndChar

StartChar: quoteright
Encoding: 8217 8217 407
Width: 504
VWidth: 0
Flags: W
LayerCount: 2
Fore
SplineSet
249 1102 m 1
 133 1102 l 1
 226 1574 l 1
 383 1574 l 1
 249 1102 l 1
EndSplineSet
EndChar

StartChar: quotesinglbase
Encoding: 8218 8218 408
Width: 504
VWidth: 0
Flags: W
LayerCount: 2
Fore
SplineSet
126 -256 m 1
 218 216 l 1
 379 216 l 1
 245 -256 l 1
 126 -256 l 1
EndSplineSet
EndChar

StartChar: quotesingle
Encoding: 39 39 409
Width: 393
VWidth: 0
Flags: W
LayerCount: 2
Fore
SplineSet
248 1016 m 1
 143 1016 l 1
 122 1510 l 1
 277 1510 l 1
 248 1016 l 1
EndSplineSet
EndChar

StartChar: r
Encoding: 114 114 410
Width: 654
VWidth: 0
Flags: W
PickledData: "(dp1
S'com.typemytype.robofont.layerData'
p2
(dp3
S'back'
p4
(dp5
S'name'
p6
S'r'
sS'lib'
p7
(dp8
sS'unicodes'
p9
(tsS'width'
p10
I654
sS'contours'
p11
(tsS'components'
p12
(tsS'anchors'
p13
(tsss."
LayerCount: 2
Fore
SplineSet
123 0 m 1
 291 0 l 1
 291 644 l 2
 291 808 394 945 599 945 c 2
 639 945 l 1
 627 1098 l 1
 595 1098 l 2
 466 1098 352 1049 275 908 c 1
 262 1098 l 1
 120 1098 l 1
 120 1015 123 932 123 845 c 2
 123 0 l 1
330 1098 m 0
330 0 m 0
330 1098 m 0
330 0 m 0
330 1098 m 0
330 0 m 0
330 1098 m 0
330 0 m 0
EndSplineSet
EndChar

StartChar: radical
Encoding: 8730 8730 412
Width: 1216
VWidth: 0
Flags: W
LayerCount: 2
Fore
SplineSet
1035 1718 m 1
 1148 1718 l 1
 708 -166 l 1
 569 -166 l 1
 236 743 l 1
 84 712 l 1
 68 833 l 1
 328 889 l 1
 569 230 l 1
 628 44 l 1
 763.202333333 602.466333333 898.869 1160.46633333 1035 1718 c 1
EndSplineSet
EndChar

StartChar: registered
Encoding: 174 174 415
Width: 1824
VWidth: 0
Flags: W
LayerCount: 2
Fore
SplineSet
914 716 m 1
 731 716 l 1
 731 301 l 1
 599 301 l 1
 599 1277 l 1
 857 1277 l 2
 1158 1277 1300 1184 1300 1007 c 0
 1300 877 1237 759 1040 735 c 1
 1132 662 1181 531 1320 301 c 1
 1171 301 l 1
 1046 525 l 2
 995 618 961 680 914 716 c 1
857 843 m 2
 1041 843 1141 871 1141 999 c 0
 1141 1131 1055 1149 847 1149 c 2
 731 1149 l 1
 731 843 l 1
 857 843 l 2
902 67 m 0
 1353 67 1588 387 1588 778 c 0
 1588 1168 1350 1493 897 1493 c 0
 468 1493 230 1169 230 783 c 0
 230 389 469 67 902 67 c 0
1701 781 m 0
 1701 242 1317 -26 902 -26 c 0
 510 -26 117 242 117 781 c 0
 117 1318 505 1586 897 1586 c 0
 1312 1586 1701 1316 1701 781 c 0
EndSplineSet
EndChar

StartChar: ring
Encoding: 730 730 417
Width: 634
VWidth: 0
Flags: W
LayerCount: 2
Fore
SplineSet
320 1638 m 0
 219 1638 125 1561 125 1442 c 0
 125 1327 218 1257 322 1257 c 0
 421 1257 514 1327 514 1442 c 0
 514 1554 424 1638 320 1638 c 0
320 1330 m 0
 259 1330 221 1375 221 1442 c 0
 221 1503 269 1557 320 1557 c 0
 375 1557 416 1503 416 1442 c 0
 416 1381 371 1330 320 1330 c 0
319.5 1098 m 0
319.5 1098 m 0
319.5 1098 m 0
319.5 1098 m 0
EndSplineSet
EndChar

StartChar: s
Encoding: 115 115 418
Width: 936
VWidth: 0
Flags: W
PickledData: "(dp1
S'com.typemytype.robofont.layerData'
p2
(dp3
S'back'
p4
(dp5
S'name'
p6
S's'
sS'lib'
p7
(dp8
sS'unicodes'
p9
(tsS'width'
p10
I936
sS'contours'
p11
(tsS'components'
p12
(tsS'anchors'
p13
(tsss."
LayerCount: 2
Fore
SplineSet
854 294 m 0
 854 296 854 298 854 299 c 0
 854 481 755 574 577 622 c 2
 426 663 l 1
 308 694 270 748 269 815 c 1
 269 928 358 990 479 991 c 0
 599 991 699 956 759 932 c 1
 799 1053 l 1
 715 1096 608 1124 467 1124 c 1
 222 1122 100 970 100 816 c 1
 102 682 165 573 384 512 c 2
 531 471 l 2
 654 437 697 372 697 302 c 0
 697 298 697 294 697 290 c 0
 687 176 607 114 482 114 c 0
 477 114 471 114 465 114 c 0
 316 114 195 180 154 206 c 1
 111 78 l 1
 177 29 323 -25 491 -25 c 0
 699 -25 847 88 854 294 c 0
467 1098 m 0
467 0 m 0
EndSplineSet
EndChar

StartChar: section
Encoding: 167 167 424
Width: 978
VWidth: 0
Flags: W
LayerCount: 2
Fore
SplineSet
536 589 m 1
 603 632 685 693 685 778 c 0
 685 903 524 935 436 980 c 1
 368 938 300 884 300 798 c 0
 300 692 395 648 536 589 c 1
773 1563 m 1
 774 1405 l 1
 718 1437 621 1460 556 1460 c 0
 429 1460 331 1418 331 1314 c 0
 331 1228 383 1177 558 1100 c 1
 718 1025 841 946 841 794 c 0
 841 676 763 580 676 517 c 1
 760 464 822 398 822 272 c 0
 822 64 645 -50 424 -50 c 0
 329 -50 243 -35 167 4 c 1
 167 166 l 1
 252 119 336 95 419 95 c 0
 575 95 667 169 667 262 c 0
 667 357 588 388 448 450 c 1
 360 490 l 1
 223 557 144 648 144 785 c 0
 144 909 220 997 311 1050 c 1
 225 1115 176 1184 176 1310 c 0
 176 1509 330 1608 550 1608 c 0
 639 1608 702 1591 773 1563 c 1
EndSplineSet
EndChar

StartChar: semicolon
Encoding: 59 59 425
Width: 518
VWidth: 0
Flags: W
LayerCount: 2
Fore
SplineSet
376 197 m 1
 251 -310 l 1
 138 -310 l 1
 194 197 l 1
 376 197 l 1
174 893 m 1
 174 1124 l 1
 380 1124 l 1
 380 893 l 1
 174 893 l 1
EndSplineSet
EndChar

StartChar: seven
Encoding: 55 55 426
Width: 1052
VWidth: 0
Flags: W
PickledData: "(dp1
S'com.typemytype.robofont.layerData'
p2
(dp3
S'back'
p4
(dp5
S'name'
p6
S'seven'
p7
sS'lib'
p8
(dp9
sS'unicodes'
p10
(tsS'width'
p11
I1052
sS'contours'
p12
(tsS'components'
p13
(tsS'anchors'
p14
(tsss."
LayerCount: 2
Fore
SplineSet
261 0 m 1
 775 1341 l 1
 100 1341 l 1
 111 1496 l 1
 978 1496 l 1
 978 1360 l 1
 443 0 l 1
 261 0 l 1
EndSplineSet
EndChar

StartChar: sigma
Encoding: 963 963 427
Width: 468
VWidth: 0
Flags: W
LayerCount: 2
Fore
SplineSet
237 796 m 0
 326 796 370 730 370 664 c 0
 370 598 326 532 237 532 c 0
 149 532 104 598 104 664 c 0
 104 730 149 796 237 796 c 0
EndSplineSet
EndChar

StartChar: sigma1
Encoding: 962 962 428
Width: 468
VWidth: 0
Flags: W
LayerCount: 2
Fore
SplineSet
237 796 m 0
 326 796 370 730 370 664 c 0
 370 598 326 532 237 532 c 0
 149 532 104 598 104 664 c 0
 104 730 149 796 237 796 c 0
EndSplineSet
EndChar

StartChar: six
Encoding: 54 54 429
Width: 1199
VWidth: 0
Flags: W
PickledData: "(dp1
S'com.typemytype.robofont.layerData'
p2
(dp3
S'back'
p4
(dp5
S'name'
p6
S'six'
p7
sS'lib'
p8
(dp9
sS'unicodes'
p10
(tsS'width'
p11
I1199
sS'contours'
p12
(tsS'components'
p13
(tsS'anchors'
p14
(tsss."
LayerCount: 2
Fore
SplineSet
292 453 m 0
 292 280 395 129 601 129 c 0
 806 129 918 274 918 446 c 0
 918 630 803 771 601 771 c 0
 379 771 292 625 292 453 c 0
637 921 m 0
 889 921 1107 725 1107 449 c 0
 1107 182 913 -23 607 -23 c 0
 287 -23 103 202 103 472 c 0
 103 697 178 837 378 1089 c 0
 463 1197 707 1489 707 1489 c 1
 938 1489 l 1
 412 861 l 1
 476 895 557 921 637 921 c 0
EndSplineSet
EndChar

StartChar: slash
Encoding: 47 47 430
Width: 952
VWidth: 0
Flags: W
LayerCount: 2
Fore
SplineSet
194 -218 m 1
 50 -218 l 1
 726 1466 l 1
 872 1466 l 1
 194 -218 l 1
EndSplineSet
EndChar

StartChar: sterling
Encoding: 163 163 432
Width: 1127
VWidth: 0
Flags: W
PickledData: "(dp1
S'com.typemytype.robofont.layerData'
p2
(dp3
S'back'
p4
(dp5
S'name'
p6
S'sterling'
p7
sS'lib'
p8
(dp9
sS'unicodes'
p10
(tsS'width'
p11
I1127
sS'contours'
p12
(tsS'components'
p13
(tsS'anchors'
p14
(tsss."
LayerCount: 2
Fore
SplineSet
103 707 m 1
 103 849 l 1
 277 849 l 1
 277 935 l 2
 277 1245 326 1525 716 1525 c 0
 889 1525 1003 1446 1070 1349 c 1
 975 1242 l 1
 903 1325 828 1373 716 1373 c 0
 520 1373 453 1222 453 1008 c 2
 453 849 l 1
 851 849 l 1
 851 707 l 1
 453 707 l 1
 453 530 l 2
 453 390 434 240 348 152 c 1
 380 156 405 162 437 162 c 2
 1051 162 l 1
 1039 0 l 1
 135 0 l 1
 113 137 l 1
 249 209 277 311 277 467 c 2
 277 707 l 1
 103 707 l 1
EndSplineSet
EndChar

StartChar: summation
Encoding: 8721 8721 433
Width: 1064
VWidth: 0
Flags: W
PickledData: "(dp1
S'com.typemytype.robofont.layerData'
p2
(dp3
S'back'
p4
(dp5
S'name'
p6
S'summation'
p7
sS'lib'
p8
(dp9
sS'unicodes'
p10
(tsS'width'
p11
I1064
sS'contours'
p12
(tsS'components'
p13
(tsS'anchors'
p14
(tsss."
LayerCount: 2
Fore
SplineSet
1013 161 m 1
 1000 0 l 1
 82 0 l 1
 82 139 l 1
 524 833 l 1
 104 1354 l 1
 104 1496 l 1
 960 1496 l 1
 960 1343 l 1
 304 1343 l 1
 721 832 l 1
 287 161 l 1
 1013 161 l 1
EndSplineSet
EndChar

StartChar: t
Encoding: 116 116 434
Width: 691
VWidth: 0
Flags: W
PickledData: "(dp1
S'com.typemytype.robofont.layerData'
p2
(dp3
S'back'
p4
(dp5
S'name'
p6
S't'
sS'lib'
p7
(dp8
sS'unicodes'
p9
(tsS'width'
p10
I691
sS'contours'
p11
((dp12
S'points'
p13
((dp14
S'segmentType'
p15
S'move'
p16
sS'x'
F362
sS'smooth'
p17
I00
sS'y'
F-1
stp18
s(dp19
g13
((dp20
g15
S'move'
p21
sS'x'
F362
sg17
I00
sS'y'
F1098
stp22
s(dp23
g13
((dp24
g15
S'move'
p25
sS'x'
F617
sg17
I00
sS'y'
F1098
stp26
s(dp27
g13
((dp28
g15
S'move'
p29
sS'x'
F362
sg17
I00
sS'y'
F1098
stp30
s(dp31
g13
((dp32
g15
S'line'
p33
sS'x'
F376
sg17
I00
sS'y'
F1495
s(dp34
g15
S'line'
p35
sS'x'
F376
sg17
I01
sS'y'
F431
s(dp36
S'y'
F192
sS'x'
F376
sg17
I00
s(dp37
S'y'
F117
sS'x'
F383
sg17
I00
s(dp38
g15
S'curve'
p39
sS'x'
F497
sg17
I01
sS'y'
F117
s(dp40
S'y'
F117
sS'x'
F522
sg17
I00
s(dp41
S'y'
F119
sS'x'
F535
sg17
I00
s(dp42
g15
S'curve'
p43
sS'x'
F587
sg17
I00
sS'y'
F123
s(dp44
g15
S'line'
p45
sS'x'
F598
sg17
I00
sS'y'
F-8
s(dp46
S'y'
F-18
sS'x'
F541
sg17
I00
s(dp47
S'y'
F-21
sS'x'
F501
sg17
I00
s(dp48
g15
S'curve'
p49
sS'x'
F484
sg17
I01
sS'y'
F-21
s(dp50
S'y'
F-21
sS'x'
F214
sg17
I00
s(dp51
S'y'
F104
sS'x'
F208
sg17
I00
s(dp52
g15
S'curve'
p53
sS'x'
F208
sg17
I01
sS'y'
F468
s(dp54
g15
S'line'
p55
sS'x'
F208
sg17
I00
sS'y'
F1476
stp56
s(dp57
g13
((dp58
g15
S'move'
p59
sS'x'
F617
sg17
I00
sS'y'
F1098
stp60
s(dp61
g13
((dp62
g15
S'move'
p63
sS'x'
F362
sg17
I00
sS'y'
F1098
stp64
stp65
sS'components'
p66
(tsS'anchors'
p67
((dp68
S'y'
F1098
sS'x'
F295
sg6
S'top'
p69
s(dp70
S'y'
F1098
sS'x'
F550
sg6
S'topright'
p71
s(dp72
S'y'
F0
sS'x'
F295
sg6
S'bottom'
p73
stp74
sss."
LayerCount: 2
Fore
SplineSet
358 980 m 1
 358 367 l 2
 358 162 383 118 517 118 c 0
 536 118 576 123 653 129 c 1
 668 -7 l 1
 543 -18 512 -20 478 -20 c 0
 211 -20 190 111 190 445 c 2
 190 980 l 1
 23 980 l 1
 36 1098 l 1
 190 1098 l 1
 234 1453 l 1
 358 1462 l 1
 358 1098 l 1
 649 1098 l 1
 649 980 l 1
 358 980 l 1
362 0 m 0
362 549 m 0
EndSplineSet
EndChar

StartChar: tau
Encoding: 964 964 435
Width: 468
VWidth: 0
Flags: W
LayerCount: 2
Fore
SplineSet
237 796 m 0
 326 796 370 730 370 664 c 0
 370 598 326 532 237 532 c 0
 149 532 104 598 104 664 c 0
 104 730 149 796 237 796 c 0
EndSplineSet
EndChar

StartChar: tbar
Encoding: 359 359 436
Width: 677
VWidth: 0
Flags: W
PickledData: "(dp1
S'com.typemytype.robofont.layerData'
p2
(dp3
S'back'
p4
(dp5
S'name'
p6
S'tbar'
p7
sS'lib'
p8
(dp9
sS'unicodes'
p10
(tsS'width'
p11
I677
sS'contours'
p12
(tsS'components'
p13
(tsS'anchors'
p14
(tsss."
LayerCount: 2
Fore
SplineSet
38 638 m 1
 38 764 l 1
 570 764 l 1
 570 638 l 1
 38 638 l 1
EndSplineSet
Refer: 434 116 N 1 0 0 1 0 0 2
EndChar

StartChar: theta
Encoding: 952 952 438
Width: 468
VWidth: 0
Flags: W
LayerCount: 2
Fore
SplineSet
237 796 m 0
 326 796 370 730 370 664 c 0
 370 598 326 532 237 532 c 0
 149 532 104 598 104 664 c 0
 104 730 149 796 237 796 c 0
EndSplineSet
EndChar

StartChar: thorn
Encoding: 254 254 439
Width: 1205
VWidth: 0
Flags: W
PickledData: "(dp1
S'com.typemytype.robofont.layerData'
p2
(dp3
S'back'
p4
(dp5
S'name'
p6
S'thorn'
p7
sS'lib'
p8
(dp9
sS'unicodes'
p10
(tsS'width'
p11
I1205
sS'contours'
p12
((dp13
S'points'
p14
((dp15
S'segmentType'
p16
S'line'
p17
sS'x'
I124
sS'smooth'
p18
I00
sS'y'
I-459
s(dp19
g16
S'line'
p20
sS'x'
I124
sg18
I00
sS'y'
I1098
s(dp21
g16
S'line'
p22
sS'x'
I282
sg18
I00
sS'y'
I1098
s(dp23
g16
S'line'
p24
sS'x'
I292
sg18
I00
sS'y'
I951
s(dp25
S'y'
I1064
sS'x'
I376
sg18
I00
s(dp26
S'y'
I1124
sS'x'
I486
sg18
I00
s(dp27
g16
S'curve'
p28
sS'x'
I631
sg18
I01
sS'y'
I1124
s(dp29
S'y'
I1124
sS'x'
I955
sg18
I00
s(dp30
S'y'
I854
sS'x'
I1091
sg18
I00
s(dp31
g16
S'curve'
p32
sS'x'
I1091
sg18
I01
sS'y'
I537
s(dp33
S'y'
I240
sS'x'
I1091
sg18
I00
s(dp34
S'y'
I-25
sS'x'
I917
sg18
I00
s(dp35
g16
S'curve'
p36
sS'x'
I631
sg18
I01
sS'y'
I-25
s(dp37
S'y'
I-25
sS'x'
I491
sg18
I00
s(dp38
S'y'
I33
sS'x'
I368
sg18
I00
s(dp39
g16
S'curve'
p40
sS'x'
I292
sg18
I00
sS'y'
I160
s(dp41
g16
S'line'
p42
sS'x'
I292
sg18
I00
sS'y'
I-437
stp43
s(dp44
g14
((dp45
g16
S'curve'
p46
sS'x'
I289
sg18
I01
sS'y'
I548
s(dp47
S'y'
I313
sS'x'
I289
sg18
I00
s(dp48
S'y'
I118
sS'x'
I377
sg18
I00
s(dp49
g16
S'curve'
p50
sS'x'
I606
sg18
I01
sS'y'
I118
s(dp51
S'y'
I118
sS'x'
I836
sg18
I00
s(dp52
S'y'
I349
sS'x'
I918
sg18
I00
s(dp53
g16
S'curve'
p54
sS'x'
I918
sg18
I01
sS'y'
I548
s(dp55
S'y'
I747
sS'x'
I918
sg18
I00
s(dp56
S'y'
I982
sS'x'
I836
sg18
I00
s(dp57
g16
S'curve'
p58
sS'x'
I606
sg18
I01
sS'y'
I982
s(dp59
S'y'
I982
sS'x'
I377
sg18
I00
s(dp60
S'y'
I785
sS'x'
I289
sg18
I00
stp61
stp62
sS'components'
p63
(tsS'anchors'
p64
(tsss."
LayerCount: 2
Fore
SplineSet
624 113 m 0
 385 113 290 320 290 551 c 0
 290 781 405 986 631 986 c 0
 860 986 926 743 926 551 c 0
 926 360 858 113 624 113 c 0
292 162 m 1
 367 34 491 -25 643 -25 c 0
 951 -25 1099 268 1099 560 c 0
 1099 879 919 1122 643 1124 c 1
 494 1124 378 1060 292 933 c 1
 292 1510 l 1
 124 1496 l 1
 124 1261.84091903 l 1
 124 -459 l 1
 292 -437 l 1
 292 162 l 1
EndSplineSet
EndChar

StartChar: three
Encoding: 51 51 440
Width: 1103
VWidth: 0
Flags: W
PickledData: "(dp1
S'com.typemytype.robofont.layerData'
p2
(dp3
S'back'
p4
(dp5
S'name'
p6
S'three'
p7
sS'lib'
p8
(dp9
sS'unicodes'
p10
(tsS'width'
p11
I1103
sS'contours'
p12
(tsS'components'
p13
(tsS'anchors'
p14
(tsss."
LayerCount: 2
Fore
SplineSet
824 412 m 0
 824 681 602 722 323 722 c 1
 323 871 l 1
 553 871 771 897 771 1133 c 0
 771 1298 673 1373 496 1373 c 0
 359 1373 240 1329 161 1266 c 1
 105 1412 l 1
 196 1481 327 1525 534 1525 c 0
 755 1525 963 1395 963 1156 c 0
 963 964 862 847 700 797 c 1
 883 757 999 620 999 410 c 0
 999 143 786 -23 496 -23 c 0
 302 -23 161 40 105 93 c 1
 161 237 l 1
 236 178 343 129 494 129 c 0
 690 129 824 230 824 412 c 0
EndSplineSet
EndChar

StartChar: threequarters
Encoding: 190 190 441
Width: 1630
VWidth: 0
Flags: W
PickledData: "(dp1
S'com.typemytype.robofont.layerData'
p2
(dp3
S'back'
p4
(dp5
S'name'
p6
S'threequarters'
p7
sS'lib'
p8
(dp9
sS'unicodes'
p10
(tsS'width'
p11
I1630
sS'contours'
p12
(tsS'components'
p13
(tsS'anchors'
p14
(tsss."
LayerCount: 2
Fore
SplineSet
1338 1495 m 1
 1472 1495 l 1
 409 0 l 1
 260 0 l 1
 1338 1495 l 1
EndSplineSet
Refer: 442 179 N 1 0 0 1 0 0 2
Refer: 292 8308 N 1 0 0 1 903 -609 2
EndChar

StartChar: threesuperior
Encoding: 179 179 442
Width: 756
VWidth: 0
Flags: W
PickledData: "(dp1
S'com.typemytype.robofont.layerData'
p2
(dp3
S'back'
p4
(dp5
S'name'
p6
S'threesuperior'
p7
sS'lib'
p8
(dp9
sS'unicodes'
p10
(tsS'width'
p11
I756
sS'contours'
p12
((dp13
S'points'
p14
((dp15
S'segmentType'
p16
S'line'
p17
sS'x'
I94
sS'smooth'
p18
I00
sS'y'
I641
s(dp19
g16
S'line'
p20
sS'x'
I575
sg18
I00
sS'y'
I641
s(dp21
g16
S'line'
p22
sS'x'
I586
sg18
I00
sS'y'
I761
s(dp23
g16
S'line'
p24
sS'x'
I245
sg18
I00
sS'y'
I761
s(dp25
S'y'
I948
sS'x'
I424
sg18
I00
s(dp26
S'y'
I1135
sS'x'
I615
sg18
I00
s(dp27
g16
S'curve'
p28
sS'x'
I615
sg18
I01
sS'y'
I1318
s(dp29
S'y'
I1486
sS'x'
I614
sg18
I00
s(dp30
S'y'
I1551
sS'x'
I483
sg18
I00
s(dp31
g16
S'curve'
p32
sS'x'
I352
sg18
I01
sS'y'
I1551
s(dp33
S'y'
I1551
sS'x'
I280
sg18
I00
s(dp34
S'y'
I1528
sS'x'
I175
sg18
I00
s(dp35
g16
S'curve'
p36
sS'x'
I102
sg18
I00
sS'y'
I1477
s(dp37
S'y'
I1477
sS'x'
I102
sg18
I00
s(dp38
S'y'
I1361
sS'x'
I149
sg18
I00
s(dp39
g16
S'curve'
p40
sS'x'
I149
sg18
I00
sS'y'
I1360
s(dp41
S'y'
I1404
sS'x'
I207
sg18
I00
s(dp42
S'y'
I1424
sS'x'
I294
sg18
I00
s(dp43
g16
S'curve'
p44
sS'x'
I345
sg18
I01
sS'y'
I1424
s(dp45
S'y'
I1424
sS'x'
I424
sg18
I00
s(dp46
S'y'
I1376
sS'x'
I475
sg18
I00
s(dp47
g16
S'curve'
p48
sS'x'
I475
sg18
I01
sS'y'
I1303
s(dp49
S'y'
I1183
sS'x'
I475
sg18
I00
s(dp50
S'y'
I991
sS'x'
I287
sg18
I00
s(dp51
g16
S'curve'
p52
sS'x'
I73
sg18
I00
sS'y'
I750
stp53
stp54
sS'components'
p55
(tsS'anchors'
p56
(tsss."
LayerCount: 2
Fore
SplineSet
352 1424 m 0
 409 1424 489 1387 489 1303 c 0
 489 1206 405 1174 304 1174 c 2
 260 1174 l 1
 260 1057 l 1
 308 1057 l 2
 426.755728607 1057 498 972 498 886 c 0
 498 797 414 753 349 753 c 0
 293 753 218 763 158 817 c 1
 112 720 l 1
 174 653 266 631 350 631 c 0
 496 631 629 722 629 891 c 0
 629 993 561 1074 462 1114 c 1
 573 1156 615 1233 615 1317 c 0
 615 1473 499 1551 354 1551 c 0
 269 1551 159 1521 102 1476 c 1
 149 1360 l 1
 218 1409 288 1424 352 1424 c 0
EndSplineSet
EndChar

StartChar: tilde
Encoding: 732 732 443
Width: 885
VWidth: 0
Flags: W
LayerCount: 2
Fore
SplineSet
222 1291 m 1
 115 1291 l 1
 115 1441 180 1510 287 1510 c 0
 411 1510 543 1416 580 1416 c 2
 582 1416 l 1
 622 1419 626 1468 629 1510 c 1
 738 1510 l 1
 738 1373 695 1291 589 1291 c 0
 499 1291 357 1388 279 1388 c 2
 277 1388 l 1
 244 1387 225 1346 222 1291 c 1
426.5 1098 m 1
 426.5 1098 l 1
426.5 1098 m 1
 426.5 1098 l 1
426.5 1098 m 1
 426.5 1098 l 1
426.5 1098 m 0
EndSplineSet
EndChar

StartChar: tonos
Encoding: 900 900 444
Width: 468
VWidth: 0
Flags: W
LayerCount: 2
Fore
SplineSet
237 796 m 0
 326 796 370 730 370 664 c 0
 370 598 326 532 237 532 c 0
 149 532 104 598 104 664 c 0
 104 730 149 796 237 796 c 0
237 1098 m 1
 237 1098 l 1
237 1098 m 1
 237 1098 l 1
237 1098 m 0
EndSplineSet
EndChar

StartChar: trademark
Encoding: 8482 8482 445
Width: 1812
VWidth: 0
Flags: W
LayerCount: 2
Fore
SplineSet
90 1496 m 1
 727 1496 l 1
 727 1394 l 1
 463 1394 l 1
 463 609 l 1
 349 609 l 1
 349 1394 l 1
 90 1394 l 1
 90 1496 l 1
849 1496 m 1
 1006 1496 l 1
 1274 824 l 1
 1555 1496 l 1
 1704 1496 l 1
 1704 609 l 1
 1590 609 l 1
 1590 1349 l 1
 1310 680 l 1
 1224 680 l 1
 960 1349 l 1
 960 609 l 1
 849 609 l 1
 849 1496 l 1
EndSplineSet
EndChar

StartChar: two
Encoding: 50 50 446
Width: 1116
VWidth: 0
Flags: W
PickledData: "(dp1
S'com.typemytype.robofont.layerData'
p2
(dp3
S'back'
p4
(dp5
S'name'
p6
S'two'
p7
sS'lib'
p8
(dp9
sS'unicodes'
p10
(tsS'width'
p11
I1116
sS'contours'
p12
(tsS'components'
p13
(tsS'anchors'
p14
(tsss."
LayerCount: 2
Fore
SplineSet
144 1395 m 1
 227.363 1473.28 354.216 1525.16 548.108 1525.16 c 0
 820.435 1525.16 994 1365.47 994 1119 c 2
 994 1113 l 1
 992 925 891 781 728 605 c 1
 306 154 l 1
 999 154 l 1
 988 0 l 1
 113 0 l 1
 90 164 l 1
 607 738 l 2
 724 868 798 980 801 1097 c 1
 801 1107 l 2
 801 1272 706 1368 536 1368 c 0
 411 1368 286 1330 202 1245 c 1
 144 1395 l 1
EndSplineSet
EndChar

StartChar: twosuperior
Encoding: 178 178 447
Width: 836
VWidth: 0
Flags: W
PickledData: "(dp1
S'com.typemytype.robofont.layerData'
p2
(dp3
S'back'
p4
(dp5
S'name'
p6
S'twosuperior'
p7
sS'lib'
p8
(dp9
sS'unicodes'
p10
(tsS'width'
p11
I836
sS'contours'
p12
((dp13
S'points'
p14
((dp15
S'segmentType'
p16
S'line'
p17
sS'x'
I172
sS'smooth'
p18
I00
sS'y'
I1474
s(dp19
S'y'
I1520
sS'x'
I221
sg18
I00
s(dp20
S'y'
I1551
sS'x'
I296
sg18
I00
s(dp21
g16
S'curve'
p22
sS'x'
I411
sg18
I01
sS'y'
I1551
s(dp23
S'y'
I1551
sS'x'
I572
sg18
I00
s(dp24
S'y'
I1456
sS'x'
I675
sg18
I00
s(dp25
g16
S'curve'
p26
sS'x'
I675
sg18
I01
sS'y'
I1311
s(dp27
g16
S'line'
p28
sS'x'
I675
sg18
I00
sS'y'
I1307
s(dp29
S'y'
I1196
sS'x'
I673
sg18
I00
s(dp30
S'y'
I1111
sS'x'
I614
sg18
I00
s(dp31
g16
S'curve'
p32
sS'x'
I517
sg18
I00
sS'y'
I1007
s(dp33
g16
S'line'
p34
sS'x'
I268
sg18
I00
sS'y'
I740
s(dp35
g16
S'line'
p36
sS'x'
I678
sg18
I00
sS'y'
I740
s(dp37
g16
S'line'
p38
sS'x'
I671
sg18
I00
sS'y'
I649
s(dp39
g16
S'line'
p40
sS'x'
I154
sg18
I00
sS'y'
I649
s(dp41
g16
S'line'
p42
sS'x'
I140
sg18
I00
sS'y'
I746
s(dp43
g16
S'line'
p44
sS'x'
I446
sg18
I01
sS'y'
I1086
s(dp45
S'y'
I1162
sS'x'
I515
sg18
I00
s(dp46
S'y'
I1229
sS'x'
I559
sg18
I00
s(dp47
g16
S'curve'
p48
sS'x'
I560
sg18
I00
sS'y'
I1298
s(dp49
g16
S'line'
p50
sS'x'
I560
sg18
I01
sS'y'
I1304
s(dp51
S'y'
I1401
sS'x'
I560
sg18
I00
s(dp52
S'y'
I1458
sS'x'
I504
sg18
I00
s(dp53
g16
S'curve'
p54
sS'x'
I404
sg18
I01
sS'y'
I1458
s(dp55
S'y'
I1458
sS'x'
I330
sg18
I00
s(dp56
S'y'
I1436
sS'x'
I256
sg18
I00
s(dp57
g16
S'curve'
p58
sS'x'
I206
sg18
I00
sS'y'
I1385
stp59
stp60
sS'components'
p61
(tsS'anchors'
p62
(tsss."
LayerCount: 2
Fore
SplineSet
164 641 m 1
 645 641 l 1
 656 761 l 1
 315 761 l 1
 494 948 685 1135 685 1318 c 1
 684 1486 553 1551 422 1551 c 0
 350 1551 245 1528 172 1477 c 1
 172 1477 219 1361 219 1360 c 1
 277 1404 364 1424 415 1424 c 0
 494 1424 545 1376 545 1303 c 0
 545 1183 357 991 143 750 c 1
 164 641 l 1
EndSplineSet
EndChar

StartChar: u
Encoding: 117 117 448
Width: 1098
VWidth: 0
Flags: W
PickledData: "(dp1
S'com.typemytype.robofont.layerData'
p2
(dp3
S'back'
p4
(dp5
S'name'
p6
S'u'
sS'lib'
p7
(dp8
sS'unicodes'
p9
(tsS'width'
p10
I1098
sS'contours'
p11
(tsS'components'
p12
(tsS'anchors'
p13
(tsss."
LayerCount: 2
Fore
SplineSet
108 366 m 2
 108 1098 l 1
 276 1098 l 1
 276 364 l 2
 276 167 392 113 550 113 c 0
 706 113 821 169 821 364 c 2
 821 1098 l 1
 989 1098 l 1
 989 366 l 2
 989 78 782 -25 550 -25 c 0
 318 -25 108 80 108 366 c 2
550 1098 m 0
989 10 m 0
551 1098 m 0
990 10 m 0
EndSplineSet
EndChar

StartChar: underscore
Encoding: 95 95 456
Width: 1252
VWidth: 0
Flags: W
LayerCount: 2
Fore
SplineSet
1102 -156 m 1
 1102 -292 l 1
 150 -292 l 1
 150 -156 l 1
 1102 -156 l 1
EndSplineSet
EndChar

StartChar: uni00AD
Encoding: 173 173 459
Width: 1234
VWidth: 0
Flags: W
LayerCount: 2
Fore
SplineSet
1111 0 m 1
 133 0 l 1
 133 148 l 1
 1111 148 l 1
 1111 0 l 1
EndSplineSet
EndChar

StartChar: uni00AF
Encoding: 175 175 460
Width: 1062
VWidth: 0
Flags: W
LayerCount: 2
Fore
SplineSet
933 1625 m 1
 933 1486 l 1
 133 1486 l 1
 133 1625 l 1
 933 1625 l 1
EndSplineSet
EndChar

StartChar: uni018F
Encoding: 399 399 461
Width: 1432
VWidth: 0
Flags: W
LayerCount: 2
Fore
SplineSet
661.404 -23.123 m 0
 211.64 -23.123 51.282 337.432 36.7998 641.2 c 1
 36.7998 686.2 43.8572 777.2 43.7998 777.2 c 2
 1132.78 777.2 l 1
 1126.31 1086.24 977.205 1373 592 1373 c 0
 435.733 1373 318.8 1316.2 218 1250 c 1
 151 1384 l 1
 278.8 1479.2 401.197 1525 606 1525 c 0
 1076 1525 1322 1180 1322 757 c 0
 1322 309.261 1054.59 -23.123 661.404 -23.123 c 0
1124.73 631.2 m 1
 217.359 631.2 l 1
 231.705 417.489 307.404 128.963 664.867 128.963 c 0
 928.749 128.963 1091.69 350.92 1124.73 631.2 c 1
EndSplineSet
EndChar

StartChar: uni0259
Encoding: 601 601 502
Width: 1091
VWidth: 0
Flags: W
LayerCount: 2
Fore
SplineSet
526 111 m 0
 692 111 812 248 831 464 c 1
 246 464 l 1
 246 230 363 111 526 111 c 0
505 1124 m 0
 818 1124 1009 901 1009 548 c 0
 1009 220 818 -17 532 -25 c 1
 516 -25 l 2
 243 -25 84 181 84 505 c 0
 84 521 86 561 86 580 c 1
 837 580 l 1
 837 827 693 980 500 980 c 0
 344 980 230 923 152 870 c 1
 100 992 l 1
 190 1069 329 1124 505 1124 c 0
547 1 m 1
 547 1 l 1
547 1099 m 1
 547 1099 l 1
111 1089 m 1
 111 1089 l 1
547 1 m 1
 547 1 l 1
547 1099 m 1
 547 1099 l 1
111 1089 m 1
 111 1089 l 1
EndSplineSet
EndChar

StartChar: uni030F
Encoding: 783 783 503
Width: 855
VWidth: 0
Flags: W
LayerCount: 2
Fore
SplineSet
627 1259 m 1
 380 1594 l 1
 531 1594 l 1
 729 1259 l 1
 627 1259 l 1
359 1259 m 1
 109 1594 l 1
 259 1594 l 1
 461 1259 l 1
 359 1259 l 1
EndSplineSet
EndChar

StartChar: uni0311
Encoding: 785 785 504
Width: 767
VWidth: 0
Flags: W
LayerCount: 2
Fore
SplineSet
383 1557 m 0
 507 1557 636 1471 636 1299 c 1
 519 1299 l 1
 519 1395 456 1440 383 1440 c 0
 310 1440 250 1395 250 1299 c 1
 134 1299 l 1
 134 1471 260 1557 383 1557 c 0
EndSplineSet
EndChar

StartChar: uni0326
Encoding: 806 806 505
Width: 555
VWidth: 0
Flags: W
LayerCount: 2
Fore
SplineSet
144 -672 m 1
 238 -174 l 1
 404 -174 l 1
 261 -672 l 1
 144 -672 l 1
EndSplineSet
EndChar

StartChar: uni0403
Encoding: 1027 1027 507
Width: 1008
VWidth: 0
Flags: W
LayerCount: 2
Fore
SplineSet
1003 1343 m 1
 324 1343 l 1
 324 0 l 1
 147 0 l 1
 147 1496 l 1
 1003 1496 l 1
 1003 1343 l 1
EndSplineSet
EndChar

StartChar: uni0406
Encoding: 1030 1030 509
Width: 490
VWidth: 0
Flags: W
LayerCount: 2
Fore
SplineSet
331 1497 m 1
 331 0 l 1
 155 0 l 1
 155 1497 l 1
 331 1497 l 1
EndSplineSet
EndChar

StartChar: uni0409
Encoding: 1033 1033 511
Width: 1825
VWidth: 0
Flags: W
LayerCount: 2
Fore
SplineSet
1277 717 m 2
 1018 717 l 1
 1018 155 l 1
 1277 155 l 2
 1442 155 1563 255 1563 431 c 0
 1563 607 1446 717 1277 717 c 2
1018 1496 m 1
 1018 871 l 1
 1277 871 l 2
 1553 871 1745 743 1745 428 c 0
 1745 139 1561 0 1277 0 c 2
 841 0 l 1
 841 1341 l 1
 458 1341 l 1
 458 433 l 2
 458 125 424 -26 72 -26 c 2
 44 -26 l 1
 44 131 l 1
 90 131 l 2
 271 131 281 236 281 384 c 2
 281 1496 l 1
 1018 1496 l 1
EndSplineSet
EndChar

StartChar: uni040A
Encoding: 1034 1034 512
Width: 1681
VWidth: 0
Flags: W
LayerCount: 2
Fore
SplineSet
1144 716 m 2
 926 716 l 1
 926 160 l 1
 1144 160 l 2
 1309 160 1430 255 1430 431 c 0
 1430 607 1313 716 1144 716 c 2
926 871 m 1
 1144 871 l 2
 1420 871 1612 743 1612 428 c 0
 1612 139 1428 0 1144 0 c 2
 749 0 l 1
 749 716 l 1
 324 716 l 1
 324 0 l 1
 147 0 l 1
 147 1496 l 1
 324 1496 l 1
 324 871 l 1
 749 871 l 1
 749 1496 l 1
 926 1496 l 1
 926 871 l 1
EndSplineSet
EndChar

StartChar: uni0411
Encoding: 1041 1041 514
Width: 1190
VWidth: 0
Flags: W
LayerCount: 2
Fore
SplineSet
924 429 m 0
 924 605 827 716 638 716 c 2
 324 716 l 1
 324 155 l 1
 638 155 l 2
 823 155 924 253 924 429 c 0
147 1496 m 1
 1032 1496 l 1
 1032 1341 l 1
 324 1341 l 1
 324 871 l 1
 638 871 l 2
 914 871 1106 742 1106 427 c 0
 1106 138 922 0 638 0 c 2
 147 0 l 1
 147 1496 l 1
EndSplineSet
EndChar

StartChar: uni0412
Encoding: 1042 1042 515
Width: 1252
VWidth: 0
Flags: W
LayerCount: 2
Fore
SplineSet
324 708 m 1
 324 142 l 1
 608 142 l 2
 868 142 1004 227 1004 428 c 0
 1004 616 883 708 659 708 c 2
 324 708 l 1
324 1349 m 1
 324 846 l 1
 639 846 l 2
 778 846 937 885 937 1096 c 0
 937 1321 771 1349 528 1349 c 2
 324 1349 l 1
147 0 m 1
 147 1496 l 1
 554 1496 l 2
 915 1496 1122 1395 1122 1131 c 0
 1122 988 1061 851 910 801 c 1
 1098 761 1184 585 1184 426 c 0
 1184 163 1030 0 641 0 c 2
 147 0 l 1
EndSplineSet
EndChar

StartChar: uni0413
Encoding: 1043 1043 516
Width: 1008
VWidth: 0
Flags: W
LayerCount: 2
Fore
SplineSet
1003 1341 m 1
 323 1341 l 1
 323 0 l 1
 146 0 l 1
 146 1496 l 1
 1018 1496 l 1
 1003 1341 l 1
EndSplineSet
EndChar

StartChar: uni0414
Encoding: 1044 1044 517
Width: 1387
VWidth: 0
Flags: W
LayerCount: 2
Fore
SplineSet
1016 152 m 1
 1016 1354 l 1
 667 1354 l 1
 367 152 l 1
 1016 152 l 1
523 1496 m 1
 1193 1496 l 1
 1193 152 l 1
 1309 152 l 1
 1309 -265 l 1
 1132 -265 l 1
 1132 0 l 1
 191 0 l 1
 191 -265 l 1
 14 -265 l 1
 14 152 l 1
 171 152 l 1
 523 1496 l 1
EndSplineSet
EndChar

StartChar: uni0415
Encoding: 1045 1045 518
Width: 1140
VWidth: 0
Flags: W
LayerCount: 2
Fore
SplineSet
987 845 m 1
 987 692 l 1
 324 692 l 1
 324 155 l 1
 1058 155 l 1
 1043 0 l 1
 147 0 l 1
 147 1496 l 1
 1029 1496 l 1
 1015 1341 l 1
 324 1341 l 1
 324 845 l 1
 987 845 l 1
EndSplineSet
EndChar

StartChar: uni041B
Encoding: 1051 1051 519
Width: 1223
VWidth: 0
Flags: W
LayerCount: 2
Fore
SplineSet
27 0 m 1
 402 1496 l 1
 1076 1496 l 1
 1076 0 l 1
 899 0 l 1
 899 1341 l 1
 553 1341 l 1
 214 0 l 1
 27 0 l 1
EndSplineSet
EndChar

StartChar: uni041F
Encoding: 1055 1055 523
Width: 1463
VWidth: 0
Flags: W
LayerCount: 2
Fore
SplineSet
1139 1342 m 1
 324 1342 l 1
 324 0 l 1
 147 0 l 1
 147 1496 l 1
 1316 1496 l 1
 1316 0 l 1
 1139 0 l 1
 1139 1342 l 1
EndSplineSet
EndChar

StartChar: uni0420
Encoding: 1056 1056 524
Width: 1140
VWidth: 0
Flags: W
LayerCount: 2
Fore
SplineSet
645 779 m 2
 836 779 929 889 929 1066 c 0
 929 1243 830 1341 645 1341 c 2
 324 1341 l 1
 324 779 l 1
 645 779 l 2
324 626 m 1
 324 0 l 1
 147 0 l 1
 147 1496 l 1
 641 1496 l 2
 925 1496 1109 1358 1109 1069 c 0
 1109 754 917 626 641 626 c 2
 324 626 l 1
EndSplineSet
EndChar

StartChar: uni0424
Encoding: 1060 1060 527
Width: 1727
VWidth: 0
Flags: W
LayerCount: 2
Fore
SplineSet
774 1205 m 1
 443 1170 290 1000 290 745 c 0
 290 489 443 320 774 285 c 1
 774 1205 l 1
937 1207 m 1
 937 284 l 1
 1283 316 1437 489 1437 745 c 0
 1437 1001 1283 1175 937 1207 c 1
937 1496 m 1
 937 1364 l 1
 1363 1335 1626 1120 1626 745 c 0
 1626 370 1363 155 937 126 c 1
 937 0 l 1
 774 0 l 1
 774 128 l 1
 342 165 101 391 101 745 c 0
 101 1099 342 1325 774 1362 c 1
 774 1496 l 1
 937 1496 l 1
EndSplineSet
EndChar

StartChar: uni0428
Encoding: 1064 1064 529
Width: 1671
VWidth: 0
Flags: W
LayerCount: 2
Fore
SplineSet
324 155 m 1
 746 155 l 1
 746 1496 l 1
 923 1496 l 1
 923 155 l 1
 1347 155 l 1
 1347 1496 l 1
 1524 1496 l 1
 1524 0 l 1
 147 0 l 1
 147 1496 l 1
 324 1496 l 1
 324 155 l 1
EndSplineSet
EndChar

StartChar: uni042A
Encoding: 1066 1066 530
Width: 1424
VWidth: 0
Flags: W
LayerCount: 2
Fore
SplineSet
1181 431 m 0
 1181 593 1080 696 828 696 c 2
 597 696 l 1
 597 156 l 1
 828 156 l 2
 1076 156 1181 255 1181 431 c 0
420 0 m 1
 420 1341 l 1
 35 1341 l 1
 35 1496 l 1
 597 1496 l 1
 597 849 l 1
 807 849 l 2
 1152 849 1347 717 1347 428 c 0
 1347 139 1152 0 807 0 c 2
 420 0 l 1
EndSplineSet
EndChar

StartChar: uni042B
Encoding: 1067 1067 531
Width: 1583
VWidth: 0
Flags: W
LayerCount: 2
Fore
SplineSet
1436 1496 m 1
 1436 0 l 1
 1259 0 l 1
 1259 1496 l 1
 1436 1496 l 1
EndSplineSet
Refer: 532 1068 N 1 0 0 1 0 0 2
EndChar

StartChar: uni042C
Encoding: 1068 1068 532
Width: 1144
VWidth: 0
Flags: W
LayerCount: 2
Fore
SplineSet
324 696 m 1
 324 155 l 1
 487 155 l 2
 740 155 858 255 858 431 c 0
 858 600 743 696 480 696 c 2
 324 696 l 1
324 1496 m 1
 324 849 l 1
 460 849 l 2
 801 849 1025 706 1025 435 c 0
 1025 173 841 0 467 0 c 2
 147 0 l 1
 147 1496 l 1
 324 1496 l 1
EndSplineSet
EndChar

StartChar: uni042E
Encoding: 1070 1070 533
Width: 2042
VWidth: 0
Flags: W
LayerCount: 2
Fore
SplineSet
1282 1373 m 0
 974 1373 825 1073 825 746 c 0
 825 420 981 129 1291 129 c 0
 1600 129 1752 415 1752 748 c 0
 1752 1065 1600 1373 1282 1373 c 0
1289 -23 m 0
 893 -23 666 295 637 686 c 1
 324 686 l 1
 324 0 l 1
 147 0 l 1
 147 1495 l 1
 324 1495 l 1
 324 837 l 1
 640 837 l 1
 672 1240 893 1525 1280 1525 c 0
 1699 1525 1941 1189 1941 742 c 0
 1941 322 1709 -23 1289 -23 c 0
EndSplineSet
EndChar

StartChar: uni042F
Encoding: 1071 1071 534
Width: 1305
VWidth: 0
Flags: W
LayerCount: 2
Fore
SplineSet
631 792 m 2
 981 792 l 1
 981 1341 l 1
 631 1341 l 2
 378 1341 272 1248 272 1072 c 0
 272 903 350 792 631 792 c 2
981 0 m 1
 981 639 l 1
 796 639 l 2
 644 639 593 645 554 648 c 1
 241 0 l 1
 38 0 l 1
 118 172 376 680 376 681 c 0
 207 745 102 882 102 1074 c 0
 102 1363 303 1496 672 1496 c 2
 1158 1496 l 1
 1158 0 l 1
 981 0 l 1
EndSplineSet
EndChar

StartChar: uni0433
Encoding: 1075 1075 536
Width: 666
VWidth: 0
Flags: W
LayerCount: 2
Fore
SplineSet
649 956 m 1
 283 956 l 1
 283 0 l 1
 115 0 l 1
 115 1098 l 1
 649 1098 l 1
 649 956 l 1
EndSplineSet
EndChar

StartChar: uni0434
Encoding: 1076 1076 537
Width: 1104
VWidth: 0
Flags: W
LayerCount: 2
Fore
SplineSet
294 134 m 1
 781 134 l 1
 781 956 l 1
 409 956 l 1
 397 634 l 1
 368.296333333 462.296333333 333.963 295.629666667 294 134 c 1
168 0 m 1
 168 -268 l 1
 10 -268 l 1
 10 136 l 1
 106 136 l 1
 189 236 214 449 222 581 c 2
 254 1098 l 1
 949 1098 l 1
 949 134 l 1
 1036 134 l 1
 1036 -268 l 1
 873 -268 l 1
 873 0 l 1
 168 0 l 1
EndSplineSet
EndChar

StartChar: uni0438
Encoding: 1080 1080 539
Width: 1117
VWidth: 0
Flags: W
LayerCount: 2
Fore
SplineSet
1002 0 m 1
 834 0 l 1
 834 746 l 1
 273 0 l 1
 115 0 l 1
 115 1098 l 1
 283 1098 l 1
 283 261 l 1
 834 995 l 1
 834 1098 l 1
 1002 1098 l 1
 1002 0 l 1
EndSplineSet
EndChar

StartChar: uni043B
Encoding: 1083 1083 541
Width: 1172
VWidth: 0
Flags: W
LayerCount: 2
Fore
SplineSet
202 1098 m 1
 1057 1098 l 1
 1057 0 l 1
 889 0 l 1
 889 956 l 1
 370 956 l 1
 370 419 l 2
 370 91 366 -25 61 -25 c 2
 24 -25 l 1
 14 128 l 1
 61 128 l 2
 200 128 202 185 202 409 c 2
 202 1098 l 1
EndSplineSet
EndChar

StartChar: uni043C
Encoding: 1084 1084 542
Width: 1178
VWidth: 0
Flags: W
LayerCount: 2
Fore
SplineSet
648 385 m 1
 541 385 l 1
 282 811 l 1
 282 0 l 1
 114 0 l 1
 114 1098 l 1
 262 1098 l 1
 588 583 l 1
 916 1098 l 1
 1063 1098 l 1
 1063 0 l 1
 895 0 l 1
 895 811 l 1
 648 385 l 1
EndSplineSet
EndChar

StartChar: uni043D
Encoding: 1085 1085 543
Width: 1117
VWidth: 0
Flags: W
LayerCount: 2
Fore
SplineSet
115 1098 m 1
 283 1098 l 1
 283 653 l 1
 834 653 l 1
 834 1098 l 1
 1002 1098 l 1
 1002 0 l 1
 834 0 l 1
 834 518 l 1
 283 518 l 1
 283 0 l 1
 115 0 l 1
 115 1098 l 1
EndSplineSet
EndChar

StartChar: uni043F
Encoding: 1087 1087 545
Width: 1194
VWidth: 0
Flags: W
LayerCount: 2
Fore
SplineSet
152 1098 m 1
 1039 1098 l 1
 1039 0 l 1
 871 0 l 1
 871 956 l 1
 320 956 l 1
 320 0 l 1
 152 0 l 1
 152 1098 l 1
EndSplineSet
EndChar

StartChar: uni0442
Encoding: 1090 1090 548
Width: 847
VWidth: 0
Flags: W
LayerCount: 2
Fore
SplineSet
43 1098 m 1
 805 1098 l 1
 805 956 l 1
 512 956 l 1
 512 0 l 1
 344 0 l 1
 344 956 l 1
 43 956 l 1
 43 1098 l 1
EndSplineSet
EndChar

StartChar: uni0443
Encoding: 1091 1091 549
Width: 1095
VWidth: 0
Flags: W
LayerCount: 2
Fore
SplineSet
551 202 m 1
 856 1098 l 1
 1039 1098 l 1
 650 22 l 2
 534 -298 538 -410 176 -410 c 2
 119 -410 l 1
 93 -245 l 1
 166 -245 l 2
 374 -245 376 -210 453 30 c 1
 44 1098 l 1
 229 1098 l 1
 551 202 l 1
EndSplineSet
EndChar

StartChar: uni0444
Encoding: 1092 1092 550
Width: 1409
VWidth: 0
Flags: W
LayerCount: 2
Fore
SplineSet
483 168 m 0
 526 168 572 174 620 196 c 1
 620 906 l 1
 569 931 523 934 480 934 c 0
 338 934 260 755 260 556 c 0
 260 359 341 168 483 168 c 0
927 934 m 0
 882 934 839 927 788 902 c 1
 788 198 l 1
 836 173 881 168 924 168 c 0
 1065 168 1149 359 1149 556 c 0
 1149 755 1068 934 927 934 c 0
620 1312 m 1
 788 1312 l 1
 788 1039 l 1
 835 1058 882 1070 927 1070 c 0
 1164 1070 1323 844 1323 558 c 0
 1323 274 1162 32 928 32 c 0
 883 32 835 38 788 57 c 1
 788 -195 l 1
 620 -195 l 1
 620 57 l 1
 573 38 523 32 478 32 c 0
 245 32 86 273 86 558 c 0
 86 844 242 1070 480 1070 c 0
 523 1070 573 1058 620 1039 c 1
 620 1312 l 1
EndSplineSet
EndChar

StartChar: uni0447
Encoding: 1095 1095 552
Width: 1030
VWidth: 0
Flags: W
LayerCount: 2
Fore
SplineSet
242 862 m 2
 242 622.309 322.112 537.834 487.736 537.834 c 0
 600.599 537.834 712.817 610.32 747 753 c 1
 747 1098 l 1
 915 1098 l 1
 915 0 l 1
 747 0 l 1
 747 548 l 1
 699.609 449.513 585.11 394.814 457.367 394.814 c 0
 202.635 394.814 74 568.357 74 844 c 2
 74 1098 l 1
 242 1098 l 1
 242 862 l 2
EndSplineSet
EndChar

StartChar: uni0448
Encoding: 1096 1096 553
Width: 1322
VWidth: 0
Flags: W
LayerCount: 2
Fore
SplineSet
283 144 m 1
 577 144 l 1
 577 1098 l 1
 745 1098 l 1
 745 144 l 1
 1039 144 l 1
 1039 1098 l 1
 1207 1098 l 1
 1207 0 l 1
 115 0 l 1
 115 1098 l 1
 283 1098 l 1
 283 144 l 1
EndSplineSet
EndChar

StartChar: uni044A
Encoding: 1098 1098 554
Width: 1152
VWidth: 0
Flags: W
LayerCount: 2
Fore
SplineSet
740 520 m 2
 429 520 l 1
 429 134 l 1
 746 134 l 2
 879 134 938 245 938 337 c 0
 938 421 873 520 740 520 c 2
429 1098 m 1
 429 656 l 1
 719 656 l 2
 986 656 1100 501 1100 337 c 0
 1100 166 992 0 725 0 c 2
 261 0 l 1
 261 956 l 1
 27 956 l 1
 27 1098 l 1
 429 1098 l 1
EndSplineSet
EndChar

StartChar: uni044E
Encoding: 1102 1102 555
Width: 1468
VWidth: 0
Flags: W
LayerCount: 2
Fore
SplineSet
926 113 m 0
 1143 113 1207 323 1207 547 c 0
 1207 780 1150 986 923 986 c 0
 707 986 629 768 629 544 c 0
 629 323 706 113 926 113 c 0
1381 549 m 0
 1381 245 1252 -25 923 -25 c 0
 616 -25 477 195 458 478 c 1
 283 478 l 1
 283 0 l 1
 115 0 l 1
 115 1098 l 1
 283 1098 l 1
 283 618 l 1
 458 618 l 1
 478 900 619 1124 926 1124 c 0
 1262 1124 1381 865 1381 549 c 0
EndSplineSet
EndChar

StartChar: uni0456
Encoding: 1110 1110 559
Width: 489
VWidth: 0
Flags: W
LayerCount: 2
Fore
SplineSet
329 1490 m 1
 329 1292 l 1
 160 1292 l 1
 160 1490 l 1
 329 1490 l 1
329 1098 m 1
 329 0 l 1
 160 0 l 1
 160 1098 l 1
 329 1098 l 1
EndSplineSet
EndChar

StartChar: uni2206
Encoding: 8710 8710 578
Width: 1339
VWidth: 0
Flags: W
LayerCount: 2
Fore
SplineSet
284 174 m 1
 1062 174 l 1
 704 1195 l 1
 668 1312 l 1
 636 1195 l 1
 284 174 l 1
1263 86 m 1
 1263 0 l 1
 83 0 l 1
 83 86 l 1
 578 1541 l 1
 768 1541 l 1
 1263 86 l 1
EndSplineSet
EndChar

StartChar: upsilon
Encoding: 965 965 580
Width: 468
VWidth: 0
Flags: W
LayerCount: 2
Fore
SplineSet
237 796 m 0
 326 796 370 730 370 664 c 0
 370 598 326 532 237 532 c 0
 149 532 104 598 104 664 c 0
 104 730 149 796 237 796 c 0
234 1098 m 1
 234 1098 l 1
234 1098 m 1
 234 1098 l 1
234 1098 m 0
EndSplineSet
EndChar

StartChar: upsilondieresis
Encoding: 971 971 581
Width: 468
VWidth: 0
Flags: W
LayerCount: 2
Fore
SplineSet
237 796 m 0
 326 796 370 730 370 664 c 0
 370 598 326 532 237 532 c 0
 149 532 104 598 104 664 c 0
 104 730 149 796 237 796 c 0
EndSplineSet
EndChar

StartChar: upsilondieresistonos
Encoding: 944 944 582
Width: 468
VWidth: 0
Flags: W
LayerCount: 2
Fore
SplineSet
237 796 m 0
 326 796 370 730 370 664 c 0
 370 598 326 532 237 532 c 0
 149 532 104 598 104 664 c 0
 104 730 149 796 237 796 c 0
EndSplineSet
EndChar

StartChar: upsilontonos
Encoding: 973 973 583
Width: 468
VWidth: 0
Flags: W
LayerCount: 2
Fore
SplineSet
237 796 m 0
 326 796 370 730 370 664 c 0
 370 598 326 532 237 532 c 0
 149 532 104 598 104 664 c 0
 104 730 149 796 237 796 c 0
EndSplineSet
EndChar

StartChar: v
Encoding: 118 118 586
Width: 1036
VWidth: 0
Flags: W
PickledData: "(dp1
S'com.typemytype.robofont.layerData'
p2
(dp3
S'back'
p4
(dp5
S'name'
p6
S'v'
sS'lib'
p7
(dp8
sS'unicodes'
p9
(tsS'width'
p10
I1036
sS'contours'
p11
(tsS'components'
p12
(tsS'anchors'
p13
(tsss."
LayerCount: 2
Fore
SplineSet
433 0 m 1
 -1 1098 l 1
 179 1098 l 1
 525 184 l 1
 852 1098 l 1
 1031 1098 l 1
 602 0 l 1
 433 0 l 1
EndSplineSet
EndChar

StartChar: w
Encoding: 119 119 587
Width: 1619
VWidth: 0
Flags: W
PickledData: "(dp1
S'com.typemytype.robofont.layerData'
p2
(dp3
S'back'
p4
(dp5
S'name'
p6
S'w'
sS'lib'
p7
(dp8
sS'unicodes'
p9
(tsS'width'
p10
I1619
sS'contours'
p11
(tsS'components'
p12
(tsS'anchors'
p13
(tsss."
LayerCount: 2
Fore
SplineSet
15 1098 m 1
 188 1098 l 1
 433 223 l 1
 722 1098 l 1
 919 1098 l 1
 1199 227 l 1
 1434 1098 l 1
 1604 1098 l 1
 1275 0 l 1
 1109 0 l 1
 818 928 l 1
 511 0 l 1
 342 0 l 1
 15 1098 l 1
810 1098 m 1
 810 1098 l 1
810 1098 m 1
 810 1098 l 1
810 1098 m 1
 810 1098 l 1
810 1098 m 0
EndSplineSet
EndChar

StartChar: x
Encoding: 120 120 592
Width: 1042
VWidth: 0
Flags: W
PickledData: "(dp1
S'com.typemytype.robofont.layerData'
p2
(dp3
S'back'
p4
(dp5
S'name'
p6
S'x'
sS'lib'
p7
(dp8
sS'unicodes'
p9
(tsS'width'
p10
I1042
sS'contours'
p11
(tsS'components'
p12
(tsS'anchors'
p13
(tsss."
LayerCount: 2
Fore
SplineSet
823 1098 m 1
 1018 1098 l 1
 624 552 l 1
 1018 0 l 1
 836 0 l 1
 526 439 l 1
 217 0 l 1
 24 0 l 1
 426 556 l 1
 34 1098 l 1
 227 1098 l 1
 524 682 l 1
 823 1098 l 1
EndSplineSet
EndChar

StartChar: xi
Encoding: 958 958 593
Width: 468
VWidth: 0
Flags: W
LayerCount: 2
Fore
SplineSet
237 796 m 0
 326 796 370 730 370 664 c 0
 370 598 326 532 237 532 c 0
 149 532 104 598 104 664 c 0
 104 730 149 796 237 796 c 0
EndSplineSet
EndChar

StartChar: y
Encoding: 121 121 594
Width: 1012
VWidth: 0
Flags: W
PickledData: "(dp1
S'com.typemytype.robofont.layerData'
p2
(dp3
S'back'
p4
(dp5
S'name'
p6
S'y'
sS'lib'
p7
(dp8
sS'unicodes'
p9
(tsS'width'
p10
I1012
sS'contours'
p11
(tsS'components'
p12
(tsS'anchors'
p13
(tsss."
LayerCount: 2
Fore
SplineSet
180 1098 m 1
 4 1098 l 1
 431 23 l 1
 316 -314 282 -351 46 -351 c 2
 17 -351 l 1
 36 -502 l 1
 89 -502 l 2
 400 -502 501 -314 593 -48 c 2
 993 1098 l 1
 816 1098 l 1
 815 1099 613 470 526 207 c 0
 526 206 180 1098 180 1098 c 1
510 1098 m 0
EndSplineSet
EndChar

StartChar: yen
Encoding: 165 165 598
Width: 1129
VWidth: 0
Flags: W
PickledData: "(dp1
S'com.typemytype.robofont.layerData'
p2
(dp3
S'back'
p4
(dp5
S'name'
p6
S'yen'
p7
sS'lib'
p8
(dp9
sS'unicodes'
p10
(tsS'width'
p11
I1129
sS'contours'
p12
(tsS'components'
p13
(tsS'anchors'
p14
(tsss."
LayerCount: 2
Fore
SplineSet
640 330 m 1
 640 0 l 1
 488 0 l 1
 488 330 l 1
 97 330 l 1
 97 452 l 1
 487 452 l 1
 487 646 l 1
 100 646 l 1
 100 767 l 1
 451 767 l 1
 34 1496 l 1
 213 1496 l 1
 565 875 l 1
 925 1496 l 1
 1095 1496 l 1
 665 767 l 1
 1014 767 l 1
 1014 646 l 1
 639 646 l 1
 639 452 l 1
 1017 452 l 1
 1017 330 l 1
 640 330 l 1
EndSplineSet
EndChar

StartChar: z
Encoding: 122 122 600
Width: 861
VWidth: 0
Flags: W
PickledData: "(dp1
S'com.typemytype.robofont.layerData'
p2
(dp3
S'back'
p4
(dp5
S'name'
p6
S'z'
sS'lib'
p7
(dp8
sS'unicodes'
p9
(tsS'width'
p10
I861
sS'contours'
p11
(tsS'components'
p12
(tsS'anchors'
p13
(tsss."
LayerCount: 2
Fore
SplineSet
86 139 m 1
 86 0 l 1
 823 0 l 1
 823 136 l 1
 273 136 l 1
 803 964 l 1
 803 1098 l 1
 80 1098 l 1
 80 964 l 1
 611 964 l 1
 86 139 l 1
437 1098 m 0
EndSplineSet
EndChar

StartChar: zero
Encoding: 48 48 604
Width: 1241
VWidth: 0
Flags: W
LayerCount: 2
Fore
SplineSet
622 1373 m 0
 414 1373 301 1113 301 757 c 0
 301 394 414 129 622 129 c 0
 830 129 943 394 943 757 c 0
 943 1113 830 1373 622 1373 c 0
622 -23 m 0
 258 -23 109 312 109 751 c 0
 109 1210 273 1525 622 1525 c 0
 971 1525 1132 1210 1132 751 c 0
 1132 312 986 -23 622 -23 c 0
EndSplineSet
EndChar

StartChar: zeta
Encoding: 950 950 605
Width: 468
VWidth: 0
Flags: W
LayerCount: 2
Fore
SplineSet
237 796 m 0
 326 796 370 730 370 664 c 0
 370 598 326 532 237 532 c 0
 149 532 104 598 104 664 c 0
 104 730 149 796 237 796 c 0
EndSplineSet
EndChar
